<svg width="67" height="60" viewBox="0 0 67 60" fill="none" xmlns="http://www.w3.org/2000/svg">
<path d="M43.2595 42.0387C37.4265 47.6034 29.8483 50.4088 22.4679 49.7361C22.4622 49.7361 22.4565 49.7361 22.4509 49.7361C22.4322 49.7344 22.4136 49.7344 22.3941 49.7361C22.386 49.7361 22.3779 49.7377 22.3698 49.7393C22.3576 49.7409 22.3455 49.7417 22.3325 49.7442C22.326 49.7458 22.3204 49.749 22.3139 49.7515C22.3074 49.7531 22.3009 49.7555 22.2944 49.7579C22.275 49.7652 22.2555 49.7725 22.2377 49.7823C22.2344 49.7839 22.232 49.7863 22.2288 49.7879C22.2085 49.7993 22.1899 49.8114 22.172 49.826C22.1704 49.8277 22.1688 49.8293 22.1672 49.8309C22.1493 49.8463 22.1331 49.8625 22.1177 49.8803C22.1153 49.8836 22.1137 49.886 22.1112 49.8893C22.0974 49.9063 22.0853 49.9249 22.0739 49.9444C22.0715 49.9484 22.0699 49.9533 22.0675 49.9573C22.0577 49.9768 22.0496 49.9963 22.0431 50.0165C22.0415 50.0214 22.0407 50.0271 22.0391 50.0319C22.0334 50.053 22.0294 50.0741 22.0269 50.0952C22.0269 50.0976 22.0261 50.0992 22.0261 50.1016C22.0261 50.1057 22.0261 50.1097 22.0261 50.1138C22.0253 50.1341 22.0245 50.1543 22.0261 50.1746C22.0269 50.1835 22.0285 50.1924 22.0302 50.2013C22.0318 50.2127 22.0318 50.224 22.035 50.2354C22.3949 51.6871 22.5554 53.1811 22.5108 54.675C22.4736 55.9322 22.2904 57.1829 21.9669 58.3988C20.5217 57.8152 18.62 56.712 17.0621 54.6563C15.0867 52.0495 14.7438 49.287 14.7178 47.8539C14.8013 47.1989 14.8597 46.5415 14.8954 45.8833C15.1856 45.7877 15.3128 45.3451 14.9708 45.1417C14.9554 45.1327 14.9408 45.1238 14.9254 45.1149C14.9586 43.8236 14.9002 42.5307 14.7495 41.2508C14.5719 39.7423 14.2639 38.2363 13.8367 36.7821C13.5498 35.7332 13.0999 34.771 12.5001 33.9239C11.2242 32.1204 9.58682 31.2668 9.0494 30.9864C9.01779 30.9701 8.99104 30.9555 8.96835 30.9442C6.73842 29.7534 4.62197 24.954 2.67494 16.6762C2.74708 16.6835 2.82085 16.6965 2.89623 16.7159C2.90272 16.7176 2.91001 16.7192 2.9165 16.7208C3.09401 16.7573 3.27234 16.7994 3.44419 16.8456C3.44986 16.8473 4.01646 17.0021 4.55794 17.2331C6.86406 18.2131 8.77705 19.797 9.71166 20.6538C10.0116 20.9294 10.1826 21.1037 10.1826 21.1037C10.2815 21.205 10.3812 21.3071 10.4825 21.4084L10.4833 21.4093C11.5363 22.4654 12.723 23.5152 13.8838 24.4781C13.9202 24.5081 13.9559 24.5381 13.9924 24.5673C14.302 24.8226 14.6092 25.0723 14.9116 25.3139C16.647 26.6991 18.2091 27.8226 19.0221 28.3933C19.031 28.3998 19.0407 28.4063 19.0496 28.4127C19.1177 28.4606 19.1809 28.5051 19.2385 28.5449C19.3544 28.6251 19.4695 28.7045 19.5846 28.7832C21.4149 30.0299 23.1618 31.0107 24.7991 31.7815C25.0642 31.9064 25.326 32.0247 25.5846 32.139C25.7086 32.1941 25.8326 32.2476 25.9558 32.2995C30.068 34.0463 33.3995 34.4605 35.4924 34.4946C35.5937 34.497 35.6926 34.4978 35.7875 34.4978C35.8402 34.4978 35.8912 34.497 35.9415 34.497C36.1295 34.4954 36.2884 34.4889 36.4165 34.4832H36.44C40.6777 34.2749 44.9463 32.721 48.7844 29.9885C48.8744 29.9245 48.9336 29.828 48.9506 29.7194C48.9668 29.6108 48.9385 29.5005 48.872 29.413C48.0736 28.3649 47.4008 27.2431 46.8601 26.062C46.5424 25.3674 46.2708 24.6516 46.0455 23.9172C45.5413 22.2677 45.2843 20.5241 45.2843 18.7813C45.2843 18.3793 45.2981 17.9772 45.3257 17.5768C46.8123 19.2969 48.2827 20.4082 49.7061 20.8848L49.7677 20.9059C49.8528 20.9342 49.9598 20.9699 50.0822 21.0177C50.143 21.0412 50.2078 21.068 50.2751 21.0988C50.3084 21.1142 50.3424 21.1304 50.3773 21.1466C50.6901 21.2998 51.0452 21.53 51.3459 21.8875C51.4537 22.014 51.5494 22.1517 51.6337 22.3001C51.8452 22.6697 51.9846 23.105 52.0511 23.6003C52.0641 23.6992 52.0746 23.8005 52.0827 23.9051C52.0933 24.0518 52.1824 24.1823 52.3162 24.2439C52.4507 24.3055 52.6072 24.2901 52.7263 24.2033C53.0595 23.9594 53.6707 23.5938 54.4926 23.4406C54.7674 23.3895 55.0649 23.3628 55.3851 23.3717C55.3851 23.3717 55.3883 23.3717 55.3907 23.3717C55.3907 23.3717 55.394 23.3717 55.3964 23.3717H55.3988C56.7574 23.413 57.7082 24.1012 58.0697 24.4109C58.706 25.0901 59.4453 25.6284 60.2672 26.0118C61.8836 26.764 63.4715 26.7421 64.5731 26.5703C64.4726 26.6683 64.3712 26.7656 64.2683 26.8613C62.9876 28.0545 61.5358 29.0158 59.9535 29.7186C57.9336 30.6159 55.7644 31.0723 53.5029 31.0634C52.6728 31.0609 51.8379 30.9953 51.0233 30.8664C50.836 30.8364 50.6529 30.941 50.5831 31.1169C48.9174 35.3149 46.4524 38.9893 43.2579 42.0371L43.2595 42.0387ZM8.88567 48.2203C8.62142 49.3081 8.20234 50.3464 7.63655 51.3118C7.00753 50.7923 6.4466 50.1981 5.9643 49.5399C5.47066 48.8655 5.06374 48.1295 4.75491 47.3505C4.34637 46.2295 4.10076 45.0622 4.02457 43.8804C3.92081 42.2714 4.12833 40.6753 4.64062 39.1287C5.60927 40.7458 6.72139 42.2859 7.97051 43.7264C7.97213 43.728 7.97295 43.7296 7.97457 43.7312C8.36932 44.1868 8.7811 44.635 9.19937 45.0663C9.24071 46.1281 9.13614 47.1868 8.88567 48.2203ZM53.0838 23.0547C53.0668 23.0629 53.049 23.071 53.0327 23.0791C53.0052 23.092 52.9792 23.105 52.9533 23.1188C52.942 23.1245 52.9298 23.1309 52.9184 23.1366C52.8803 23.1561 52.8431 23.1755 52.8074 23.195C52.7944 23.1293 52.7798 23.0653 52.7644 23.0004C52.7271 22.8424 52.6818 22.69 52.6299 22.5425C52.6031 22.4646 52.5731 22.3884 52.5415 22.3139C52.5091 22.236 52.4742 22.1599 52.437 22.0853C52.3981 22.0075 52.3567 21.9313 52.3129 21.8567C52.2667 21.7781 52.2181 21.7019 52.1662 21.6281C52.1119 21.5495 52.0544 21.4733 51.9944 21.3995C51.9846 21.3882 51.9765 21.376 51.9668 21.3655C51.9093 21.2966 51.8493 21.2334 51.7893 21.1717C51.7091 21.0899 51.6272 21.0137 51.5445 20.944C51.4448 20.8605 51.3443 20.7851 51.2446 20.717C51.1181 20.6303 50.9925 20.5549 50.8717 20.49C50.7866 20.4447 50.7039 20.4041 50.6253 20.3676C50.3789 20.255 50.1665 20.1845 50.0255 20.1374L49.9663 20.118C49.8941 20.0937 49.8212 20.0669 49.749 20.0394C49.5796 19.9745 49.4094 19.8991 49.2384 19.8132C49.1079 19.7484 48.9774 19.6778 48.8469 19.6016C48.8388 19.5968 48.8306 19.5919 48.8225 19.5871C48.7358 19.536 48.6491 19.4825 48.5623 19.4266C48.5283 19.4047 48.4951 19.382 48.461 19.3601C48.4472 19.3512 48.4335 19.3423 48.4197 19.3325C48.3248 19.2693 48.2308 19.2028 48.136 19.1331C48.0371 19.0602 47.9382 18.9848 47.8385 18.9062C47.7461 18.8332 47.6537 18.757 47.5613 18.6784C47.4753 18.6046 47.3886 18.5292 47.3011 18.4506C47.2192 18.3768 47.1373 18.3006 47.0555 18.2228C46.9768 18.1483 46.8982 18.0729 46.8196 17.9951C46.745 17.9213 46.6704 17.8443 46.5959 17.7673C46.5237 17.6927 46.4516 17.6173 46.3794 17.5395C46.3105 17.4649 46.2408 17.3887 46.1719 17.3117C46.1046 17.2372 46.0382 17.161 45.9709 17.084C45.8428 16.9364 45.7156 16.7849 45.5867 16.6276C45.5259 16.553 45.4643 16.4768 45.4027 16.3998C45.3808 16.3715 45.3581 16.3439 45.3362 16.3163C45.2778 16.2418 45.196 16.1931 45.1068 16.1729C45.0468 16.1591 44.9844 16.1591 44.922 16.1745C44.9179 16.1753 44.9131 16.1761 44.909 16.1769C44.7899 16.2101 44.6942 16.2953 44.6464 16.4055C44.631 16.4404 44.6205 16.4776 44.6156 16.5174C44.6107 16.5563 44.6075 16.596 44.6026 16.6357C44.5848 16.7889 44.5686 16.9413 44.554 17.0953C44.5467 17.1715 44.541 17.2485 44.5345 17.3247C44.5305 17.3758 44.5256 17.4276 44.5216 17.4787C44.5199 17.5038 44.5191 17.529 44.5175 17.5541C44.5126 17.6303 44.5086 17.7073 44.5045 17.7835C44.5005 17.8597 44.4956 17.9367 44.4924 18.0129C44.4891 18.0891 44.4875 18.1661 44.4851 18.2423C44.4826 18.3185 44.4802 18.3955 44.4786 18.4717C44.4778 18.5479 44.4778 18.6249 44.4778 18.7011C44.4778 18.7765 44.4754 18.8527 44.4762 18.928V18.9305C44.477 19.0067 44.4794 19.0837 44.481 19.1599C44.4827 19.2361 44.4835 19.3131 44.4859 19.3893C44.4883 19.4655 44.4924 19.5425 44.4964 19.6187C44.4997 19.6949 44.5021 19.7719 44.507 19.8481C44.511 19.9243 44.5167 20.0013 44.5224 20.0775C44.5329 20.2307 44.5459 20.383 44.5597 20.5362C44.567 20.6124 44.5742 20.6894 44.5824 20.7656C44.5905 20.8418 44.5994 20.9188 44.6091 20.995C44.618 21.0712 44.6277 21.1482 44.6375 21.2244C44.648 21.3006 44.6585 21.3776 44.6691 21.4538C44.6804 21.53 44.6926 21.607 44.7039 21.6832C44.7161 21.7594 44.7283 21.8364 44.7412 21.9126C44.755 21.9888 44.7688 22.0658 44.7826 22.142C44.7963 22.2182 44.8109 22.2952 44.8255 22.3714C44.8409 22.4476 44.8571 22.5246 44.8734 22.6008C44.905 22.754 44.9398 22.9072 44.9755 23.0588C44.9941 23.135 45.012 23.212 45.0306 23.2882C45.0501 23.3644 45.0703 23.4414 45.0906 23.5176C45.1109 23.5938 45.1311 23.6708 45.1522 23.747C45.1733 23.824 45.1968 23.9002 45.2187 23.9764C45.2365 24.0372 45.2535 24.0988 45.2722 24.1596C45.277 24.175 45.2819 24.1904 45.2868 24.205C45.3103 24.282 45.3346 24.3582 45.3597 24.4344C45.384 24.5106 45.41 24.5876 45.4351 24.663C45.461 24.7391 45.487 24.8162 45.5137 24.8915C45.5405 24.9685 45.5688 25.0439 45.5972 25.1201C45.6248 25.1963 45.654 25.2733 45.6831 25.3487C45.7123 25.4249 45.7415 25.5019 45.7715 25.5773C45.8023 25.6535 45.8339 25.7297 45.8655 25.8059C45.8971 25.8821 45.9296 25.9583 45.962 26.0345C45.9952 26.1107 46.0276 26.1877 46.0617 26.2631C46.0957 26.3401 46.1314 26.4154 46.167 26.4916C46.2019 26.5678 46.2384 26.644 46.2749 26.7202C46.3113 26.7964 46.3478 26.8734 46.3859 26.9488C46.424 27.0258 46.4637 27.1012 46.5026 27.1774C46.5424 27.2536 46.5821 27.3298 46.6226 27.406C46.6631 27.4822 46.7037 27.5592 46.7458 27.6346C46.7474 27.637 46.7482 27.6394 46.7499 27.6427C46.7912 27.7164 46.8334 27.7902 46.8747 27.8632C46.9185 27.9394 46.963 28.0155 47.0076 28.0917C47.053 28.1679 47.0976 28.2441 47.1438 28.3203C47.1908 28.3965 47.2387 28.4727 47.2865 28.5489C47.3343 28.6251 47.3837 28.7013 47.4332 28.7775C47.4826 28.8537 47.5329 28.9299 47.584 29.0061C47.635 29.0823 47.6869 29.1585 47.7388 29.2347C47.7923 29.3109 47.8466 29.3871 47.9009 29.4633C47.926 29.4989 47.9512 29.5346 47.9771 29.5703C47.9163 29.6116 47.8563 29.6521 47.7955 29.6935C47.6796 29.7721 47.5637 29.8491 47.4478 29.9253C47.3278 30.0039 47.2079 30.0809 47.0879 30.1571C46.9639 30.2357 46.839 30.3136 46.7142 30.3889C46.5853 30.4676 46.4556 30.5454 46.3259 30.6208C46.1914 30.6994 46.0568 30.7772 45.9223 30.8534C45.7812 30.9329 45.6394 31.0099 45.4983 31.0861C45.35 31.1655 45.2008 31.2425 45.0525 31.3187C44.896 31.3981 44.7396 31.4759 44.5832 31.5513C44.4178 31.6308 44.2516 31.7094 44.0855 31.7848C43.9088 31.865 43.7304 31.9428 43.5521 32.0182C43.3616 32.0985 43.1711 32.1771 42.9798 32.2517C42.7715 32.3327 42.5632 32.4114 42.3541 32.4859C42.123 32.5686 41.892 32.6464 41.6594 32.7202C41.3976 32.8037 41.1349 32.8823 40.8707 32.9553C40.5586 33.042 40.2449 33.1198 39.9296 33.1912C39.5267 33.2827 39.1214 33.3622 38.7153 33.4295C37.9526 33.5551 37.1841 33.637 36.4116 33.6751C36.4092 33.6751 36.4068 33.6751 36.4043 33.6751H36.3824C36.3265 33.6783 36.2665 33.6807 36.2025 33.6832C36.1214 33.6856 36.0339 33.688 35.9374 33.6889C35.8888 33.6889 35.8394 33.6889 35.7891 33.6889C35.6351 33.6889 35.4722 33.6864 35.3019 33.6816C34.6243 33.6629 33.8226 33.6021 32.9123 33.4692C32.8985 33.4667 32.8839 33.4651 32.8702 33.4627C32.8548 33.4603 32.8402 33.4586 32.8248 33.4562C32.4511 33.4003 32.0588 33.3314 31.6494 33.2487C31.3284 33.1839 30.9969 33.1101 30.6548 33.0266C30.3784 32.9585 30.0947 32.8847 29.8045 32.8029C29.5573 32.7332 29.3052 32.6586 29.0482 32.5792C28.8221 32.5086 28.5927 32.4341 28.3601 32.3546C28.1501 32.2833 27.9377 32.2087 27.7229 32.1293C27.5268 32.0571 27.3282 31.9826 27.128 31.9039C26.9431 31.8318 26.7559 31.7564 26.567 31.6786C26.3911 31.6056 26.2136 31.5311 26.0345 31.4532C25.8667 31.3803 25.6981 31.3049 25.5279 31.2271C25.3674 31.1541 25.2052 31.0788 25.0423 31.0009C24.8875 30.9272 24.7319 30.8526 24.5754 30.7748C24.4263 30.701 24.2771 30.6256 24.1263 30.5486C23.9821 30.4749 23.8378 30.3995 23.6919 30.3225C23.5525 30.2487 23.4122 30.1733 23.2712 30.0963C23.1358 30.0226 23.0004 29.9464 22.8643 29.8694C22.7329 29.7956 22.6008 29.7194 22.4679 29.6424C22.4428 29.6278 22.4176 29.6132 22.3925 29.5986C22.369 29.5848 22.3455 29.5711 22.322 29.5573C22.2425 29.5103 22.1623 29.4633 22.082 29.4154C21.9572 29.3409 21.8316 29.2655 21.7059 29.1885C21.5843 29.1139 21.4628 29.0385 21.3395 28.9615C21.3152 28.9461 21.2901 28.9299 21.265 28.9145C21.1709 28.8553 21.0761 28.7953 20.9821 28.7345C20.8662 28.66 20.7494 28.5846 20.6327 28.5076C20.5192 28.433 20.4049 28.3576 20.2906 28.2806C20.1796 28.206 20.0677 28.1298 19.9559 28.0536C19.8716 27.9961 19.7881 27.9385 19.7038 27.8802C19.6795 27.8632 19.6535 27.8453 19.6268 27.8267C19.5327 27.761 19.4241 27.6848 19.3033 27.5997C19.2045 27.53 19.0983 27.4546 18.984 27.3727C18.8843 27.3014 18.7789 27.2252 18.6678 27.1458C18.5673 27.0736 18.4628 26.9974 18.355 26.9188C18.2544 26.8459 18.1515 26.7697 18.0445 26.6919C17.9448 26.6181 17.8419 26.5427 17.7365 26.4649C17.6368 26.3911 17.5355 26.3157 17.4317 26.2379C17.3328 26.1642 17.2323 26.088 17.1293 26.011C17.0313 25.9364 16.9308 25.861 16.8302 25.784C16.733 25.7094 16.6333 25.634 16.5336 25.5562C16.4363 25.4816 16.3382 25.4054 16.2393 25.3293C16.1429 25.2547 16.0456 25.1785 15.9483 25.1015C15.8527 25.0269 15.757 24.9507 15.6598 24.8745C15.5649 24.7991 15.4701 24.7237 15.3736 24.6467C15.2796 24.5714 15.1856 24.496 15.0907 24.419C14.9975 24.3436 14.9043 24.2682 14.8103 24.1912C14.7178 24.1158 14.6254 24.0404 14.533 23.9634C14.4414 23.888 14.3498 23.8126 14.2582 23.7356C14.1683 23.6603 14.0775 23.5841 13.9867 23.5079C13.8975 23.4325 13.8076 23.3563 13.7184 23.2801C13.5425 23.1301 13.3666 22.9777 13.1915 22.8245C13.1048 22.7492 13.0189 22.673 12.9329 22.5968C12.8478 22.5214 12.7627 22.4452 12.6776 22.369C12.6533 22.3471 12.6282 22.3252 12.6038 22.3025C12.5447 22.249 12.4855 22.1955 12.4263 22.1412C12.3615 22.0828 12.2974 22.0237 12.2334 21.9645C12.2148 21.9475 12.1969 21.9305 12.1783 21.9134C12.1345 21.8729 12.0907 21.8324 12.047 21.7918C12.0089 21.757 11.9716 21.7213 11.9343 21.6857C11.854 21.6103 11.7738 21.5341 11.6935 21.4579C11.6571 21.423 11.6214 21.389 11.5849 21.3541C11.542 21.3128 11.499 21.2715 11.4569 21.2301C11.4536 21.2269 11.4504 21.2236 11.4471 21.2212C11.3726 21.1482 11.298 21.0753 11.2242 21.0031C11.1699 20.9488 11.1148 20.8945 11.0613 20.841C11.0394 20.8191 11.0183 20.7973 10.9964 20.7754C10.9186 20.6976 10.8416 20.6189 10.7662 20.5403C10.7662 20.5403 10.7622 20.5362 10.7573 20.5314C10.7557 20.5298 10.7533 20.5273 10.7508 20.5249C10.746 20.52 10.7411 20.5152 10.7338 20.5079C10.7306 20.5038 10.7265 20.5006 10.7216 20.4957C10.7144 20.4884 10.7062 20.4803 10.6973 20.4714C10.6917 20.4657 10.686 20.4601 10.6795 20.4536C10.6698 20.4438 10.6584 20.4333 10.6471 20.422C10.6398 20.4147 10.6333 20.4082 10.6252 20.4001C10.609 20.3847 10.5911 20.3668 10.5725 20.349C10.5644 20.3409 10.5563 20.3328 10.5474 20.3247C10.5458 20.3231 10.5433 20.3206 10.5417 20.319C10.5231 20.3012 10.5036 20.2825 10.4825 20.2623C10.4728 20.2525 10.4615 20.2428 10.4509 20.2331C10.4371 20.2201 10.4242 20.208 10.4088 20.1942C10.412 20.1593 10.4169 20.1253 10.4201 20.0904C10.4274 20.0134 10.4363 19.9372 10.4452 19.861C10.4533 19.7848 10.4615 19.7078 10.4712 19.6316C10.4801 19.5546 10.4914 19.4784 10.502 19.4022C10.5117 19.326 10.5214 19.249 10.5328 19.1728C10.5441 19.0958 10.5563 19.0196 10.5684 18.9434C10.5798 18.8664 10.592 18.7902 10.6041 18.714C10.6171 18.637 10.6301 18.5608 10.6438 18.4846C10.6576 18.4076 10.6714 18.3314 10.686 18.2552C10.7006 18.1782 10.7144 18.1021 10.7298 18.0259C10.7452 17.9489 10.7614 17.8727 10.7776 17.7957C10.7938 17.7186 10.8092 17.6425 10.8254 17.5654C10.8424 17.4884 10.8611 17.4122 10.8789 17.3361C10.9146 17.182 10.9519 17.0288 10.9908 16.8764C11.0102 16.7994 11.0297 16.7232 11.0499 16.6462C11.0702 16.5692 11.0921 16.493 11.1132 16.416C11.1561 16.262 11.1999 16.1088 11.2461 15.9564C11.2696 15.8794 11.2931 15.8032 11.3174 15.7262C11.3418 15.6492 11.3653 15.573 11.3904 15.496C11.4155 15.419 11.4415 15.3428 11.4674 15.2658C11.5193 15.1118 11.5736 14.9586 11.6287 14.8054C11.6563 14.7284 11.6838 14.6514 11.7122 14.5752C11.7414 14.4982 11.7714 14.422 11.8014 14.345C11.8313 14.268 11.8597 14.191 11.8905 14.1148C11.9521 13.9608 12.0162 13.8068 12.081 13.6544C12.1142 13.5774 12.1491 13.5012 12.1823 13.4242C15.6703 5.52011 23.6343 0 32.6554 0C41.6764 0 49.4961 5.39366 53.0125 13.1315C53.0473 13.2069 53.0798 13.2839 53.1138 13.3601C53.1803 13.5117 53.2459 13.6641 53.3092 13.8173C53.3408 13.8935 53.3724 13.9697 53.4032 14.0459C53.434 14.1221 53.464 14.1983 53.494 14.2745C53.5231 14.3507 53.5523 14.4268 53.5807 14.503C53.6374 14.6546 53.6934 14.8078 53.7469 14.961C53.7736 15.0372 53.802 15.1134 53.8279 15.1896C53.8531 15.2658 53.8774 15.342 53.9025 15.4182C53.9268 15.4944 53.9528 15.5706 53.9763 15.6468C54.0241 15.7984 54.0703 15.9516 54.1149 16.1048C54.1368 16.181 54.1586 16.2572 54.1805 16.3342C54.2016 16.4104 54.2219 16.4866 54.2421 16.5636C54.2835 16.7159 54.3224 16.8683 54.3597 17.0215C54.3791 17.0977 54.3978 17.1739 54.4164 17.2509C54.4342 17.3271 54.4505 17.4033 54.4675 17.4803C54.4845 17.5565 54.5015 17.6327 54.5177 17.7097C54.5339 17.7859 54.5502 17.8621 54.5648 17.9391C54.5802 18.0153 54.5947 18.0915 54.6093 18.1685C54.6239 18.2455 54.6393 18.3209 54.6531 18.3979C54.6669 18.4741 54.6782 18.5511 54.6912 18.6273C54.7042 18.7035 54.7171 18.7797 54.7293 18.8567C54.7415 18.9329 54.7528 19.0091 54.7642 19.0861C54.7755 19.1623 54.7852 19.2385 54.7958 19.3155C54.8063 19.3917 54.8177 19.4679 54.8274 19.5449C54.8371 19.6211 54.8444 19.6981 54.8533 19.7743C54.8622 19.8505 54.872 19.9267 54.8801 20.0037C54.8955 20.1561 54.9092 20.3093 54.9222 20.4625C54.9287 20.5387 54.9352 20.6149 54.9409 20.6919C54.9465 20.7681 54.9506 20.8451 54.9555 20.9213C54.9603 20.9975 54.966 21.0737 54.97 21.1507C54.9741 21.2269 54.9773 21.3039 54.9806 21.3801C54.9838 21.4563 54.9863 21.5333 54.9895 21.6095C54.9919 21.6857 54.9944 21.7619 54.996 21.8389C54.9976 21.9151 54.9984 21.9921 54.9992 22.0683C55 22.1445 55.0017 22.2215 55.0017 22.2977C55.0025 22.3147 55.0025 22.3317 55.0025 22.3487C55.0025 22.4079 55.0025 22.4679 55.0017 22.5271V22.5676C55.0017 22.5676 54.996 22.5676 54.9935 22.5676C54.9368 22.5708 54.8809 22.5749 54.8258 22.5797C54.7958 22.5822 54.7666 22.5854 54.7374 22.5887C54.7082 22.5919 54.679 22.5943 54.6499 22.5984C54.6174 22.6024 54.5858 22.6065 54.5542 22.6114C54.5291 22.6146 54.5048 22.6186 54.4796 22.6227C54.4464 22.6284 54.414 22.6332 54.3816 22.6397C54.3597 22.6438 54.337 22.6478 54.3151 22.6519C54.2819 22.6584 54.2486 22.6649 54.2162 22.6721C54.1959 22.6762 54.1765 22.6811 54.1562 22.6851C54.1222 22.6924 54.0889 22.7005 54.0557 22.7086C54.0395 22.7127 54.0233 22.7175 54.0063 22.7216C53.9714 22.7305 53.9357 22.7394 53.9017 22.7492C53.896 22.7508 53.8912 22.7524 53.8863 22.754C53.7996 22.7783 53.7161 22.8051 53.6342 22.8326C53.6309 22.8335 53.6277 22.8351 53.6245 22.8359C53.5937 22.8464 53.5637 22.8578 53.5329 22.8683C53.5167 22.874 53.4996 22.8805 53.4834 22.8861C53.4567 22.8959 53.4307 22.9064 53.4048 22.9169C53.3853 22.9242 53.3659 22.9323 53.3464 22.9396C53.3229 22.9494 53.3002 22.9591 53.2767 22.9688C53.2557 22.9777 53.2354 22.9867 53.2143 22.9956L53.2094 22.998C53.1908 23.0061 53.1722 23.015 53.1535 23.0231C53.13 23.0337 53.1081 23.0442 53.0854 23.0547H53.0838ZM51.2186 31.7151C51.9717 31.8188 52.7393 31.8723 53.5029 31.8748C53.5158 31.8748 53.5288 31.8748 53.5426 31.8748C55.903 31.8748 58.1711 31.3989 60.2843 30.4595C61.9484 29.7202 63.4755 28.7094 64.8227 27.4546C65.2751 27.0331 65.7063 26.5849 66.1035 26.122C66.2218 25.9834 66.234 25.7832 66.1327 25.6316C66.0305 25.48 65.8408 25.4152 65.6682 25.4727C65.4963 25.5295 65.3221 25.5805 65.1445 25.6259C62.6396 25.5931 59.4144 24.644 58.1331 23.3717C57.1612 22.6912 56.4388 21.8875 54.4926 22.1382C52.8402 22.351 51.8704 14.3219 48.872 11.3227C45.8728 8.32351 46.3992 8.1605 42.5108 6.51582C38.4846 4.81277 35.9088 9 31.5 9C23.6 9 16.3642 14.9002 10.4201 20.0904C10.1583 20.319 1.44528 9.94916 0.33558 17.6441C0.33558 17.6465 0.335584 17.6489 0.334773 17.6514C0.112672 19.1939 0 20.7729 0 22.3455C0 27.9734 1.45257 33.4651 4.16561 38.3076C4.08941 38.3538 4.02781 38.4235 3.99539 38.5143C3.35989 40.27 3.09807 42.0922 3.21641 43.9298C3.29747 45.1903 3.5601 46.4353 3.99539 47.631C3.99701 47.6342 3.99782 47.6375 3.99944 47.6415C4.33421 48.4861 4.77517 49.2854 5.31097 50.0165C5.92783 50.8587 6.66465 51.6045 7.50037 52.2343C7.57089 52.287 7.65682 52.3154 7.74436 52.3154C7.76868 52.3154 7.79218 52.3137 7.8165 52.3089C7.92755 52.2894 8.02563 52.2238 8.08642 52.1281C8.8192 50.9811 9.35338 49.7296 9.67356 48.4091C9.90133 47.4697 10.0172 46.5107 10.0197 45.5469C11.2518 46.5286 12.5576 47.3781 13.9154 48.08C13.9737 49.6631 14.3977 52.4791 16.4177 55.1451C18.2463 57.559 20.5176 58.7458 22.1015 59.3156C22.1461 59.3318 22.1923 59.3399 22.2393 59.3399C22.3025 59.3399 22.3649 59.3253 22.4225 59.2961C22.5222 59.2459 22.5968 59.1567 22.6284 59.0489C23.045 57.6352 23.2793 56.1713 23.3231 54.6985C23.3644 53.3172 23.2388 51.936 22.9494 50.5848C23.4876 50.6212 24.0283 50.6391 24.5722 50.6391C27.6167 50.6391 30.7359 50.0749 33.7091 48.9757C37.3949 47.6131 40.8909 45.4164 43.8196 42.6223C47.023 39.5664 49.5115 35.8969 51.2186 31.7126V31.7151Z" fill="white"/>
<path d="M13.7327 30.9288C13.7327 30.5097 13.3931 30.1701 12.974 30.1701C12.5549 30.1701 12.2153 30.5097 12.2153 30.9288C12.2153 31.3479 12.5549 31.6875 12.974 31.6875C13.3931 31.6875 13.7327 31.3479 13.7327 30.9288Z" fill="white"/>
<path d="M32.6541 0.000915767C23.633 0.000915767 15.6682 5.52102 12.181 13.4251L53.0112 13.1324C49.4948 5.39457 41.6929 0.000915767 32.6541 0.000915767Z" fill="#39A8E0"/>
<path d="M53.0112 13.1324L12.181 13.4251C12.147 13.5021 12.1132 13.5781 12.0799 13.6551L53.1138 13.3601C53.0798 13.2839 53.0473 13.2069 53.0125 13.1315L53.0112 13.1324Z" fill="#39A7DF"/>
<path d="M53.1128 13.3611L12.0799 13.6551C12.0151 13.8075 11.9504 13.9618 11.8887 14.1158L53.3082 13.8191C53.245 13.6659 53.1793 13.5127 53.1128 13.3611Z" fill="#38A7DF"/>
<path d="M53.3082 13.8191L11.8887 14.1158C11.8579 14.192 11.8297 14.2689 11.7997 14.3459L53.4024 14.0476C53.3716 13.9715 53.3398 13.8953 53.3082 13.8191Z" fill="#38A6DF"/>
<path d="M53.4024 14.0476L11.7997 14.3459C11.7698 14.4229 11.7399 14.4991 11.7107 14.5761L53.4933 14.2762C53.4633 14.2 53.4332 14.123 53.4024 14.0476Z" fill="#38A7DF"/>
<path d="M53.4922 14.2762L11.7096 14.5761C11.6813 14.6523 11.6537 14.7293 11.6261 14.8063L53.5789 14.5056C53.5506 14.4294 53.5214 14.3515 53.4922 14.2762Z" fill="#38A5DE"/>
<path d="M53.5789 14.5056L11.6261 14.8063C11.571 14.9587 11.5165 15.1118 11.4646 15.2659L53.7449 14.9627C53.6914 14.8095 53.6357 14.6579 53.5789 14.5056Z" fill="#38A5DD"/>
<path d="M53.7449 14.9627L11.4646 15.2659C11.4387 15.342 11.4128 15.4193 11.3877 15.4963L53.826 15.1923C53.8001 15.1153 53.7717 15.0399 53.745 14.9637L53.7449 14.9627Z" fill="#38A4DD"/>
<path d="M53.826 15.1923L11.3877 15.4963C11.3626 15.5725 11.3395 15.6492 11.3152 15.7262L53.9011 15.4206C53.8759 15.3444 53.8512 15.2677 53.826 15.1923Z" fill="#37A4DD"/>
<path d="M53.9011 15.4206L11.3152 15.7262C11.2909 15.8024 11.2673 15.8796 11.2438 15.9566L53.9747 15.6502C53.9512 15.5732 53.9253 15.4978 53.901 15.4216L53.9011 15.4206Z" fill="#38A3DC"/>
<path d="M53.9747 15.6502L11.2438 15.9566C11.1976 16.109 11.1538 16.2614 11.1108 16.4154L44.9221 16.173C44.9845 16.1576 45.0469 16.1584 45.1069 16.1714L54.1133 16.1065C54.0687 15.9533 54.0225 15.8009 53.9747 15.6486L53.9747 15.6502Z" fill="#38A2DB"/>
<path d="M54.1133 16.1065L45.1069 16.1714C45.196 16.1916 45.2778 16.2418 45.3362 16.3163C45.3581 16.3439 45.3808 16.3715 45.4027 16.3998L54.1796 16.3359C54.1577 16.2597 54.1352 16.1827 54.1133 16.1065Z" fill="#38A1DA"/>
<path d="M11.0482 16.6455L44.6464 16.4055C44.6942 16.2953 44.7899 16.2101 44.909 16.1769C44.9131 16.1753 44.918 16.1738 44.9221 16.173L11.1108 16.4154C11.0897 16.4916 11.0684 16.5685 11.0482 16.6455Z" fill="#38A1DA"/>
<path d="M54.1796 16.3359L45.4027 16.3998C45.4643 16.4768 45.5259 16.553 45.5867 16.6276L54.2409 16.5661C54.2206 16.4899 54.2006 16.4121 54.1796 16.3359Z" fill="#39A0DA"/>
<path d="M10.9888 16.8757L44.6026 16.6357C44.6075 16.596 44.6107 16.5563 44.6156 16.5174C44.6205 16.4776 44.631 16.4404 44.6464 16.4055L11.0482 16.6455C11.0279 16.7217 11.0083 16.7987 10.9888 16.8757Z" fill="#39A0DA"/>
<path d="M10.8768 17.3353L44.5543 17.0938C44.5689 16.9406 44.5851 16.7874 44.6029 16.6342L10.9888 16.8757C10.9499 17.0281 10.9124 17.1813 10.8768 17.3353Z" fill="#389FD9"/>
<path d="M54.2409 16.5661L45.5867 16.6276C45.7156 16.7849 45.8428 16.9364 45.9709 17.084L54.3579 17.0232C54.3206 16.87 54.2822 16.7176 54.2409 16.5661Z" fill="#389FD9"/>
<path d="M54.3583 17.0242L45.9709 17.084C46.0382 17.161 46.1046 17.2372 46.1719 17.3117L54.415 17.2528C54.3963 17.1766 54.3777 17.1012 54.3583 17.0242Z" fill="#369DD8"/>
<path d="M10.8237 17.5655L44.5345 17.3247C44.541 17.2485 44.5467 17.1715 44.554 17.0953L10.8768 17.3353C10.8589 17.4123 10.8408 17.4893 10.8237 17.5655Z" fill="#369DD8"/>
<path d="M10.7757 17.7952L44.5175 17.5541C44.5191 17.529 44.5199 17.5038 44.5216 17.4787C44.5256 17.4276 44.5305 17.3758 44.5345 17.3247L10.8237 17.5655C10.8067 17.6417 10.7919 17.719 10.7765 17.796L10.7757 17.7952Z" fill="#359CD7"/>
<path d="M54.415 17.2528L46.1719 17.3117C46.2408 17.3887 46.3105 17.4649 46.3794 17.5395L54.4661 17.4819C54.4491 17.4057 54.4328 17.329 54.415 17.2528Z" fill="#359CD7"/>
<path d="M10.7281 18.0251L44.5045 17.7835C44.5086 17.7073 44.5126 17.6303 44.5175 17.5541L10.7757 17.7952C10.7595 17.8714 10.7435 17.9481 10.7281 18.0251Z" fill="#379BD6"/>
<path d="M54.4661 17.4819L46.3794 17.5395C46.4516 17.6173 46.5237 17.6927 46.5959 17.7673L54.5165 17.7107C54.5003 17.6345 54.4831 17.5581 54.4661 17.4819Z" fill="#379BD6"/>
<path d="M54.5165 17.7107L46.5959 17.7673C46.6704 17.8443 46.745 17.9213 46.8196 17.9951L54.5636 17.9393C54.549 17.8631 54.5328 17.7869 54.5165 17.7107Z" fill="#359BD7"/>
<path d="M10.6845 18.2547L44.4924 18.0129C44.4956 17.9367 44.5005 17.8597 44.5045 17.7835L10.7281 18.0251C10.7127 18.1013 10.6991 18.1785 10.6845 18.2547Z" fill="#359BD7"/>
<path d="M10.6427 18.4849L44.4851 18.2423C44.4875 18.1661 44.4891 18.0891 44.4924 18.0129L10.6845 18.2547C10.6699 18.3309 10.6565 18.4087 10.6427 18.4849Z" fill="#369AD6"/>
<path d="M54.5629 17.9401L46.8196 17.9951C46.8982 18.0729 46.9768 18.1483 47.0555 18.2228L54.6075 18.1695C54.5929 18.0933 54.5783 18.0163 54.5629 17.9401Z" fill="#369AD6"/>
<path d="M54.6075 18.1695L47.0555 18.2228C47.1373 18.3006 47.2192 18.3768 47.3011 18.4506L54.6516 18.3989C54.6379 18.3218 54.6221 18.2465 54.6075 18.1695Z" fill="#3799D5"/>
<path d="M10.6041 18.714L44.4786 18.4717C44.4802 18.3955 44.4826 18.3185 44.4851 18.2423L10.6438 18.4846C10.6301 18.5608 10.6171 18.637 10.6041 18.714Z" fill="#3799D5"/>
<path d="M10.5669 18.9445L44.4778 18.7011C44.4778 18.6249 44.4778 18.5479 44.4786 18.4717L10.6041 18.714C10.592 18.7902 10.5798 18.8664 10.5684 18.9434L10.5669 18.9445Z" fill="#3898D4"/>
<path d="M54.6516 18.3989L47.3017 18.4515C47.3893 18.5293 47.476 18.6055 47.5619 18.6793L54.6903 18.6282C54.6773 18.552 54.6654 18.4751 54.6516 18.3989Z" fill="#3898D4"/>
<path d="M54.6894 18.6274L47.5613 18.6784C47.6537 18.757 47.7461 18.8332 47.8385 18.9062L54.7275 18.8568C54.7153 18.7806 54.7023 18.7036 54.6894 18.6274Z" fill="#3798D4"/>
<path d="M10.5314 19.1738L44.4762 18.9305V18.928C44.4754 18.8527 44.4778 18.7765 44.4778 18.7011L10.5669 18.9445C10.5547 19.0207 10.5428 19.0976 10.5314 19.1738Z" fill="#3798D4"/>
<path d="M54.7275 18.8568L47.8385 18.9062C47.9382 18.9848 48.0371 19.0602 48.136 19.1331L54.7631 19.0853C54.7518 19.0091 54.7404 18.9321 54.7283 18.8559L54.7275 18.8568Z" fill="#3797D4"/>
<path d="M10.501 19.4032L44.481 19.1599C44.4794 19.0837 44.477 19.0067 44.4762 18.9305L10.5314 19.1738C10.5209 19.25 10.5115 19.327 10.501 19.4032Z" fill="#3797D4"/>
<path d="M54.7642 19.0861L48.1368 19.134C48.2317 19.2037 48.3257 19.2701 48.4205 19.3334C48.4343 19.3431 48.4481 19.352 48.4619 19.3609L54.7958 19.3155C54.7852 19.2385 54.7755 19.1623 54.7642 19.0861Z" fill="#3796D3"/>
<path d="M10.471 19.6334L44.4859 19.3893C44.4835 19.3131 44.4827 19.2361 44.481 19.1599L10.501 19.4032C10.4912 19.4802 10.4807 19.5572 10.471 19.6334Z" fill="#3796D3"/>
<path d="M54.7941 19.3158L48.4619 19.3609C48.4959 19.3836 48.5282 19.4057 48.5623 19.4276C48.649 19.4836 48.7358 19.5371 48.8225 19.5881L54.8257 19.5452C54.816 19.4682 54.8046 19.392 54.7941 19.3158Z" fill="#3795D2"/>
<path d="M10.446 19.8628L44.4964 19.6187C44.4924 19.5425 44.4883 19.4655 44.4859 19.3893L10.471 19.6334C10.4621 19.7096 10.4549 19.7866 10.446 19.8628Z" fill="#3795D2"/>
<path d="M10.4208 20.0921L44.507 19.8481C44.5021 19.7719 44.4997 19.6949 44.4964 19.6187L10.446 19.8628C10.4371 19.939 10.4289 20.016 10.4208 20.0921Z" fill="#3794D2"/>
<path d="M54.8257 19.5452L48.8225 19.5881C48.8306 19.593 48.8388 19.5968 48.8469 19.6016C48.9774 19.6778 49.1079 19.7484 49.2384 19.8132L54.8516 19.7734C54.8427 19.6972 54.8354 19.6202 54.8257 19.544L54.8257 19.5452Z" fill="#3794D2"/>
<path d="M10.4098 20.1959C10.4244 20.2096 10.4373 20.2218 10.4519 20.2348C10.4625 20.2445 10.473 20.255 10.4835 20.264C10.5046 20.2842 10.5241 20.3021 10.5427 20.3207L44.5234 20.0767C44.5177 20.0005 44.512 19.9235 44.508 19.8473L10.4208 20.0921C10.4175 20.127 10.413 20.161 10.4098 20.1959Z" fill="#3793D1"/>
<path d="M54.8516 19.7734L49.2384 19.8132C49.4094 19.8991 49.5796 19.9745 49.749 20.0394L54.879 20.0036C54.8709 19.9266 54.8605 19.8496 54.8516 19.7734Z" fill="#3793D1"/>
<path d="M10.5473 20.3264C10.5562 20.3345 10.5643 20.3426 10.5724 20.3507C10.5911 20.3685 10.6089 20.3863 10.6251 20.4017C10.6332 20.4099 10.6397 20.4163 10.647 20.4236C10.6583 20.435 10.6697 20.4455 10.6794 20.4552C10.6859 20.4617 10.6916 20.4674 10.6973 20.4731C10.7062 20.482 10.7143 20.4901 10.7216 20.4974C10.7256 20.5014 10.7297 20.5055 10.7337 20.5096C10.741 20.516 10.7459 20.5217 10.7508 20.5266C10.7532 20.529 10.7556 20.5314 10.7572 20.5331C10.7621 20.5379 10.7662 20.542 10.7662 20.542C10.8424 20.6198 10.9194 20.6984 10.9964 20.777L44.5597 20.5362C44.5459 20.383 44.5329 20.2307 44.5224 20.0775L10.5416 20.3215C10.5416 20.3215 10.5457 20.3247 10.5473 20.3264Z" fill="#3692D0"/>
<path d="M54.8782 20.0031L49.749 20.0394C49.8212 20.0669 49.8941 20.0937 49.9663 20.118L50.0255 20.1374C50.1665 20.1845 50.3789 20.255 50.6253 20.3676C50.7039 20.4041 50.7866 20.4447 50.8717 20.49L54.9203 20.461C54.9073 20.3078 54.8936 20.1554 54.8782 20.0031Z" fill="#3692D0"/>
<path d="M11.0613 20.841C11.1156 20.8953 11.1699 20.9496 11.2242 21.0031L44.5824 20.7656C44.5742 20.6894 44.567 20.6124 44.5597 20.5362L10.9964 20.7754C11.0183 20.7973 11.0394 20.8191 11.0613 20.841Z" fill="#3691D0"/>
<path d="M54.9203 20.461L50.8717 20.49C50.9925 20.5549 51.1181 20.6303 51.2446 20.717L54.9393 20.6912C54.9336 20.6142 54.9268 20.5372 54.9203 20.461Z" fill="#3691D0"/>
<path d="M11.4469 21.2228C11.4469 21.2228 11.4534 21.2293 11.4566 21.2317L44.6091 20.995C44.5994 20.9188 44.5905 20.8418 44.5824 20.7656L11.2242 21.0031C11.298 21.0761 11.3723 21.1506 11.4469 21.2228Z" fill="#3690CF"/>
<path d="M54.9393 20.6912L51.2453 20.7179C51.345 20.786 51.4455 20.8614 51.5452 20.9449L54.9546 20.9206C54.9497 20.8444 54.9449 20.7674 54.9393 20.6912Z" fill="#3690CF"/>
<path d="M11.585 21.3557C11.6207 21.3906 11.6571 21.4246 11.6936 21.4595L44.6375 21.2244C44.6277 21.1482 44.618 21.0712 44.6091 20.995L11.4566 21.2317C11.4988 21.273 11.542 21.3144 11.585 21.3557Z" fill="#368FCE"/>
<path d="M54.9535 20.9206L51.5445 20.944C51.6272 21.0137 51.7091 21.0899 51.7893 21.1717L54.9681 21.15C54.9641 21.073 54.9584 20.9968 54.9535 20.9206Z" fill="#368FCE"/>
<path d="M54.9681 21.15L51.7893 21.1717C51.8493 21.2334 51.9093 21.2966 51.9668 21.3655C51.9765 21.376 51.9846 21.3882 51.9944 21.3995L54.9789 21.3793C54.9756 21.3031 54.9722 21.2262 54.9681 21.15Z" fill="#368FCE"/>
<path d="M11.9331 21.688L44.6691 21.4538C44.6585 21.3776 44.648 21.3006 44.6375 21.2244L11.6936 21.4595C11.773 21.5356 11.852 21.6126 11.9331 21.688Z" fill="#368FCE"/>
<path d="M12.0476 21.7936C12.0913 21.8342 12.1351 21.8747 12.1789 21.9152L44.7054 21.6818C44.694 21.6056 44.6818 21.5294 44.6705 21.4524L11.9349 21.6866C11.9722 21.7223 12.0103 21.758 12.0476 21.7936Z" fill="#358ECD"/>
<path d="M54.9789 21.3793L51.9944 21.3995C52.0544 21.4733 52.1119 21.5495 52.1662 21.6281L54.9882 21.6087C54.985 21.5325 54.9821 21.4555 54.9789 21.3793Z" fill="#358ECD"/>
<path d="M54.9882 21.6087L52.1662 21.6281C52.2181 21.7019 52.2667 21.7781 52.3129 21.8567L54.9942 21.8381C54.9926 21.7611 54.9906 21.6849 54.9882 21.6087Z" fill="#358DCC"/>
<path d="M12.2339 21.9663C12.298 22.0254 12.362 22.0838 12.4269 22.143L44.7426 21.9111C44.7296 21.835 44.7175 21.7588 44.7054 21.6818L12.1789 21.9152C12.1975 21.9322 12.2153 21.9492 12.2339 21.9663Z" fill="#358DCC"/>
<path d="M54.9942 21.8381L52.3129 21.8567C52.3567 21.9313 52.3981 22.0075 52.437 22.0853L54.998 22.0674C54.998 21.9913 54.9959 21.9143 54.9942 21.8381Z" fill="#358CCB"/>
<path d="M12.6033 22.3043C12.6276 22.3261 12.6527 22.3488 12.677 22.3707L44.782 22.1405C44.7682 22.0643 44.7545 21.9881 44.7407 21.9111L12.425 22.1429C12.4841 22.1964 12.5441 22.2508 12.6033 22.3043Z" fill="#358CCB"/>
<path d="M12.933 22.5985L44.8256 22.3699C44.811 22.2937 44.7958 22.2175 44.782 22.1405L12.677 22.3707C12.7622 22.4469 12.8471 22.5231 12.933 22.5985Z" fill="#358BCB"/>
<path d="M54.998 22.0674L52.4364 22.0863C52.4737 22.1609 52.5085 22.2371 52.541 22.3149L54.9995 22.2971C54.9995 22.2201 54.9988 22.1436 54.998 22.0674Z" fill="#358BCB"/>
<path d="M13.1915 22.8265L44.8741 22.5995C44.8579 22.5233 44.841 22.4469 44.8256 22.3699L12.933 22.5985C13.0189 22.6747 13.1047 22.7511 13.1915 22.8265Z" fill="#358ACA"/>
<path d="M55.0012 22.3481C55.0012 22.3311 55.0003 22.3141 54.9995 22.2971L52.541 22.3149C52.5726 22.3895 52.6035 22.4657 52.6302 22.5435L55.0004 22.5265C55.0012 22.4673 55.0012 22.4073 55.0012 22.3481Z" fill="#358ACA"/>
<path d="M13.7184 23.2801L44.9756 23.0564C44.9399 22.904 44.9051 22.7516 44.8735 22.5984L13.1908 22.8254C13.3659 22.9786 13.5418 23.1302 13.7177 23.2809L13.7184 23.2801Z" fill="#3589C9"/>
<path d="M53.2126 22.9958C53.2337 22.9869 53.2539 22.978 53.275 22.969C53.2985 22.9593 53.3212 22.9496 53.3447 22.9399C53.3642 22.9318 53.3836 22.9245 53.4031 22.9172C53.429 22.9066 53.455 22.8969 53.4817 22.8864C53.4979 22.8799 53.515 22.8742 53.5312 22.8685C53.562 22.8572 53.592 22.8466 53.6228 22.8361C53.626 22.8353 53.6292 22.8337 53.6325 22.8329C53.7144 22.8053 53.7978 22.7785 53.8846 22.7542C53.8894 22.7526 53.8943 22.751 53.9 22.7494C53.934 22.7396 53.9697 22.7307 54.0045 22.7218C54.0216 22.7178 54.0378 22.7129 54.054 22.7088C54.0872 22.7007 54.1205 22.6934 54.1545 22.6853C54.1748 22.6805 54.1942 22.6764 54.2145 22.6724C54.2469 22.6651 54.2801 22.6586 54.3134 22.6521C54.3353 22.648 54.358 22.644 54.3798 22.6399C54.4123 22.6343 54.4447 22.6286 54.4779 22.6229C54.5031 22.6189 54.5274 22.6156 54.5525 22.6116C54.5841 22.6067 54.6157 22.6027 54.6481 22.5986C54.6773 22.5954 54.7065 22.5921 54.7357 22.5889C54.7649 22.5856 54.7941 22.5824 54.824 22.58C54.8792 22.5751 54.9351 22.571 54.9918 22.5678C54.9943 22.5678 54.9975 22.5678 55 22.5678L55.0004 22.5265L52.6302 22.5435C52.6821 22.691 52.7271 22.8442 52.7643 23.0023L53.2077 22.999L53.2126 22.9958Z" fill="#3589C9"/>
<path d="M13.9857 23.5086L45.0304 23.2857C45.0118 23.2095 44.9942 23.1334 44.9756 23.0564L13.7184 23.2801C13.8076 23.3563 13.8975 23.4325 13.9867 23.5079L13.9857 23.5086Z" fill="#3588C9"/>
<path d="M52.7649 23.0014C52.7803 23.0654 52.7949 23.1294 52.8079 23.1959C52.8436 23.1764 52.8809 23.157 52.919 23.1375C52.9303 23.1319 52.9425 23.1254 52.9538 23.1197C52.9798 23.1067 53.0057 23.093 53.0332 23.08C53.0495 23.0719 53.0673 23.0638 53.0843 23.0557C53.107 23.0451 53.1289 23.0346 53.1524 23.0241C53.171 23.0159 53.1891 23.0071 53.2077 22.999L52.7649 23.0014Z" fill="#3588C9"/>
<path d="M14.2582 23.7356L45.091 23.5151C45.0708 23.4389 45.0499 23.3627 45.0304 23.2857L13.9867 23.5079C14.0775 23.5841 14.1683 23.6603 14.2582 23.7356Z" fill="#3687C8"/>
<path d="M14.5317 23.9644L45.1525 23.7448C45.1314 23.6686 45.1113 23.5921 45.091 23.5151L14.2577 23.7367C14.3493 23.8128 14.4401 23.889 14.5317 23.9644Z" fill="#3686C7"/>
<path d="M14.8086 24.1914L45.2186 23.9733C45.1967 23.8971 45.1736 23.8218 45.1525 23.7448L14.5317 23.9644C14.6241 24.0406 14.7162 24.116 14.8086 24.1914Z" fill="#3685C6"/>
<path d="M15.0907 24.419L45.2874 24.2027C45.2826 24.1873 45.2777 24.1727 45.2729 24.1573C45.2542 24.0965 45.2372 24.0349 45.2194 23.9741L14.8093 24.1922C14.9034 24.2683 14.9966 24.3445 15.0898 24.4199L15.0907 24.419Z" fill="#3684C6"/>
<path d="M15.3724 24.646L45.3601 24.4312C45.335 24.355 45.311 24.2797 45.2874 24.2027L15.0895 24.4183C15.1844 24.4953 15.2784 24.5706 15.3724 24.646Z" fill="#3583C5"/>
<path d="M15.6581 24.8738L45.435 24.6606C45.4099 24.5844 45.3845 24.5074 45.3601 24.4312L15.3724 24.646C15.4681 24.7222 15.5632 24.7984 15.6581 24.8738Z" fill="#3482C4"/>
<path d="M15.9473 25.1007L45.5143 24.8892C45.4875 24.813 45.461 24.7368 45.435 24.6606L15.6581 24.8738C15.7553 24.9508 15.8516 25.0261 15.9473 25.1007Z" fill="#3481C3"/>
<path d="M16.2376 25.3285L45.5971 25.1177C45.5687 25.0415 45.541 24.9654 45.5143 24.8892L15.9473 25.1007C16.0454 25.1777 16.1419 25.2531 16.2376 25.3285Z" fill="#3480C3"/>
<path d="M16.532 25.5554L45.6832 25.3463C45.654 25.2701 45.6247 25.1939 45.5971 25.1177L16.2376 25.3285C16.3365 25.4055 16.4347 25.4808 16.532 25.5554Z" fill="#347FC2"/>
<path d="M16.8289 25.7831L45.7718 25.5756C45.7418 25.4994 45.7124 25.4225 45.6832 25.3463L16.532 25.5554C16.6317 25.6324 16.7317 25.7086 16.8289 25.7831Z" fill="#347EC1"/>
<path d="M17.128 26.0103L45.8658 25.8045C45.8342 25.7283 45.8026 25.6518 45.7718 25.5756L16.8289 25.7831C16.9302 25.8601 17.0299 25.9366 17.128 26.0103Z" fill="#347DC1"/>
<path d="M17.4301 26.2381L45.962 26.0345C45.9296 25.9583 45.8974 25.8806 45.8658 25.8045L17.128 26.0103C17.2302 26.0882 17.3312 26.1643 17.4301 26.2381Z" fill="#347CC0"/>
<path d="M17.7347 26.465L46.0616 26.2616C46.0275 26.1854 45.9951 26.1092 45.9619 26.033L17.4301 26.2381C17.5339 26.3159 17.635 26.3912 17.7347 26.465Z" fill="#347BBF"/>
<path d="M18.0434 26.6928L46.167 26.4916C46.1314 26.4154 46.0957 26.3401 46.0617 26.2631L17.7354 26.4658C17.8408 26.5436 17.9429 26.6198 18.0434 26.6928Z" fill="#347ABE"/>
<path d="M18.3527 26.9197L46.2749 26.7202C46.2384 26.644 46.2019 26.5678 46.167 26.4916L18.0434 26.6928C18.1504 26.7714 18.2522 26.8467 18.3527 26.9197Z" fill="#3479BE"/>
<path d="M18.6666 27.1466L46.3859 26.9488C46.3478 26.8734 46.3113 26.7964 46.2749 26.7202L18.3527 26.9197C18.4613 26.9983 18.5669 27.0745 18.6666 27.1466Z" fill="#3577BC"/>
<path d="M18.9822 27.3746L46.5026 27.1774C46.4637 27.1012 46.424 27.0258 46.3859 26.9488L18.6661 27.1477C18.7772 27.2279 18.8825 27.3033 18.9822 27.3746Z" fill="#3576BB"/>
<path d="M19.3027 27.6013L46.6226 27.406C46.5821 27.3298 46.5424 27.2536 46.5026 27.1774L18.9826 27.3735C19.0968 27.4554 19.2038 27.5308 19.3019 27.6005L19.3027 27.6013Z" fill="#3675BA"/>
<path d="M19.6249 27.8282L46.7458 27.6346C46.7037 27.5592 46.6631 27.4822 46.6226 27.406L19.3027 27.6013C19.4235 27.6864 19.5301 27.7626 19.6249 27.8282Z" fill="#3574BA"/>
<path d="M19.7024 27.8819C19.7867 27.9403 19.871 27.9979 19.9544 28.0554L46.8747 27.8632C46.8334 27.7902 46.7912 27.7164 46.7499 27.6427C46.7482 27.6394 46.7474 27.637 46.7458 27.6346L19.6249 27.8282C19.6517 27.8469 19.678 27.8649 19.7024 27.8819Z" fill="#3573B9"/>
<path d="M20.2898 28.2823L47.0084 28.091C46.9638 28.0148 46.9192 27.9387 46.8754 27.8625L19.9544 28.0554C20.0663 28.1324 20.1787 28.2078 20.2898 28.2823Z" fill="#3472B8"/>
<path d="M20.6322 28.5093L47.1449 28.3196C47.0987 28.2434 47.0538 28.1672 47.0084 28.091L20.2898 28.2823C20.4041 28.3593 20.5187 28.4347 20.6322 28.5093Z" fill="#3471B7"/>
<path d="M20.9809 28.7362L47.2861 28.5473C47.2383 28.4711 47.1905 28.3957 47.1435 28.3187L20.6307 28.5084C20.7475 28.5854 20.8642 28.6608 20.9801 28.7354L20.9809 28.7362Z" fill="#3470B7"/>
<path d="M21.2642 28.9164C21.2893 28.9318 21.3136 28.948 21.3387 28.9634L47.4332 28.7761C47.3837 28.6999 47.334 28.6243 47.2861 28.5473L20.9809 28.7362C21.0758 28.797 21.1701 28.8572 21.2642 28.9164Z" fill="#356FB6"/>
<path d="M21.705 29.1903L47.5847 29.0047C47.5336 28.9285 47.4826 28.8523 47.4332 28.7761L21.3387 28.9634C21.4611 29.0404 21.5834 29.1157 21.705 29.1903Z" fill="#356EB5"/>
<path d="M22.0804 29.417L47.7387 29.233C47.6869 29.1576 47.6358 29.0809 47.5847 29.0047L21.705 29.1903C21.8307 29.2673 21.9555 29.3424 22.0804 29.417Z" fill="#356DB5"/>
<path d="M22.32 29.5591C22.3435 29.5728 22.367 29.5866 22.3905 29.6004C22.4156 29.615 22.4408 29.6296 22.4659 29.6442L47.9005 29.4618C47.8462 29.3856 47.7922 29.31 47.7387 29.233L22.0804 29.417C22.1606 29.4648 22.2405 29.5129 22.32 29.5591Z" fill="#366CB4"/>
<path d="M22.8632 29.8703L47.7961 29.6911C47.8569 29.6498 47.9169 29.6093 47.9777 29.5679C47.9517 29.5323 47.9266 29.4966 47.9015 29.4609L22.4668 29.6433C22.5998 29.7203 22.7319 29.7957 22.8632 29.8703Z" fill="#356BB3"/>
<path d="M23.2704 30.0972L47.4486 29.9238C47.5645 29.8476 47.6802 29.7698 47.7961 29.6911L22.8632 29.8703C22.9994 29.9473 23.1358 30.0227 23.2704 30.0972Z" fill="#3569B1"/>
<path d="M23.6907 30.3234L47.0884 30.1556C47.2083 30.0794 47.3287 30.0024 47.4486 29.9238L23.2704 30.0972C23.4114 30.1742 23.5513 30.2496 23.6907 30.3234Z" fill="#3568B1"/>
<path d="M24.1254 30.5496L46.7148 30.3875C46.8397 30.3113 46.9644 30.2343 47.0884 30.1556L23.6907 30.3234C23.8366 30.4004 23.9811 30.4758 24.1254 30.5496Z" fill="#3467B0"/>
<path d="M24.574 30.7758L46.3259 30.6208C46.4556 30.5446 46.5859 30.4661 46.7148 30.3875L24.1254 30.5496C24.2761 30.6266 24.4256 30.7028 24.574 30.7758Z" fill="#3566AF"/>
<path d="M25.042 31.0019L45.9228 30.852C46.0573 30.7766 46.1919 30.6988 46.3264 30.6193L24.574 30.7758C24.7304 30.8536 24.8864 30.9274 25.0412 31.0011L25.042 31.0019Z" fill="#3565AE"/>
<path d="M25.5268 31.2281L45.4981 31.0846C45.6392 31.0084 45.7817 30.9314 45.9228 30.852L25.042 31.0019C25.2049 31.0789 25.3663 31.1552 25.5268 31.2281Z" fill="#3564AE"/>
<path d="M26.0336 31.4543L45.0525 31.3187C45.2008 31.2425 45.35 31.1655 45.4983 31.0861L25.5268 31.2281C25.6971 31.3059 25.8666 31.3814 26.0336 31.4543Z" fill="#3563AD"/>
<path d="M26.567 31.6786L44.5841 31.5505C44.7406 31.4751 44.897 31.3973 45.0534 31.3179L26.0345 31.4532C26.2136 31.5311 26.3911 31.6056 26.567 31.6786Z" fill="#3562AC"/>
<path d="M27.128 31.9039L44.0857 31.7832C44.2518 31.7078 44.418 31.63 44.5834 31.5497L26.567 31.6786C26.7559 31.7564 26.9431 31.8318 27.128 31.9039Z" fill="#3561AB"/>
<path d="M27.7229 32.1293L43.552 32.0167C43.7304 31.9413 43.909 31.8634 44.0857 31.7832L27.128 31.9039C27.3282 31.9826 27.5268 32.0571 27.7229 32.1293Z" fill="#345FAA"/>
<path d="M28.3606 32.3556L42.9798 32.2517C43.1711 32.1771 43.3616 32.0985 43.5521 32.0182L27.7234 32.131C27.9391 32.2097 28.1506 32.2834 28.3606 32.3556Z" fill="#355EA9"/>
<path d="M29.0489 32.5801L42.3547 32.4845C42.5639 32.4099 42.7722 32.3321 42.9805 32.2502L28.3606 32.3556C28.5932 32.435 28.8228 32.5096 29.0489 32.5801Z" fill="#355DA8"/>
<path d="M29.8049 32.8039L41.6597 32.7188C41.8924 32.645 42.1237 32.5663 42.3547 32.4845L29.0489 32.5801C29.3059 32.6604 29.5576 32.735 29.8049 32.8039Z" fill="#345DA8"/>
<path d="M30.6548 33.0266L40.8707 32.9553C41.1349 32.8823 41.3979 32.8023 41.6597 32.7188L29.8049 32.8039C30.0951 32.885 30.3785 32.9601 30.6549 33.0282L30.6548 33.0266Z" fill="#335CA7"/>
<path d="M31.6494 33.2487L39.9296 33.1912C40.2449 33.1198 40.5586 33.042 40.8707 32.9553L30.6549 33.0282C30.9969 33.1117 31.3284 33.1839 31.6494 33.2487Z" fill="#335BA6"/>
<path d="M32.8248 33.4562C32.8402 33.4586 32.8548 33.4603 32.8702 33.4627C32.8839 33.4651 32.8985 33.4667 32.9123 33.4692L38.7153 33.4295C39.1214 33.3622 39.5267 33.2827 39.9296 33.1912L31.6494 33.2487C32.0588 33.3314 32.4511 33.4003 32.8248 33.4562Z" fill="#3359A5"/>
<path d="M35.3027 33.6827L36.4116 33.6751C37.1841 33.637 37.9526 33.5551 38.7153 33.4295L32.913 33.4703C33.8233 33.6032 34.625 33.664 35.3027 33.6827Z" fill="#3458A4"/>
<path d="M35.7891 33.6889C35.8394 33.6889 35.8888 33.6889 35.9374 33.6889C36.0339 33.688 36.1214 33.6856 36.2025 33.6832C36.2665 33.6807 36.3264 33.6791 36.3823 33.6767H36.4042C36.4042 33.6767 36.4092 33.6751 36.4116 33.6751L35.3027 33.6827C35.4729 33.6875 35.635 33.6905 35.789 33.6905L35.7891 33.6889Z" fill="#3457A4"/>
</svg>
