<svg width="64" height="67" viewBox="0 0 64 67" fill="none" xmlns="http://www.w3.org/2000/svg">
<path d="M41.6147 50.3566C36.0034 55.7097 28.7134 58.4085 21.6136 57.7613C21.6081 57.7613 21.6027 57.7613 21.5972 57.7613C21.5793 57.7598 21.5614 57.7598 21.5426 57.7613C21.5348 57.7613 21.5271 57.7629 21.5193 57.7644C21.5076 57.766 21.4959 57.7668 21.4834 57.7691C21.4771 57.7707 21.4717 57.7738 21.4654 57.7761C21.4592 57.7777 21.453 57.78 21.4467 57.7824C21.428 57.7894 21.4093 57.7964 21.3922 57.8058C21.389 57.8073 21.3867 57.8097 21.3836 57.8112C21.3641 57.8221 21.3461 57.8338 21.329 57.8479C21.3274 57.8494 21.3259 57.851 21.3243 57.8525C21.3072 57.8674 21.2916 57.883 21.2767 57.9001C21.2744 57.9032 21.2728 57.9056 21.2705 57.9087C21.2573 57.9251 21.2456 57.943 21.2346 57.9617C21.2323 57.9656 21.2307 57.9703 21.2284 57.9742C21.219 57.9929 21.2112 58.0116 21.205 58.0311C21.2034 58.0358 21.2027 58.0412 21.2011 58.0459C21.1956 58.0662 21.1918 58.0865 21.1894 58.1068C21.1894 58.1091 21.1886 58.1106 21.1886 58.113C21.1886 58.1169 21.1886 58.1208 21.1886 58.1247C21.1879 58.1442 21.1871 58.1637 21.1886 58.1832C21.1894 58.1917 21.191 58.2003 21.1925 58.2089C21.1941 58.2198 21.1941 58.2307 21.1972 58.2416C21.5434 59.6382 21.6978 61.0753 21.6549 62.5124C21.6191 63.7219 21.4428 64.925 21.1317 66.0947C19.7414 65.5333 17.912 64.472 16.4133 62.4945C14.513 59.9868 14.1832 57.3293 14.1582 55.9507C14.2386 55.3206 14.2947 54.6883 14.329 54.0551C14.6082 53.9631 14.7306 53.5373 14.4015 53.3416C14.3867 53.333 14.3727 53.3244 14.3579 53.3159C14.3898 52.0737 14.3337 50.8299 14.1887 49.5987C14.0179 48.1475 13.7216 46.6987 13.3106 45.2998C13.0346 44.2908 12.6018 43.3652 12.0248 42.5504C10.7974 40.8154 9.22231 39.9943 8.70533 39.7245C8.67491 39.7089 8.64918 39.6949 8.62735 39.684C6.48221 38.5385 4.44624 33.9215 2.57323 25.9585C2.64263 25.9655 2.71359 25.978 2.78611 25.9967C2.79235 25.9982 2.79937 25.9998 2.8056 26.0014C2.97637 26.0364 3.14792 26.077 3.31323 26.1214C3.31869 26.123 3.86375 26.2719 4.38463 26.4942C6.60307 27.4369 8.44333 28.9606 9.3424 29.7848C9.63091 30.0499 9.79388 30.2168 9.79544 30.2176C9.89058 30.315 9.98648 30.4133 10.084 30.5108C10.084 30.5108 10.084 30.5108 10.0847 30.5115C11.0977 31.5276 12.2392 32.5374 13.3559 33.4637C13.391 33.4926 13.4253 33.5214 13.4604 33.5495C13.7582 33.7951 14.0538 34.0353 14.3446 34.2677C16.0141 35.6003 17.5167 36.6811 18.2988 37.23C18.3074 37.2363 18.3167 37.2425 18.3253 37.2487C18.3908 37.2947 18.4516 37.3376 18.507 37.3758C18.6185 37.453 18.7292 37.5294 18.84 37.6051C20.6007 38.8044 22.2811 39.7479 23.8562 40.4894C24.1112 40.6095 24.3631 40.7234 24.6118 40.8333C24.7311 40.8864 24.8504 40.9378 24.9689 40.9877C28.9247 42.6681 32.1296 43.0666 34.1429 43.0993C34.2404 43.1017 34.3355 43.1025 34.4268 43.1025C34.4774 43.1025 34.5266 43.1017 34.5749 43.1017C34.7558 43.1001 34.9087 43.0939 35.0319 43.0884H35.0545C39.1311 42.888 43.2373 41.3932 46.9296 38.7646C47.0161 38.703 47.073 38.6102 47.0894 38.5057C47.105 38.4012 47.0777 38.2952 47.0138 38.211C46.2457 37.2027 45.5985 36.1235 45.0784 34.9874C44.7727 34.3192 44.5115 33.6306 44.2947 32.9241C43.8097 31.3373 43.5625 29.66 43.5625 27.9835C43.5625 27.5968 43.5758 27.21 43.6023 26.8248C45.0324 28.4795 46.4469 29.5485 47.8161 30.007L47.8754 30.0273C47.9573 30.0546 48.0602 30.0889 48.178 30.1349C48.2364 30.1575 48.2988 30.1833 48.3635 30.2129C48.3955 30.2277 48.4283 30.2433 48.4618 30.2589C48.7628 30.4063 49.1043 30.6277 49.3936 30.9716C49.4973 31.0932 49.5893 31.2258 49.6704 31.3685C49.874 31.7241 50.0081 32.1428 50.072 32.6193C50.0845 32.7144 50.0946 32.8119 50.1024 32.9124C50.1126 33.0536 50.1983 33.1791 50.327 33.2384C50.4564 33.2977 50.6069 33.2828 50.7216 33.1994C51.042 32.9647 51.63 32.613 52.4207 32.4656C52.685 32.4165 52.9712 32.3908 53.2792 32.3994C53.2808 32.3994 53.2823 32.3994 53.2847 32.3994C53.2862 32.3994 53.2878 32.3994 53.2901 32.3994H53.2925C54.5993 32.4391 55.514 33.1011 55.8618 33.399C56.4739 34.0525 57.1851 34.5702 57.9757 34.9391C59.5306 35.6627 61.0582 35.6416 62.1179 35.4763C62.0212 35.5707 61.9237 35.6642 61.8247 35.7563C60.5926 36.9041 59.1961 37.8289 57.674 38.5049C55.7308 39.3681 53.6441 39.8071 51.4686 39.7986C50.6701 39.7962 49.8669 39.7331 49.0833 39.6091C48.9031 39.5802 48.7269 39.6808 48.6599 39.85C47.0574 43.8885 44.6862 47.4231 41.6131 50.3551L41.6147 50.3566ZM8.54782 56.3031C8.29361 57.3496 7.89047 58.3485 7.34619 59.2772C6.74109 58.7774 6.20149 58.2058 5.73753 57.5726C5.26265 56.9238 4.87121 56.2158 4.57412 55.4665C4.18111 54.388 3.94484 53.2652 3.87154 52.1283C3.77173 50.5804 3.97136 49.0451 4.46417 47.5573C5.39599 49.1129 6.46583 50.5945 7.66745 51.9801C7.66901 51.9817 7.6698 51.9832 7.67136 51.9848C8.0511 52.423 8.44723 52.8542 8.84959 53.2691C8.88935 54.2906 8.78876 55.3089 8.54782 56.3031ZM11.3901 43.0026C11.8852 43.7021 12.2618 44.4936 12.5168 45.3614C10.2087 44.1364 8.24994 42.2525 6.92356 39.9818C8.07683 42.474 9.95998 44.6292 12.286 46.1217C12.456 46.2223 12.6159 46.1958 12.7282 46.1085C12.8646 46.6192 12.9855 47.1346 13.0907 47.6532C11.6583 46.8017 10.3241 45.7771 9.12484 44.6082C7.79768 43.3208 6.64986 41.854 5.69932 40.2657C3.80449 37.0686 2.76817 33.3834 2.71515 29.6632C4.41504 35.7765 6.24048 39.2941 8.26242 40.3733C8.28581 40.3857 8.31388 40.4006 8.34741 40.4177C8.82385 40.6657 10.2711 41.4213 11.3901 43.0026ZM1.08622 27.0665C1.30845 26.6392 1.55407 26.3328 1.8192 26.1511C2.11395 27.4034 2.41182 28.5715 2.71437 29.6585C2.67616 31.5198 2.88514 33.3889 3.32727 35.205C4.6482 40.7382 8.27256 45.6383 13.1391 48.5819C13.1835 48.6068 13.2272 48.6224 13.2693 48.6318C13.3262 48.9842 13.3754 49.3375 13.4167 49.6907C13.4385 49.8786 13.458 50.0658 13.4759 50.2545C11.7495 49.2743 10.1471 48.0657 8.7217 46.6722C6.54771 44.5559 4.81117 42.0022 3.615 39.213C2.42508 36.4019 1.78099 33.3678 1.74512 30.3088C1.70379 32.3495 1.9346 34.3995 2.42196 36.3894C3.87077 42.4202 7.82887 47.7577 13.1391 50.9594C13.288 51.0421 13.4276 51.0296 13.5337 50.9664C13.5758 51.5957 13.5937 52.2273 13.5882 52.8597C11.8837 51.8101 10.2968 50.568 8.8683 49.1644C4.5788 44.9856 1.8114 39.3198 1.07842 33.3803C0.955992 32.3635 0.881134 31.3334 0.873336 30.3096C0.853062 31.3342 0.899851 32.3689 0.993424 33.3897C1.75682 41.6778 6.51886 49.3351 13.5656 53.7424C13.543 54.2695 13.504 54.7959 13.4487 55.3206C12.0537 54.5713 10.7195 53.6535 9.47496 52.586C9.06246 52.232 8.64918 51.8522 8.2476 51.4569C3.43254 45.8971 0.780544 38.7794 0.780544 31.4137C0.780544 29.9579 0.884253 28.4951 1.08777 27.0657L1.08622 27.0665ZM51.0654 32.0945C51.0491 32.1023 51.0319 32.1101 51.0163 32.1179C50.9898 32.1303 50.9649 32.1428 50.9399 32.1561C50.929 32.1615 50.9173 32.1678 50.9064 32.1732C50.8697 32.1919 50.8338 32.2107 50.7995 32.2294C50.7871 32.1662 50.773 32.1046 50.7582 32.0422C50.7223 31.8902 50.6787 31.7436 50.6288 31.6017C50.603 31.5268 50.5742 31.4535 50.5438 31.3818C50.5126 31.3069 50.4791 31.2336 50.4432 31.1619C50.4058 31.087 50.366 31.0137 50.3239 30.942C50.2794 30.8663 50.2326 30.793 50.1827 30.7221C50.1305 30.6464 50.0751 30.5731 50.0174 30.5022C50.0081 30.4913 50.0003 30.4796 49.9909 30.4694C49.9356 30.4032 49.8779 30.3423 49.8202 30.2831C49.743 30.2043 49.6642 30.131 49.5847 30.064C49.4888 29.9836 49.3921 29.9111 49.2961 29.8456C49.1745 29.7622 49.0536 29.6897 48.9375 29.6273C48.8556 29.5836 48.776 29.5446 48.7004 29.5095C48.4634 29.4012 48.2591 29.3333 48.1234 29.2881L48.0664 29.2694C47.997 29.246 47.9269 29.2202 47.8575 29.1937C47.6945 29.1313 47.5307 29.0588 47.3662 28.9762C47.2407 28.9138 47.1151 28.846 46.9896 28.7727C46.9818 28.768 46.974 28.7633 46.9662 28.7586C46.8828 28.7095 46.7993 28.658 46.7159 28.6042C46.6831 28.5832 46.6512 28.5613 46.6184 28.5403C46.6052 28.5317 46.5919 28.5231 46.5787 28.5138C46.4874 28.453 46.397 28.389 46.3057 28.322C46.2106 28.2518 46.1155 28.1793 46.0196 28.1036C45.9307 28.0334 45.8418 27.9601 45.7529 27.8845C45.6702 27.8135 45.5868 27.741 45.5026 27.6654C45.4238 27.5944 45.3451 27.5211 45.2663 27.4463C45.1907 27.3745 45.115 27.302 45.0394 27.2272C44.9677 27.1562 44.8959 27.0821 44.8242 27.008C44.7548 26.9363 44.6854 26.8638 44.616 26.7889C44.5497 26.7172 44.4826 26.6439 44.4164 26.5698C44.3516 26.4981 44.2877 26.4248 44.223 26.3507C44.0998 26.2088 43.9774 26.063 43.8534 25.9117C43.7949 25.84 43.7356 25.7667 43.6764 25.6926C43.6553 25.6653 43.6335 25.6388 43.6124 25.6123C43.5563 25.5405 43.4775 25.4937 43.3917 25.4742C43.334 25.461 43.274 25.461 43.214 25.4758C43.2101 25.4766 43.2054 25.4774 43.2015 25.4781C43.0869 25.5101 42.9948 25.592 42.9488 25.698C42.934 25.7316 42.9239 25.7674 42.9192 25.8056C42.9145 25.8431 42.9114 25.8813 42.9067 25.9195C42.8896 26.0669 42.874 26.2135 42.8599 26.3616C42.8529 26.4349 42.8475 26.509 42.8412 26.5823C42.8373 26.6314 42.8327 26.6813 42.8288 26.7304C42.8272 26.7546 42.8264 26.7788 42.8249 26.803C42.8202 26.8763 42.8163 26.9503 42.8124 27.0236C42.8085 27.0969 42.8038 27.171 42.8007 27.2443C42.7976 27.3176 42.796 27.3917 42.7937 27.465C42.7913 27.5383 42.789 27.6124 42.7874 27.6857C42.7866 27.759 42.7866 27.833 42.7866 27.9063C42.7866 27.9789 42.7843 28.0522 42.7851 28.1247V28.127C42.7859 28.2003 42.7882 28.2744 42.7898 28.3477C42.7913 28.421 42.7921 28.4951 42.7944 28.5684C42.7968 28.6417 42.8007 28.7157 42.8046 28.789C42.8077 28.8623 42.81 28.9364 42.8147 29.0097C42.8186 29.083 42.8241 29.1571 42.8295 29.2304C42.8397 29.3778 42.8521 29.5244 42.8654 29.6717C42.8724 29.745 42.8794 29.8191 42.8872 29.8924C42.895 29.9657 42.9036 30.0398 42.913 30.1131C42.9215 30.1864 42.9309 30.2605 42.9403 30.3337C42.9504 30.407 42.9605 30.4811 42.9707 30.5544C42.9816 30.6277 42.9933 30.7018 43.0042 30.7751C43.0159 30.8484 43.0276 30.9225 43.0401 30.9958C43.0533 31.0691 43.0666 31.1431 43.0798 31.2164C43.0931 31.2897 43.1071 31.3638 43.1212 31.4371C43.136 31.5104 43.1516 31.5845 43.1672 31.6578C43.1976 31.8052 43.2311 31.9525 43.2654 32.0984C43.2834 32.1717 43.3005 32.2457 43.3185 32.319C43.3372 32.3923 43.3567 32.4664 43.3762 32.5397C43.3956 32.613 43.4151 32.6871 43.4354 32.7604C43.4557 32.8345 43.4783 32.9078 43.4994 32.9811C43.5165 33.0395 43.5329 33.0988 43.5508 33.1573C43.5555 33.1721 43.5602 33.1869 43.5648 33.201C43.5875 33.275 43.6109 33.3483 43.635 33.4216C43.6584 33.4949 43.6834 33.569 43.7076 33.6415C43.7325 33.7148 43.7575 33.7889 43.7832 33.8614C43.8089 33.9355 43.8362 34.008 43.8635 34.0813C43.89 34.1546 43.9181 34.2287 43.9462 34.3012C43.9742 34.3745 44.0023 34.4486 44.0312 34.5211C44.0608 34.5944 44.0912 34.6677 44.1216 34.741C44.152 34.8143 44.1832 34.8876 44.2144 34.9609C44.2464 35.0342 44.2776 35.1083 44.3103 35.1808C44.3431 35.2549 44.3774 35.3274 44.4117 35.4007C44.4452 35.474 44.4803 35.5473 44.5154 35.6206C44.5505 35.6939 44.5856 35.768 44.6222 35.8405C44.6589 35.9146 44.6971 35.9871 44.7345 36.0604C44.7727 36.1337 44.8109 36.207 44.8499 36.2803C44.8889 36.3536 44.9279 36.4276 44.9684 36.5002C44.97 36.5025 44.9708 36.5048 44.9723 36.508C45.0121 36.5789 45.0527 36.6499 45.0924 36.7201C45.1345 36.7933 45.1774 36.8666 45.2203 36.9399C45.264 37.0132 45.3069 37.0865 45.3513 37.1598C45.3965 37.2331 45.4425 37.3064 45.4885 37.3797C45.5345 37.453 45.5821 37.5263 45.6297 37.5996C45.6772 37.6729 45.7256 37.7462 45.7747 37.8195C45.8238 37.8928 45.8737 37.9661 45.9236 38.0394C45.9751 38.1127 46.0274 38.186 46.0796 38.2593C46.1038 38.2936 46.128 38.3279 46.1529 38.3622C46.0944 38.402 46.0367 38.441 45.9782 38.4808C45.8667 38.5564 45.7552 38.6305 45.6437 38.7038C45.5283 38.7794 45.4129 38.8535 45.2975 38.9268C45.1782 39.0024 45.0581 39.0773 44.938 39.1498C44.814 39.2254 44.6893 39.3003 44.5645 39.3728C44.4351 39.4485 44.3056 39.5233 44.1762 39.5966C44.0405 39.673 43.904 39.7471 43.7684 39.8204C43.6257 39.8968 43.4822 39.9709 43.3395 40.0442C43.189 40.1206 43.0385 40.1955 42.888 40.268C42.7289 40.3444 42.5691 40.4201 42.4092 40.4926C42.2392 40.5698 42.0677 40.6446 41.8961 40.7171C41.7129 40.7943 41.5297 40.87 41.3456 40.9417C41.1452 41.0197 40.9448 41.0953 40.7437 41.1671C40.5214 41.2466 40.2992 41.3215 40.0754 41.3924C39.8235 41.4727 39.5709 41.5484 39.3167 41.6186C39.0165 41.702 38.7147 41.7768 38.4114 41.8455C38.0238 41.9336 37.6339 42.01 37.2433 42.0747C36.5095 42.1956 35.7703 42.2743 35.0272 42.311C35.0248 42.311 35.0225 42.311 35.0202 42.311H34.9991C34.9453 42.3141 34.8876 42.3164 34.826 42.3188C34.748 42.3211 34.6638 42.3235 34.571 42.3242C34.5242 42.3242 34.4767 42.3242 34.4283 42.3242C34.2802 42.3242 34.1234 42.3219 33.9597 42.3172C33.3078 42.2993 32.5366 42.2408 31.6609 42.1129C31.6477 42.1106 31.6336 42.109 31.6204 42.1067C31.6055 42.1044 31.5915 42.1028 31.5767 42.1005C31.2172 42.0466 30.8398 41.9804 30.446 41.9008C30.1372 41.8384 29.8183 41.7675 29.4893 41.6872C29.2234 41.6217 28.9504 41.5507 28.6713 41.472C28.4335 41.4049 28.1909 41.3332 27.9438 41.2567C27.7262 41.1889 27.5055 41.1172 27.2817 41.0407C27.0798 40.9721 26.8755 40.9004 26.6688 40.824C26.4801 40.7546 26.2891 40.6828 26.0965 40.6072C25.9187 40.5378 25.7386 40.4653 25.5569 40.3904C25.3877 40.3202 25.2169 40.2485 25.0446 40.1736C24.8832 40.1035 24.721 40.031 24.5572 39.9561C24.4028 39.8859 24.2469 39.8134 24.0902 39.7385C23.9412 39.6676 23.7915 39.5958 23.641 39.521C23.4975 39.45 23.354 39.3775 23.209 39.3034C23.0702 39.2325 22.9314 39.1599 22.7911 39.0859C22.6569 39.0149 22.522 38.9424 22.3864 38.8683C22.2561 38.7974 22.1259 38.7241 21.9949 38.65C21.8686 38.579 21.7415 38.5057 21.6136 38.4316C21.5894 38.4176 21.5653 38.4036 21.5411 38.3895C21.5185 38.3763 21.4959 38.363 21.4732 38.3498C21.3968 38.3045 21.3196 38.2593 21.2424 38.2133C21.1224 38.1416 21.0015 38.0691 20.8806 37.995C20.7637 37.9232 20.6467 37.8507 20.5282 37.7766C20.5048 37.7618 20.4806 37.7462 20.4564 37.7314C20.366 37.6745 20.2747 37.6168 20.1843 37.5583C20.0728 37.4866 19.9605 37.414 19.8482 37.34C19.739 37.2682 19.6291 37.1957 19.5191 37.1216C19.4123 37.0499 19.3047 36.9766 19.1971 36.9033C19.116 36.8479 19.0357 36.7926 18.9546 36.7364C18.9312 36.7201 18.9063 36.7029 18.8805 36.685C18.7901 36.6218 18.6856 36.5485 18.5694 36.4666C18.4743 36.3996 18.3721 36.3271 18.2622 36.2483C18.1662 36.1797 18.0649 36.1064 17.9581 36.03C17.8614 35.9606 17.7608 35.8873 17.6571 35.8116C17.5604 35.7414 17.4613 35.6681 17.3584 35.5933C17.2625 35.5223 17.1635 35.4498 17.0621 35.375C16.9662 35.304 16.8687 35.2315 16.7689 35.1566C16.6738 35.0857 16.5771 35.0124 16.4781 34.9383C16.3837 34.8665 16.287 34.794 16.1903 34.7199C16.0967 34.6482 16.0008 34.5757 15.9049 34.5008C15.8114 34.4291 15.717 34.3558 15.6219 34.2825C15.5291 34.2108 15.4355 34.1375 15.3419 34.0634C15.2499 33.9916 15.1579 33.9183 15.0643 33.845C14.9731 33.7725 14.8819 33.7 14.7891 33.6259C14.6986 33.5534 14.6082 33.4809 14.5169 33.4068C14.4273 33.3343 14.3376 33.2618 14.2471 33.1877C14.1582 33.1152 14.0694 33.0427 13.9805 32.9686C13.8923 32.8961 13.8042 32.8236 13.7161 32.7495C13.6296 32.677 13.5422 32.6037 13.4549 32.5304C13.3691 32.4578 13.2826 32.3845 13.1968 32.3112C13.0276 32.167 12.8584 32.0204 12.6899 31.873C12.6065 31.8005 12.5239 31.7272 12.4412 31.6539C12.3593 31.5814 12.2774 31.5081 12.1956 31.4348C12.1722 31.4137 12.148 31.3927 12.1246 31.3708C12.0677 31.3194 12.0108 31.2679 11.9538 31.2157C11.8915 31.1595 11.8299 31.1026 11.7683 31.0457C11.7503 31.0293 11.7332 31.0129 11.7152 30.9966C11.6731 30.9576 11.631 30.9186 11.5889 30.8796C11.5523 30.8461 11.5164 30.8117 11.4805 30.7774C11.4033 30.7049 11.3261 30.6316 11.2489 30.5583C11.2138 30.5248 11.1795 30.492 11.1444 30.4585C11.1031 30.4187 11.0618 30.379 11.0212 30.3392C11.0181 30.3361 11.015 30.333 11.0119 30.3306C10.9401 30.2605 10.8684 30.1903 10.7974 30.1209C10.7452 30.0686 10.6922 30.0164 10.6407 29.9649C10.6197 29.9439 10.5994 29.9228 10.5783 29.9018C10.5035 29.8269 10.4294 29.7513 10.3569 29.6756C10.3561 29.6748 10.353 29.6717 10.3483 29.667C10.3467 29.6655 10.3444 29.6631 10.3421 29.6608C10.3374 29.6561 10.3327 29.6515 10.3257 29.6444C10.3226 29.6405 10.3187 29.6374 10.314 29.6327C10.307 29.6257 10.2992 29.6179 10.2906 29.6093C10.2851 29.6039 10.2797 29.5984 10.2734 29.5922C10.2641 29.5828 10.2532 29.5727 10.2422 29.5618C10.2352 29.5548 10.229 29.5485 10.2212 29.5407C10.2056 29.5259 10.1884 29.5088 10.1705 29.4916C10.1627 29.4838 10.1549 29.476 10.1463 29.4682C10.1448 29.4667 10.1424 29.4643 10.1409 29.4628C10.1229 29.4456 10.1042 29.4277 10.084 29.4082C10.0746 29.3988 10.0637 29.3895 10.0535 29.3801C10.0403 29.3676 10.0278 29.3559 10.013 29.3427C10.0161 29.3091 10.0208 29.2764 10.0239 29.2429C10.0309 29.1688 10.0395 29.0955 10.0481 29.0222C10.0559 28.9489 10.0637 28.8748 10.073 28.8015C10.0816 28.7274 10.0925 28.6541 10.1027 28.5808C10.112 28.5075 10.1214 28.4335 10.1323 28.3602C10.1432 28.2861 10.1549 28.2128 10.1666 28.1395C10.1775 28.0654 10.1892 27.9921 10.2009 27.9188C10.2134 27.8447 10.2259 27.7714 10.2391 27.6981C10.2524 27.6241 10.2656 27.5508 10.2797 27.4775C10.2937 27.4034 10.307 27.3301 10.3218 27.2568C10.3366 27.1827 10.3522 27.1094 10.3678 27.0353C10.3834 26.9613 10.3982 26.888 10.4138 26.8139C10.4302 26.7398 10.4481 26.6665 10.4653 26.5932C10.4996 26.4451 10.5354 26.2977 10.5729 26.1511C10.5916 26.077 10.6103 26.0037 10.6298 25.9296C10.6493 25.8555 10.6703 25.7822 10.6906 25.7082C10.7319 25.56 10.7741 25.4126 10.8185 25.266C10.8411 25.192 10.8637 25.1187 10.8871 25.0446C10.9105 24.9705 10.9331 24.8972 10.9573 24.8231C10.9815 24.7491 11.0064 24.6758 11.0314 24.6017C11.0813 24.4535 11.1335 24.3061 11.1865 24.1588C11.2131 24.0847 11.2396 24.0106 11.2669 23.9373C11.2949 23.8632 11.3238 23.7899 11.3526 23.7159C11.3815 23.6418 11.4088 23.5677 11.4384 23.4944C11.4977 23.3463 11.5593 23.1981 11.6217 23.0515C11.6536 22.9774 11.6872 22.9041 11.7191 22.83C15.0745 15.2265 22.7357 9.91631 31.4137 9.91631C40.0918 9.91631 47.6142 15.1049 50.9968 22.5485C51.0304 22.6211 51.0615 22.6951 51.0943 22.7684C51.1582 22.9143 51.2214 23.0609 51.2822 23.2082C51.3126 23.2815 51.343 23.3548 51.3727 23.4281C51.4023 23.5014 51.4311 23.5747 51.46 23.648C51.4881 23.7213 51.5161 23.7946 51.5434 23.8679C51.598 24.0137 51.6518 24.1611 51.7033 24.3085C51.729 24.3818 51.7563 24.4551 51.7813 24.5284C51.8054 24.6017 51.8288 24.675 51.853 24.7483C51.8764 24.8216 51.9014 24.8949 51.924 24.9682C51.97 25.114 52.0144 25.2614 52.0573 25.4087C52.0784 25.482 52.0994 25.5553 52.1205 25.6294C52.1407 25.7027 52.1602 25.776 52.1797 25.8501C52.2195 25.9967 52.2569 26.1433 52.2928 26.2907C52.3115 26.364 52.3294 26.4373 52.3474 26.5113C52.3645 26.5846 52.3801 26.6579 52.3965 26.732C52.4129 26.8053 52.4293 26.8786 52.4448 26.9527C52.4604 27.026 52.476 27.0993 52.4901 27.1734C52.5049 27.2467 52.5189 27.32 52.533 27.394C52.547 27.4681 52.5618 27.5406 52.5751 27.6147C52.5883 27.688 52.5992 27.7621 52.6117 27.8354C52.6242 27.9087 52.6367 27.982 52.6484 28.0561C52.6601 28.1293 52.671 28.2026 52.6819 28.2767C52.6928 28.35 52.7022 28.4233 52.7123 28.4974C52.7224 28.5707 52.7334 28.644 52.7427 28.7181C52.7521 28.7914 52.7591 28.8655 52.7677 28.9387C52.7763 29.012 52.7856 29.0853 52.7934 29.1594C52.8082 29.306 52.8215 29.4534 52.834 29.6008C52.8402 29.6741 52.8464 29.7474 52.8519 29.8214C52.8573 29.8947 52.8612 29.9688 52.8659 30.0421C52.8706 30.1154 52.8761 30.1887 52.88 30.2628C52.8839 30.3361 52.887 30.4102 52.8901 30.4835C52.8932 30.5568 52.8956 30.6308 52.8987 30.7041C52.901 30.7774 52.9034 30.8507 52.9049 30.9248C52.9065 30.9981 52.9073 31.0722 52.908 31.1455C52.9088 31.2188 52.9104 31.2929 52.9104 31.3662C52.9111 31.3825 52.9111 31.3989 52.9111 31.4153C52.9111 31.4722 52.9111 31.5299 52.9104 31.5868V31.6258C52.9104 31.6258 52.9049 31.6258 52.9026 31.6258C52.848 31.6289 52.7942 31.6328 52.7412 31.6375C52.7123 31.6399 52.6842 31.643 52.6562 31.6461C52.6281 31.6492 52.6 31.6516 52.5719 31.6555C52.5408 31.6594 52.5104 31.6633 52.4799 31.6679C52.4558 31.6711 52.4324 31.675 52.4082 31.6789C52.3762 31.6843 52.345 31.689 52.3139 31.6952C52.2928 31.6991 52.271 31.703 52.2499 31.7069C52.2179 31.7132 52.186 31.7194 52.1548 31.7264C52.1353 31.7303 52.1166 31.735 52.0971 31.7389C52.0643 31.7459 52.0324 31.7537 52.0004 31.7615C51.9848 31.7654 51.9692 31.7701 51.9528 31.774C51.9193 31.7826 51.885 31.7911 51.8522 31.8005C51.8468 31.8021 51.8421 31.8036 51.8374 31.8052C51.754 31.8286 51.6737 31.8543 51.5949 31.8808C51.5918 31.8816 51.5887 31.8832 51.5855 31.8839C51.5559 31.8941 51.5271 31.905 51.4974 31.9151C51.4818 31.9206 51.4655 31.9268 51.4499 31.9323C51.4241 31.9416 51.3992 31.9518 51.3742 31.9619C51.3555 31.9689 51.3368 31.9767 51.3181 31.9837C51.2955 31.9931 51.2736 32.0025 51.251 32.0118C51.2308 32.0204 51.2113 32.029 51.191 32.0375C51.1894 32.0375 51.1879 32.0391 51.1863 32.0399C51.1684 32.0477 51.1504 32.0563 51.1325 32.0641C51.1099 32.0742 51.0888 32.0843 51.067 32.0945H51.0654ZM31.4122 0.781327C48.3035 0.781327 62.0453 14.5232 62.0453 31.4145C62.0453 32.5202 61.9845 33.6322 61.8676 34.7246C60.9256 34.8541 59.6234 34.8455 58.3071 34.2326C57.6007 33.9035 56.9659 33.4388 56.4186 32.8516C56.4092 32.8415 56.3998 32.8321 56.3889 32.8228C55.9359 32.429 55.0095 31.7872 53.6878 31.6469C53.6886 31.5689 53.6894 31.4909 53.6894 31.4137C53.6894 25.4633 51.3727 19.8693 47.165 15.6616C42.9574 11.454 37.3626 9.13654 31.4122 9.13654C25.8017 9.13654 20.4408 11.2294 16.3182 15.0292C12.4077 18.6333 9.93424 23.4663 9.29951 28.7072C8.25852 27.8213 6.61477 26.5948 4.69186 25.7776C4.12029 25.5343 3.54405 25.3768 3.51909 25.3698C3.33975 25.3214 3.1565 25.2777 2.97248 25.2403C2.63795 25.1553 2.31435 25.1491 2.00946 25.2224C2.0079 25.2224 2.00556 25.2232 2.004 25.2239C2.00244 25.2239 2.00088 25.2247 1.99855 25.2255C1.76773 25.2824 1.55018 25.3853 1.3451 25.5319C4.11562 11.3199 16.7837 0.781327 31.4122 0.781327ZM49.2712 40.4255C49.9956 40.5253 50.734 40.5768 51.4686 40.5791C51.4811 40.5791 51.4935 40.5791 51.5068 40.5791C53.7775 40.5791 55.9593 40.1214 57.9921 39.2177C59.593 38.5065 61.0621 37.5341 62.358 36.327C62.7931 35.9216 63.208 35.4904 63.5901 35.0451C63.7039 34.9118 63.7156 34.7192 63.6181 34.5733C63.5199 34.4275 63.3374 34.3652 63.1713 34.4205C63.006 34.4751 62.8384 34.5242 62.6676 34.5679C62.7713 33.5246 62.8251 32.4656 62.8251 31.413C62.8251 27.1726 61.9939 23.0585 60.3564 19.1854C58.7742 15.4449 56.509 12.0856 53.6246 9.20048C50.7395 6.31534 47.3803 4.05089 43.6397 2.46875C39.7666 0.830453 35.6533 0 31.4122 0C23.8126 0 16.4781 2.74946 10.76 7.74232C5.09734 12.6876 1.39032 19.4872 0.32282 26.8895C0.32282 26.8919 0.322824 26.8942 0.322045 26.8965C0.108388 28.3804 0 29.8994 0 31.4122C0 36.8261 1.39734 42.109 4.00722 46.7674C3.93393 46.8118 3.87467 46.8789 3.84347 46.9662C3.23214 48.6552 2.98027 50.4081 3.09412 52.1758C3.1721 53.3884 3.42474 54.5861 3.84347 55.7363C3.84503 55.7394 3.84581 55.7425 3.84737 55.7464C4.16942 56.5589 4.59361 57.3278 5.10904 58.0311C5.70244 58.8413 6.41125 59.5587 7.21519 60.1646C7.28303 60.2152 7.36569 60.2425 7.4499 60.2425C7.47329 60.2425 7.49591 60.241 7.5193 60.2363C7.62613 60.2176 7.72048 60.1544 7.77896 60.0624C8.48387 58.959 8.99774 57.7551 9.30575 56.4848C9.52486 55.5811 9.63637 54.6586 9.63871 53.7315C10.824 54.6758 12.0802 55.493 13.3863 56.1682C13.4424 57.6911 13.8502 60.4 15.7934 62.9647C17.5526 65.2868 19.7375 66.4284 21.2612 66.9766C21.304 66.9922 21.3485 67 21.3937 67C21.4545 67 21.5146 66.986 21.5699 66.9579C21.6659 66.9096 21.7376 66.8238 21.768 66.7201C22.1688 65.3601 22.3942 63.9519 22.4363 62.5351C22.476 61.2063 22.3552 59.8776 22.0768 58.5777C22.5946 58.6128 23.1147 58.63 23.6379 58.63C26.5667 58.63 29.5672 58.0873 32.4274 57.0299C35.973 55.7191 39.3362 53.6059 42.1535 50.9181C45.2351 47.9783 47.629 44.4483 49.2712 40.4232V40.4255Z" fill="#3458A4"/>
<path d="M13.2112 39.6695C13.2112 39.2663 12.8844 38.9394 12.4811 38.9394C12.0778 38.9394 11.751 39.2663 11.751 39.6695C11.751 40.0728 12.0778 40.3997 12.4811 40.3997C12.8844 40.3997 13.2112 40.0728 13.2112 39.6695Z" fill="#3458A4"/>
<path d="M31.411 9.91717C22.7329 9.91717 15.0709 15.2274 11.7164 22.8309L50.9941 22.5494C47.6114 15.1057 40.1062 9.91717 31.411 9.91717Z" fill="#39A8E0"/>
<path d="M50.9941 22.5494L11.7164 22.8309C11.6836 22.905 11.6513 22.9784 11.6194 23.0524L51.0928 22.7694C51.06 22.6961 51.0288 22.622 50.9953 22.5495L50.9941 22.5494Z" fill="#39A7DF"/>
<path d="M51.0928 22.7694L11.6194 23.0524C11.557 23.199 11.4944 23.347 11.4352 23.4951L51.2797 23.2097C51.2189 23.0623 51.1558 22.9157 51.0918 22.7699L51.0928 22.7694Z" fill="#38A7DF"/>
<path d="M51.2797 23.2097L11.4352 23.4951C11.4055 23.5684 11.3784 23.6427 11.3496 23.7168L51.3704 23.4298C51.3407 23.3565 51.3102 23.283 51.2797 23.2097Z" fill="#38A6DF"/>
<path d="M51.3704 23.4298L11.3496 23.7168C11.3207 23.7908 11.2921 23.8641 11.264 23.9382L51.4579 23.6497C51.4291 23.5764 51.4 23.5023 51.3704 23.4298Z" fill="#38A7DF"/>
<path d="M51.4579 23.6497L11.264 23.9382C11.2367 24.0115 11.2098 24.0855 11.1833 24.1596L51.541 23.8703C51.5137 23.797 51.486 23.7222 51.4579 23.6497Z" fill="#38A5DE"/>
<path d="M51.541 23.8703L11.1833 24.1596C11.1303 24.3062 11.0775 24.4538 11.0276 24.6019L51.7003 24.3103C51.6488 24.1629 51.5956 24.0169 51.541 23.8703Z" fill="#38A5DD"/>
<path d="M51.7003 24.3103L11.0276 24.6019C11.0027 24.6752 10.9784 24.7491 10.9543 24.8231L51.779 24.5307C51.7541 24.4567 51.726 24.3836 51.7003 24.3103Z" fill="#38A4DD"/>
<path d="M51.779 24.5307L10.9543 24.8231C10.9301 24.8964 10.9076 24.9705 10.8842 25.0446L51.8508 24.7506C51.8267 24.6773 51.8032 24.6032 51.779 24.5307Z" fill="#37A4DD"/>
<path d="M51.8508 24.7506L10.8842 25.0446C10.8608 25.1179 10.8383 25.1922 10.8157 25.2662L51.9219 24.9715C51.8993 24.8974 51.8742 24.8239 51.8508 24.7506Z" fill="#38A3DC"/>
<path d="M51.9219 24.9704L10.8156 25.2652C10.7712 25.4118 10.7291 25.5592 10.6877 25.7073L43.2134 25.4742C43.2735 25.4594 43.3335 25.4601 43.3912 25.4726L52.0552 25.4102C52.0123 25.2629 51.9679 25.117 51.9219 24.9704Z" fill="#38A2DB"/>
<path d="M52.0552 25.4102L43.3912 25.4726C43.477 25.4921 43.5563 25.5405 43.6124 25.6123C43.6335 25.6388 43.6553 25.6653 43.6764 25.6926L52.1184 25.6311C52.0973 25.5578 52.0763 25.4835 52.0552 25.4102Z" fill="#38A1DA"/>
<path d="M10.6266 25.929L42.948 25.6975C42.994 25.5914 43.086 25.5095 43.2006 25.4776C43.2045 25.476 43.2092 25.476 43.2131 25.4752L10.6874 25.7084C10.6671 25.7817 10.6461 25.855 10.6266 25.929Z" fill="#38A1DA"/>
<path d="M52.1184 25.6311L43.6764 25.6926C43.7356 25.7667 43.7949 25.84 43.8534 25.9117L52.1775 25.8524C52.158 25.7791 52.1386 25.7044 52.1184 25.6311Z" fill="#39A0DA"/>
<path d="M10.5695 26.1504L42.9057 25.9188C42.9104 25.8806 42.9135 25.8431 42.9182 25.8049C42.9229 25.7675 42.9332 25.7318 42.948 25.6975L10.6266 25.929C10.6071 26.0023 10.5883 26.0763 10.5695 26.1504Z" fill="#39A0DA"/>
<path d="M10.4628 26.5925L42.8598 26.3601C42.8738 26.2128 42.8894 26.0654 42.9066 25.918L10.5704 26.1496C10.5329 26.2962 10.4971 26.4444 10.4628 26.5925Z" fill="#389FD9"/>
<path d="M52.1775 25.8524L43.8525 25.911C43.9765 26.0623 44.0989 26.2081 44.2221 26.3501L52.2904 26.2924C52.2545 26.145 52.2172 25.9982 52.1775 25.8524Z" fill="#389FD9"/>
<path d="M52.2904 26.2924L44.223 26.3507C44.2877 26.4248 44.3516 26.4981 44.4164 26.5698L52.3454 26.513C52.3275 26.4397 52.3091 26.3664 52.2904 26.2924Z" fill="#369DD8"/>
<path d="M10.4114 26.8138L42.8404 26.5815C42.8466 26.5082 42.8528 26.4334 42.8598 26.3601L10.4628 26.5925C10.4456 26.6666 10.4278 26.7405 10.4114 26.8138Z" fill="#369DD8"/>
<path d="M10.3641 27.0345L42.8235 26.8022C42.8251 26.778 42.8259 26.7538 42.8274 26.7296C42.8313 26.6797 42.8365 26.6306 42.8404 26.5815L10.4114 26.8138C10.395 26.8871 10.3797 26.9612 10.3649 27.0353L10.3641 27.0345Z" fill="#359CD7"/>
<path d="M52.3454 26.513L44.4164 26.5698C44.4826 26.6439 44.5497 26.7172 44.616 26.7889L52.3943 26.7337C52.378 26.6604 52.3626 26.5863 52.3454 26.513Z" fill="#359CD7"/>
<path d="M10.3193 27.2562L42.8114 27.023C42.8153 26.949 42.8189 26.8755 42.8235 26.8022L10.3649 27.0353C10.3493 27.1086 10.3341 27.1821 10.3193 27.2562Z" fill="#379BD6"/>
<path d="M52.3943 26.7337L44.6146 26.789C44.684 26.8639 44.7534 26.9364 44.8228 27.0081L52.4419 26.9536C52.4263 26.8803 52.41 26.8062 52.3936 26.7329L52.3943 26.7337Z" fill="#379BD6"/>
<path d="M52.4419 26.9536L44.8242 27.008C44.8959 27.0821 44.9677 27.1562 45.0394 27.2272L52.4876 27.1734C52.4736 27.1001 52.4575 27.0269 52.4419 26.9536Z" fill="#359BD7"/>
<path d="M10.2769 27.4767L42.7995 27.2435C42.8026 27.1702 42.8075 27.0963 42.8114 27.023L10.3193 27.2562C10.3045 27.3295 10.291 27.4034 10.2769 27.4767Z" fill="#359BD7"/>
<path d="M10.237 27.6982L42.7937 27.465C42.796 27.3917 42.7976 27.3176 42.8007 27.2443L10.2775 27.4775C10.2635 27.5508 10.2502 27.6249 10.237 27.6982Z" fill="#369AD6"/>
<path d="M52.4876 27.1734L45.0385 27.2281C45.1141 27.3029 45.1897 27.3754 45.2654 27.4472L52.5305 27.3949C52.5164 27.3216 52.5024 27.2467 52.4876 27.1734Z" fill="#369AD6"/>
<path d="M52.5305 27.3949L45.2654 27.4472C45.3441 27.522 45.4234 27.5953 45.5021 27.6663L52.5731 27.6156C52.5598 27.5415 52.5445 27.469 52.5305 27.3949Z" fill="#3799D5"/>
<path d="M10.1995 27.9191L42.7874 27.6857C42.789 27.6124 42.7913 27.5383 42.7937 27.465L10.237 27.6982C10.2237 27.7715 10.2119 27.8458 10.1995 27.9191Z" fill="#3799D5"/>
<path d="M10.1645 28.1403L42.7866 27.9063C42.7866 27.833 42.7866 27.759 42.7874 27.6857L10.1995 27.9191C10.1878 27.9924 10.1761 28.0662 10.1652 28.1395L10.1645 28.1403Z" fill="#3898D4"/>
<path d="M52.5731 27.6156L45.5026 27.6654C45.5868 27.741 45.6702 27.8135 45.7529 27.8845L52.6098 27.8363C52.5974 27.763 52.5863 27.6889 52.5731 27.6156Z" fill="#3898D4"/>
<path d="M52.6089 27.8355L45.7517 27.8846C45.8406 27.9602 45.9294 28.0335 46.0183 28.1037L52.6456 28.0562C52.6339 27.9829 52.6214 27.9088 52.6089 27.8355Z" fill="#3798D4"/>
<path d="M10.131 28.361L42.7851 28.127V28.1247C42.7843 28.0522 42.7866 27.9789 42.7866 27.9063L10.1645 28.1403C10.1528 28.2136 10.1419 28.2877 10.131 28.361Z" fill="#3798D4"/>
<path d="M52.6456 28.0562L46.0196 28.1036C46.1155 28.1793 46.2106 28.2518 46.3057 28.322L52.6798 28.276C52.6689 28.2027 52.658 28.1286 52.6463 28.0553L52.6456 28.0562Z" fill="#3797D4"/>
<path d="M10.1017 28.5819L42.7898 28.3477C42.7882 28.2744 42.7859 28.2003 42.7851 28.127L10.131 28.361C10.1209 28.4343 10.1118 28.5086 10.1017 28.5819Z" fill="#3797D4"/>
<path d="M52.6798 28.276L46.3051 28.3229C46.3963 28.3899 46.4868 28.4539 46.578 28.5147C46.5913 28.524 46.6045 28.5326 46.6178 28.5412L52.7101 28.4975C52.7 28.4242 52.6907 28.3493 52.6798 28.276Z" fill="#3796D3"/>
<path d="M10.0715 28.8033L42.7929 28.5686C42.7906 28.4953 42.7898 28.4213 42.7882 28.348L10.1003 28.5827C10.091 28.6568 10.0809 28.73 10.0715 28.8033Z" fill="#3796D3"/>
<path d="M52.7101 28.4975L46.6184 28.5403C46.6512 28.5613 46.6831 28.5832 46.7159 28.6042C46.7993 28.658 46.8828 28.7095 46.9662 28.7586L52.7408 28.7182C52.7315 28.6441 52.7203 28.5708 52.7101 28.4975Z" fill="#3795D2"/>
<path d="M10.0471 29.0238L42.8036 28.7891C42.7997 28.7158 42.7952 28.6419 42.7929 28.5686L10.0715 28.8033C10.0629 28.8766 10.0557 28.9505 10.0471 29.0238Z" fill="#3795D2"/>
<path d="M10.0234 29.2445L42.8147 29.0097C42.81 28.9364 42.8077 28.8623 42.8046 28.789L10.0471 29.0238C10.0385 29.0971 10.0312 29.1712 10.0234 29.2445Z" fill="#3794D2"/>
<path d="M52.7408 28.7182L46.9653 28.7595C46.9731 28.7642 46.9809 28.7689 46.9887 28.7735C47.1143 28.8476 47.2398 28.9147 47.3653 28.9771L52.7652 28.9381C52.7567 28.8648 52.7502 28.7915 52.7408 28.7182Z" fill="#3794D2"/>
<path d="M10.0128 29.3445C10.0269 29.3578 10.0394 29.3695 10.0534 29.3819C10.0635 29.3913 10.0737 29.4014 10.0838 29.41C10.1041 29.4295 10.1228 29.4466 10.1407 29.4646L42.8295 29.2304C42.8241 29.1571 42.8186 29.083 42.8147 29.0097L10.0234 29.2445C10.0203 29.278 10.016 29.311 10.0128 29.3445Z" fill="#3793D1"/>
<path d="M52.7652 28.9381L47.3653 28.9771C47.5299 29.0597 47.6938 29.1315 47.8568 29.1946L52.7912 29.1595C52.7834 29.0855 52.7738 29.0114 52.7652 28.9381Z" fill="#3793D1"/>
<path d="M10.1455 29.4699C10.154 29.4777 10.1618 29.4855 10.1696 29.4933C10.1876 29.5104 10.2047 29.5276 10.2203 29.5424C10.2281 29.5502 10.2343 29.5564 10.2414 29.5634C10.2523 29.5744 10.2632 29.5845 10.2726 29.5939C10.2788 29.6001 10.2843 29.6056 10.2897 29.611C10.2983 29.6196 10.3061 29.6274 10.3131 29.6344C10.317 29.6383 10.3209 29.6422 10.3248 29.6461C10.3318 29.6523 10.3365 29.6578 10.3412 29.6625C10.3435 29.6648 10.3459 29.6672 10.3474 29.6687C10.3521 29.6734 10.3552 29.6765 10.356 29.6773C10.4293 29.7522 10.5034 29.8278 10.5774 29.9034L42.8654 29.6717C42.8521 29.5244 42.8397 29.3778 42.8295 29.2304L10.1407 29.4646C10.1407 29.4646 10.1439 29.4683 10.1455 29.4699Z" fill="#3692D0"/>
<path d="M52.7912 29.1595L47.8568 29.1946C47.9262 29.2211 47.9958 29.2461 48.0652 29.2695L48.1221 29.2882C48.2578 29.3334 48.4621 29.4012 48.6991 29.5096C48.7748 29.5439 48.8543 29.5837 48.9362 29.6274L52.8311 29.5993C52.8186 29.4519 52.8054 29.3045 52.7906 29.1579L52.7912 29.1595Z" fill="#3692D0"/>
<path d="M10.6401 29.9658C10.6923 30.018 10.7446 30.0703 10.7968 30.1217L42.8872 29.8924C42.8794 29.8191 42.8724 29.745 42.8654 29.6717L10.5774 29.9034C10.5985 29.9245 10.619 29.9447 10.6401 29.9658Z" fill="#3691D0"/>
<path d="M52.8311 29.5993L48.9362 29.6274C49.0524 29.6897 49.1732 29.7631 49.2949 29.8465L52.8491 29.8208C52.8436 29.7467 52.8374 29.6726 52.8311 29.5993Z" fill="#3691D0"/>
<path d="M11.0114 30.3323C11.0114 30.3323 11.0176 30.3385 11.0207 30.3409L42.913 30.1131C42.9036 30.0398 42.895 29.9657 42.8872 29.8924L10.7968 30.1217C10.8678 30.1919 10.9397 30.2629 11.0114 30.3323Z" fill="#3690CF"/>
<path d="M52.8491 29.8208L49.2949 29.8465C49.3908 29.912 49.4874 29.9846 49.5833 30.0649L52.863 30.0415C52.8584 29.9682 52.8545 29.8941 52.8491 29.8208Z" fill="#3690CF"/>
<path d="M11.1443 30.46C11.1786 30.4935 11.2137 30.5263 11.2488 30.5598L42.9403 30.3337C42.9309 30.2605 42.9215 30.1864 42.913 30.1131L11.0207 30.3409C11.0613 30.3806 11.103 30.4202 11.1443 30.46Z" fill="#368FCE"/>
<path d="M52.863 30.0415L49.5847 30.064C49.6642 30.131 49.743 30.2043 49.8202 30.2831L52.8779 30.262C52.874 30.1879 52.8677 30.1148 52.863 30.0415Z" fill="#368FCE"/>
<path d="M52.8779 30.262L49.8197 30.284C49.8774 30.3433 49.9351 30.4041 49.9905 30.4704C49.9998 30.4813 50.0076 30.493 50.017 30.5031L52.8881 30.4829C52.885 30.4096 52.8818 30.3353 52.8779 30.262Z" fill="#368FCE"/>
<path d="M11.4793 30.7799L42.9707 30.5544C42.9605 30.4811 42.9504 30.407 42.9403 30.3337L11.2485 30.5608C11.3249 30.6341 11.4013 30.7074 11.4793 30.7799Z" fill="#368FCE"/>
<path d="M11.5884 30.8812C11.6305 30.9202 11.6726 30.9592 11.7147 30.9982L43.0045 30.7736C42.9935 30.7003 42.9818 30.627 42.9709 30.553L11.48 30.7783C11.5159 30.8126 11.5525 30.8469 11.5884 30.8812Z" fill="#358ECD"/>
<path d="M52.8881 30.4829L50.017 30.5031C50.0747 30.5741 50.13 30.6474 50.1823 30.723L52.8967 30.7035C52.8935 30.6302 52.8912 30.5562 52.8881 30.4829Z" fill="#358ECD"/>
<path d="M52.8967 30.7035L50.1827 30.7221C50.2326 30.793 50.2794 30.8663 50.3239 30.942L52.903 30.924C52.9015 30.8499 52.899 30.7768 52.8967 30.7035Z" fill="#358DCC"/>
<path d="M11.7678 31.0471C11.8294 31.1041 11.891 31.1602 11.9533 31.2171L43.0403 30.9941C43.0279 30.9208 43.0161 30.8477 43.0045 30.7736L11.7147 30.9982C11.7326 31.0146 11.7498 31.0308 11.7678 31.0471Z" fill="#358DCC"/>
<path d="M52.903 30.924L50.3226 30.9427C50.3647 31.0145 50.4045 31.0878 50.4419 31.1626L52.9052 31.1447C52.9052 31.0714 52.9046 30.9973 52.903 30.924Z" fill="#358CCB"/>
<path d="M12.1227 31.3725C12.146 31.3936 12.1702 31.4154 12.1936 31.4365L43.0779 31.215C43.0646 31.1417 43.0514 31.0684 43.0381 30.9943L11.9511 31.2173C12.008 31.2688 12.0657 31.321 12.1227 31.3725Z" fill="#358CCB"/>
<path d="M12.4404 31.6556L43.1204 31.4357C43.1064 31.3624 43.0923 31.2891 43.0791 31.215L12.1948 31.4365C12.2767 31.5098 12.3578 31.5831 12.4404 31.6556Z" fill="#358BCB"/>
<path d="M52.9052 31.1447L50.4419 31.1626C50.4778 31.2344 50.5118 31.3079 50.543 31.3827L52.9081 31.3656C52.9081 31.2915 52.906 31.218 52.9052 31.1447Z" fill="#358BCB"/>
<path d="M12.6881 31.8745L43.1661 31.6562C43.1505 31.5829 43.1352 31.5098 43.1204 31.4357L12.4404 31.6556C12.5231 31.7289 12.6047 31.802 12.6881 31.8745Z" fill="#358ACA"/>
<path d="M52.9093 31.4145C52.9093 31.3982 52.9089 31.382 52.9081 31.3656L50.543 31.3827C50.5735 31.4545 50.602 31.5276 50.6277 31.6025L52.9086 31.5861C52.9093 31.5292 52.9093 31.4715 52.9093 31.4145Z" fill="#358ACA"/>
<path d="M13.1956 32.3121L43.2642 32.0961C43.2299 31.9495 43.1965 31.8035 43.1661 31.6562L12.6881 31.8745C12.8565 32.0219 13.0264 32.1671 13.1956 32.3121Z" fill="#3589C9"/>
<path d="M51.1891 32.0378C51.2094 32.0292 51.2289 32.0206 51.2492 32.012C51.2718 32.0026 51.2937 31.9933 51.3163 31.9839C51.335 31.9761 51.3537 31.9691 51.3724 31.9621C51.3974 31.9519 51.4224 31.9426 51.4481 31.9324C51.4637 31.9262 51.4801 31.9207 51.4957 31.9153C51.5253 31.9044 51.5542 31.8942 51.5838 31.8841C51.5869 31.8833 51.5901 31.8817 51.5932 31.881C51.672 31.8544 51.7523 31.8287 51.8358 31.8053C51.8405 31.8037 51.8451 31.8022 51.8506 31.8006C51.8834 31.7913 51.9177 31.7827 51.9512 31.7741C51.9676 31.7702 51.9832 31.7655 51.9988 31.7616C52.0308 31.7538 52.0628 31.7468 52.0955 31.739C52.115 31.7343 52.1337 31.7304 52.1532 31.7265C52.1844 31.7195 52.2164 31.7133 52.2484 31.707C52.2695 31.7031 52.2913 31.6992 52.3124 31.6953C52.3436 31.6899 52.3748 31.6844 52.4068 31.6789C52.4309 31.675 52.4543 31.6719 52.4785 31.668C52.5089 31.6633 52.5394 31.6594 52.5706 31.6555C52.5986 31.6524 52.6267 31.6493 52.6548 31.6462C52.6829 31.6431 52.711 31.6399 52.7398 31.6376C52.7929 31.6329 52.8467 31.629 52.9013 31.6259C52.9036 31.6259 52.9068 31.6259 52.9091 31.6259L52.9086 31.5861L50.6277 31.6025C50.6777 31.7445 50.7219 31.8919 50.7578 32.044L51.1845 32.0409C51.1845 32.0409 51.1876 32.0385 51.1891 32.0378Z" fill="#3589C9"/>
<path d="M13.4531 32.5312L43.3174 32.3168C43.2995 32.2435 43.2821 32.1702 43.2642 32.0961L13.1956 32.3121C13.2813 32.3854 13.3673 32.4587 13.4531 32.5312Z" fill="#3588C9"/>
<path d="M50.7571 32.043C50.7719 32.1046 50.7859 32.1663 50.7984 32.2302C50.8327 32.2115 50.8686 32.1928 50.9053 32.1741C50.9162 32.1686 50.9279 32.1624 50.9388 32.1569C50.9638 32.1444 50.9887 32.1312 51.0153 32.1187C51.0309 32.1109 51.048 32.1031 51.0644 32.0953C51.0862 32.0851 51.1073 32.075 51.1299 32.0649C51.1479 32.0571 51.1665 32.0487 51.1845 32.0409L50.7578 32.044L50.7571 32.043Z" fill="#3588C9"/>
<path d="M13.7145 32.7503L43.3753 32.5375C43.3558 32.4642 43.3361 32.3909 43.3174 32.3168L13.4531 32.5312C13.5404 32.6045 13.6272 32.6778 13.7145 32.7503Z" fill="#3687C8"/>
<path d="M13.9777 32.9695L43.4342 32.7582C43.4139 32.6849 43.3948 32.6115 43.3753 32.5375L13.7145 32.7503C13.8026 32.8236 13.8896 32.897 13.9777 32.9695Z" fill="#3686C7"/>
<path d="M14.2449 33.1878L43.4987 32.978C43.4776 32.9047 43.4545 32.8322 43.4342 32.7582L13.9777 32.9695C14.0666 33.0428 14.156 33.1153 14.2449 33.1878Z" fill="#3685C6"/>
<path d="M14.5145 33.4067L43.564 33.1985C43.5593 33.1837 43.5547 33.1697 43.55 33.1549C43.532 33.0964 43.5158 33.0365 43.4987 32.978L14.2449 33.1878C14.3353 33.2611 14.4249 33.3342 14.5145 33.4067Z" fill="#3684C6"/>
<path d="M14.7867 33.6252L43.6342 33.4186C43.61 33.3453 43.5866 33.2726 43.564 33.1985L14.5145 33.4067C14.6058 33.4808 14.6962 33.5527 14.7867 33.6252Z" fill="#3583C5"/>
<path d="M15.062 33.8444L43.7068 33.6393C43.6826 33.566 43.6576 33.4919 43.6342 33.4186L14.7867 33.6252C14.8787 33.6985 14.9708 33.7718 15.062 33.8444Z" fill="#3482C4"/>
<path d="M15.3399 34.0627L43.7827 33.8592C43.7569 33.7859 43.7318 33.7126 43.7068 33.6393L15.062 33.8444C15.1556 33.9184 15.2479 33.9909 15.3399 34.0627Z" fill="#3481C3"/>
<path d="M15.6193 34.2818L43.8625 34.079C43.8352 34.0057 43.8084 33.9325 43.7827 33.8592L15.3399 34.0627C15.4342 34.1367 15.5273 34.2092 15.6193 34.2818Z" fill="#3480C3"/>
<path d="M15.9028 34.5003L43.9456 34.2991C43.9176 34.2258 43.889 34.1523 43.8625 34.079L15.6193 34.2818C15.7145 34.3558 15.8093 34.4285 15.9028 34.5003Z" fill="#347FC2"/>
<path d="M16.188 34.7192L44.0304 34.5196C44.0015 34.4463 43.9737 34.3724 43.9456 34.2991L15.9028 34.5003C15.9987 34.5744 16.0944 34.6475 16.188 34.7192Z" fill="#347EC1"/>
<path d="M16.4756 34.9375L44.1207 34.7394C44.0903 34.6661 44.06 34.5929 44.0304 34.5196L16.188 34.7192C16.2855 34.7933 16.3813 34.8665 16.4756 34.9375Z" fill="#347DC1"/>
<path d="M16.7665 35.1568L44.2135 34.9603C44.1823 34.887 44.1511 34.8127 44.1207 34.7394L16.4756 34.9375C16.5739 35.0124 16.6713 35.0859 16.7665 35.1568Z" fill="#347CC0"/>
<path d="M17.0598 35.3751L44.3096 35.1794C44.2768 35.1061 44.2455 35.0336 44.2135 34.9603L16.7665 35.1568C16.8663 35.2317 16.9639 35.3041 17.0598 35.3751Z" fill="#347BBF"/>
<path d="M17.3555 35.5942L44.4104 35.4001C44.376 35.3268 44.3423 35.2527 44.3096 35.1794L17.0598 35.3751C17.1612 35.45 17.2588 35.524 17.3555 35.5942Z" fill="#347ABE"/>
<path d="M17.6538 35.8125L44.5144 35.6199C44.4793 35.5466 44.4439 35.4734 44.4104 35.4001L17.3555 35.5942C17.4585 35.6699 17.5571 35.7424 17.6538 35.8125Z" fill="#3479BE"/>
<path d="M17.956 36.0308L44.6222 35.8405C44.5856 35.768 44.5505 35.6939 44.5154 35.6206L17.6538 35.8125C17.7583 35.8882 17.8601 35.9614 17.956 36.0308Z" fill="#3577BC"/>
<path d="M18.2599 36.2498L44.7345 36.0604C44.6971 35.9871 44.6589 35.9146 44.6222 35.8405L17.956 36.0308C18.0628 36.108 18.164 36.1811 18.2599 36.2498Z" fill="#3576BB"/>
<path d="M18.5678 36.4682L44.8491 36.2795C44.8101 36.2062 44.7719 36.1329 44.7337 36.0596L18.2599 36.2498C18.3699 36.3285 18.4727 36.4004 18.5671 36.4675L18.5678 36.4682Z" fill="#3675BA"/>
<path d="M18.8783 36.6868L44.9684 36.5002C44.9279 36.4276 44.8889 36.3536 44.8499 36.2803L18.5678 36.4682C18.684 36.5501 18.787 36.6236 18.8783 36.6868Z" fill="#3574BA"/>
<path d="M18.9526 36.738C19.0336 36.7941 19.1147 36.8495 19.1951 36.9049L45.0924 36.7201C45.0527 36.6499 45.0121 36.5789 44.9723 36.508C44.9708 36.5048 44.97 36.5025 44.9684 36.5002L18.8783 36.6868C18.904 36.7047 18.9292 36.7216 18.9526 36.738Z" fill="#3573B9"/>
<path d="M19.5168 37.1234L45.2195 36.9393C45.1766 36.866 45.1337 36.7927 45.0916 36.7194L19.1951 36.9049C19.3027 36.9789 19.4099 37.0516 19.5168 37.1234Z" fill="#3472B8"/>
<path d="M19.8466 37.3417L45.3513 37.1598C45.3069 37.0865 45.264 37.0132 45.2203 36.9399L19.5168 37.1234C19.6267 37.1974 19.7374 37.2699 19.8466 37.3417Z" fill="#3471B7"/>
<path d="M20.182 37.5599L45.487 37.3783C45.441 37.305 45.395 37.2324 45.3498 37.1584L19.8452 37.3408C19.9574 37.4149 20.0697 37.4874 20.1812 37.5592L20.182 37.5599Z" fill="#3470B7"/>
<path d="M20.4547 37.733C20.4789 37.7478 20.5023 37.7634 20.5265 37.7783L45.6288 37.5981C45.5812 37.5248 45.5331 37.4523 45.487 37.3783L20.182 37.5599C20.2733 37.6184 20.3643 37.6761 20.4547 37.733Z" fill="#356FB6"/>
<path d="M20.8782 37.9966L45.7739 37.818C45.7248 37.7447 45.6763 37.6714 45.6288 37.5981L20.5265 37.7783C20.6442 37.8523 20.7613 37.9248 20.8782 37.9966Z" fill="#356EB5"/>
<path d="M21.2405 38.2149L45.9233 38.0379C45.8734 37.9654 45.823 37.8913 45.7739 37.818L20.8782 37.9966C20.9991 38.0706 21.1204 38.1431 21.2405 38.2149Z" fill="#356DB5"/>
<path d="M21.4714 38.3513C21.494 38.3646 21.5166 38.3778 21.5392 38.3911C21.5634 38.4051 21.5876 38.4191 21.6117 38.4332L46.0793 38.2577C46.0271 38.1844 45.9747 38.1119 45.9233 38.0379L21.2405 38.2149C21.3177 38.2609 21.395 38.3069 21.4714 38.3513Z" fill="#366CB4"/>
<path d="M21.9927 38.6509L45.9776 38.4785C46.0361 38.4388 46.0938 38.3998 46.1523 38.36C46.1273 38.3257 46.1035 38.292 46.0793 38.2577L21.6117 38.4332C21.7396 38.5073 21.8664 38.5791 21.9927 38.6509Z" fill="#356BB3"/>
<path d="M22.3843 38.8693L45.6433 38.7024C45.7548 38.6291 45.8661 38.5542 45.9776 38.4785L21.9927 38.6509C22.1237 38.725 22.2549 38.7976 22.3843 38.8693Z" fill="#3569B1"/>
<path d="M22.7888 39.0866L45.2968 38.9251C45.4122 38.8518 45.5278 38.7781 45.6433 38.7024L22.3843 38.8693C22.52 38.9434 22.6547 39.0156 22.7888 39.0866Z" fill="#3568B1"/>
<path d="M23.2072 39.3042L44.9378 39.1483C45.0578 39.075 45.1775 39.0008 45.2968 38.9251L22.7888 39.0866C22.9292 39.1606 23.0684 39.2333 23.2072 39.3042Z" fill="#3467B0"/>
<path d="M23.6385 39.5219L44.5636 39.3722C44.6884 39.2989 44.8131 39.2248 44.9371 39.1492L23.2065 39.3052C23.3516 39.3792 23.4958 39.4517 23.6385 39.5219Z" fill="#3566AF"/>
<path d="M24.0893 39.7394L44.1761 39.5951C44.3056 39.5226 44.435 39.4477 44.5644 39.3713L23.6394 39.521C23.7898 39.5959 23.9396 39.6676 24.0885 39.7386L24.0893 39.7394Z" fill="#3565AE"/>
<path d="M24.5555 39.9569L43.7675 39.8188C43.9031 39.7455 44.0404 39.6715 44.1761 39.5951L24.0885 39.7386C24.2452 39.8127 24.4012 39.8867 24.5555 39.9569Z" fill="#3564AE"/>
<path d="M25.0429 40.1746L43.3386 40.0436C43.4813 39.9703 43.6248 39.8953 43.7675 39.8188L24.5555 39.9569C24.7193 40.0317 24.8822 40.1044 25.0429 40.1746Z" fill="#3563AD"/>
<path d="M25.5552 40.3911L42.8871 40.2671C43.0376 40.1946 43.1881 40.12 43.3386 40.0436L25.0429 40.1746C25.2152 40.2495 25.386 40.3217 25.5552 40.3911Z" fill="#3562AC"/>
<path d="M26.0965 40.6072L42.4087 40.491C42.5686 40.4185 42.7281 40.3443 42.8871 40.2671L25.5552 40.3911C25.7369 40.466 25.9174 40.5378 26.0952 40.6072L26.0965 40.6072Z" fill="#3561AB"/>
<path d="M26.6688 40.824L41.8957 40.7156C42.0672 40.6431 42.2387 40.5682 42.4087 40.491L26.0965 40.6072C26.2891 40.6828 26.4801 40.7546 26.6688 40.824Z" fill="#345FAA"/>
<path d="M27.2811 41.0416L41.3456 40.9417C41.5297 40.87 41.7124 40.7928 41.8957 40.7156L26.6682 40.8256C26.8756 40.9012 27.0791 40.9722 27.2811 41.0416Z" fill="#355EA9"/>
<path d="M27.9438 41.2567L40.743 41.1655C40.9442 41.0938 41.1446 41.0189 41.345 40.9401L27.2817 41.0407C27.5055 41.1172 27.7262 41.1889 27.9438 41.2567Z" fill="#355DA8"/>
<path d="M28.6705 41.4729L40.0746 41.3911C40.2984 41.3201 40.5208 41.2442 40.743 41.1655L27.943 41.2577C28.1902 41.3349 28.4327 41.4067 28.6705 41.4729Z" fill="#345DA8"/>
<path d="M29.4893 41.6872L39.3167 41.6186C39.5709 41.5484 39.8235 41.4727 40.0754 41.3924L28.6705 41.4729C28.9497 41.5509 29.2229 41.6233 29.4888 41.6888L29.4893 41.6872Z" fill="#335CA7"/>
<path d="M30.4451 41.9015L38.4105 41.8446C38.7138 41.776 39.0156 41.7003 39.3158 41.6177L29.4884 41.6879C29.8174 41.7682 30.1364 41.8391 30.4451 41.9015Z" fill="#335BA6"/>
<path d="M31.5759 42.1012C31.5908 42.1036 31.6048 42.1051 31.6196 42.1075C31.6329 42.1098 31.6469 42.1114 31.6602 42.1137L37.2425 42.0739C37.6332 42.0092 38.0229 41.9327 38.4105 41.8446L30.4451 41.9015C30.8389 41.981 31.2165 42.0474 31.5759 42.1012Z" fill="#3359A5"/>
<path d="M33.9585 42.3182L35.026 42.3104C35.7691 42.2737 36.5088 42.1948 37.2425 42.0739L31.6602 42.1137C32.5358 42.2416 33.3066 42.3002 33.9585 42.3182Z" fill="#3458A4"/>
<path d="M34.4283 42.3242C34.4767 42.3242 34.5242 42.3242 34.571 42.3242C34.6638 42.3235 34.748 42.3211 34.826 42.3188C34.8876 42.3164 34.945 42.315 34.9989 42.3127H35.0199C35.0199 42.3127 35.0248 42.311 35.0272 42.311L33.9585 42.3182C34.1223 42.3229 34.2797 42.3259 34.4279 42.3259L34.4283 42.3242Z" fill="#3457A4"/>
</svg>
