<svg width="51" height="50" viewBox="0 0 51 50" fill="none" xmlns="http://www.w3.org/2000/svg">
<path d="M19.956 26.009C19.956 26.2313 19.956 26.2313 19.7827 26.2313L15.4011 26.2313C16.218 23.7614 17.0845 21.1434 17.8766 18.5747C17.8766 18.7723 17.8766 18.9699 18.0499 19.1675C18.2232 19.3651 18.2727 19.9825 18.3717 20.3777L18.8173 21.7608C18.8173 22.2301 19.0896 22.6747 19.2381 23.1439L19.7085 24.5518L19.956 26.009Z" fill="#EEECE1"/>
<path d="M37.8783 24.4533C37.7408 24.0353 37.4939 23.6615 37.1632 23.3705C36.8324 23.0796 36.4298 22.8821 35.9969 22.7985C35.5461 22.7247 35.0862 22.7247 34.6354 22.7985C34.3018 22.8633 33.9867 23.001 33.7128 23.2017C33.4389 23.4024 33.2129 23.6611 33.0511 23.9593C32.8003 24.4029 32.6326 24.8883 32.556 25.3918L37.6802 25.3918C37.9278 25.3918 38.002 25.3918 37.9773 25.046C37.9686 24.8452 37.9353 24.6461 37.8783 24.4533ZM37.8783 24.4533C37.7408 24.0353 37.4939 23.6615 37.1632 23.3705C36.8324 23.0796 36.4298 22.8821 35.9969 22.7985C35.5461 22.7247 35.0862 22.7247 34.6354 22.7985C34.3018 22.8633 33.9867 23.001 33.7128 23.2017C33.4389 23.4024 33.2129 23.6611 33.0511 23.9593C32.8003 24.4029 32.6326 24.8883 32.556 25.3918L37.6802 25.3918C37.9278 25.3918 38.002 25.3918 37.9773 25.046C37.9686 24.8452 37.9353 24.6461 37.8783 24.4533ZM37.8783 24.4533C37.7408 24.0353 37.4939 23.6615 37.1632 23.3705C36.8324 23.0796 36.4298 22.8821 35.9969 22.7985C35.5461 22.7247 35.0862 22.7247 34.6354 22.7985C34.3018 22.8633 33.9867 23.001 33.7128 23.2017C33.4389 23.4024 33.2129 23.6611 33.0511 23.9593C32.8003 24.4029 32.6326 24.8883 32.556 25.3918L37.6802 25.3918C37.9278 25.3918 38.002 25.3918 37.9773 25.046C37.9686 24.8452 37.9353 24.6461 37.8783 24.4533ZM37.8783 24.4533C37.7408 24.0353 37.4939 23.6615 37.1632 23.3705C36.8324 23.0796 36.4298 22.8821 35.9969 22.7985C35.5461 22.7247 35.0862 22.7247 34.6354 22.7985C34.3018 22.8633 33.9867 23.001 33.7128 23.2017C33.4389 23.4024 33.2129 23.6611 33.0511 23.9593C32.8003 24.4029 32.6326 24.8883 32.556 25.3918L37.6802 25.3918C37.9278 25.3918 38.002 25.3918 37.9773 25.046C37.9686 24.8452 37.9353 24.6461 37.8783 24.4533ZM37.6802 0.322754L12.9254 0.322754C9.6427 0.322754 6.49445 1.62384 4.17324 3.93978C1.85202 6.25572 0.547974 9.39681 0.547974 12.672L0.547974 37.3706C0.547974 40.6459 1.85202 43.7869 4.17324 46.1029C6.49445 48.4188 9.6427 49.7199 12.9254 49.7199L37.6802 49.7199C40.9629 49.7199 44.1112 48.4188 46.4324 46.1029C48.7536 43.7869 50.0577 40.6459 50.0577 37.3706L50.0577 12.672C50.0577 9.39681 48.7536 6.25572 46.4324 3.93978C44.1112 1.62384 40.9629 0.322754 37.6802 0.322754ZM27.1099 34.9008L23.0996 34.9008C23.0309 34.9112 22.9607 34.9007 22.898 34.8708C22.8353 34.8408 22.7831 34.7927 22.7481 34.7328C22.7249 34.6934 22.7097 34.6497 22.7036 34.6044C22.5055 33.9869 22.2827 33.3941 22.0847 32.7767C21.8866 32.1592 21.5896 31.3689 21.3668 30.6526C21.3668 30.2574 21.045 30.208 20.6984 30.208L14.4602 30.208C14.1879 30.208 14.1879 30.208 14.0889 30.5044C13.9899 30.8008 13.8413 31.3195 13.6928 31.7393L13.2967 33.0237L12.7769 34.5303C12.7902 34.5955 12.7902 34.6627 12.7769 34.7279C12.7769 35.049 12.3808 34.9996 12.1332 34.9996L8.93986 34.9996C8.56854 34.9996 8.44477 34.8267 8.5933 34.4809C8.74183 34.1351 8.8656 33.7399 8.98937 33.3941L9.50923 31.8134L10.4747 29.0966C10.747 28.3556 10.9945 27.59 11.2421 26.8243C11.4896 26.0587 11.7124 25.5153 11.96 24.8484L12.4798 23.2924L13.3957 20.8226L14.1384 18.6491C14.3859 17.9575 14.6335 17.266 14.8563 16.5497C14.891 16.2131 14.891 15.8737 14.8563 15.5371C14.8563 15.0184 14.8563 15.0184 15.3761 15.0184L19.8567 15.0184C20.2528 15.0184 20.2281 15.0184 20.3518 15.3889C20.4756 15.7594 20.7974 16.5991 20.9955 17.1919C21.1935 17.7846 21.3668 18.2292 21.5401 18.7232L22.1342 20.3286L22.7283 22.0575C22.9759 22.7244 23.2234 23.3665 23.4462 24.0334L24.0898 25.8117C24.2879 26.4045 24.5107 26.9972 24.7335 27.6147C24.9562 28.2321 25.0305 28.5285 25.2038 28.9731C25.3771 29.4177 25.5504 29.961 25.7484 30.455C25.9464 30.949 26.0702 31.3936 26.2435 31.8628L26.9614 33.8634L27.2584 34.7279C27.3575 34.7032 27.2832 34.9008 27.1099 34.9008ZM41.9628 27.4912C41.9744 27.7135 41.9744 27.9358 41.9628 28.1581C41.9628 28.3803 41.5915 28.4544 41.3687 28.4544L32.6302 28.4544C32.7194 29.2645 33.0758 30.0203 33.6452 30.6032C34.6767 31.2353 35.8475 31.6063 37.0556 31.6838C38.2636 31.7613 39.4724 31.5429 40.5765 31.0478C40.7746 31.0478 40.8736 31.0478 40.8736 31.2454L40.8736 34.0363C40.8736 34.4809 40.7003 34.5303 40.329 34.6785L39.4378 34.9502C39.1548 35.0334 38.8648 35.0913 38.5714 35.123C37.9525 35.123 37.3337 35.2959 36.7148 35.3206C36.0959 35.3453 35.8731 35.3206 35.4523 35.3206L35.2047 35.3206C34.7097 35.3206 34.1898 35.3206 33.7195 35.1477C32.3539 34.8757 31.1077 34.1849 30.1548 33.1719C29.5503 32.5482 29.0787 31.8089 28.7685 30.9984C28.5181 30.4069 28.3514 29.7834 28.2734 29.146C28.2379 28.4219 28.2379 27.6966 28.2734 26.9725C28.3105 26.0809 28.4789 25.1992 28.7685 24.3545C29.0119 23.6515 29.3536 22.9863 29.7834 22.3786C30.3475 21.5306 31.1128 20.8349 32.0114 20.3533C32.3992 20.1294 32.8035 19.94 33.2244 19.7852C33.6814 19.6767 34.1442 19.5943 34.6106 19.5382C35.0315 19.5135 35.4523 19.5135 35.8731 19.5382C36.4937 19.5481 37.1043 19.6305 37.705 19.7852C38.2496 19.9384 38.7694 20.1524 39.2645 20.4274C40.0269 20.8636 40.6592 21.4944 41.0964 22.2551C41.3439 22.6997 41.542 23.1442 41.74 23.5888C41.8456 23.9033 41.9282 24.2244 41.9876 24.5521C42.2088 25.517 42.2341 26.5164 42.0618 27.4912L41.9628 27.4912ZM35.8979 22.922C35.4471 22.8482 34.9872 22.8482 34.5364 22.922C34.2028 22.9868 33.8877 23.1245 33.6138 23.3252C33.3399 23.5259 33.1139 23.7846 32.9521 24.0828C32.7013 24.5264 32.5336 25.0118 32.457 25.5153L37.6802 25.5153C37.9278 25.5153 38.002 25.5153 37.9773 25.1695C37.9568 24.9498 37.9068 24.7338 37.8288 24.5274C37.7067 24.1019 37.4723 23.7169 37.15 23.4128C36.8277 23.1086 36.4295 22.8964 35.9969 22.7985L35.8979 22.922ZM37.7793 24.5768C37.6418 24.1587 37.3949 23.785 37.0642 23.494C36.7334 23.2031 36.3308 23.0056 35.8979 22.922C35.4471 22.8482 34.9872 22.8482 34.5364 22.922C34.2028 22.9868 33.8877 23.1245 33.6138 23.3252C33.3399 23.5259 33.1139 23.7846 32.9521 24.0828C32.7013 24.5264 32.5336 25.0118 32.457 25.5153L37.6802 25.5153C37.9278 25.5153 38.002 25.5153 37.9773 25.1695C37.9773 24.9258 37.9443 24.6871 37.8783 24.4533L37.7793 24.5768ZM37.7793 24.5768C37.6418 24.1587 37.3949 23.785 37.0642 23.494C36.7334 23.2031 36.3308 23.0056 35.8979 22.922C35.4471 22.8482 34.9872 22.8482 34.5364 22.922C34.2028 22.9868 33.8877 23.1245 33.6138 23.3252C33.3399 23.5259 33.1139 23.7846 32.9521 24.0828C32.7013 24.5264 32.5336 25.0118 32.457 25.5153L37.6802 25.5153C37.9278 25.5153 38.002 25.5153 37.9773 25.1695C37.9773 24.9258 37.9443 24.6871 37.8783 24.4533L37.7793 24.5768ZM37.7793 24.5768C37.6418 24.1587 37.3949 23.785 37.0642 23.494C36.7334 23.2031 36.3308 23.0056 35.8979 22.922C35.4471 22.8482 34.9872 22.8482 34.5364 22.922C34.2028 22.9868 33.8877 23.1245 33.6138 23.3252C33.3399 23.5259 33.1139 23.7846 32.9521 24.0828C32.7013 24.5264 32.5336 25.0118 32.457 25.5153L37.6802 25.5153C37.9278 25.5153 38.002 25.5153 37.9773 25.1695C37.9773 24.9258 37.9443 24.6871 37.8783 24.4533L37.7793 24.5768ZM37.7793 24.5768C37.6418 24.1587 37.3949 23.785 37.0642 23.494C36.7334 23.2031 36.3308 23.0056 35.8979 22.922C35.4471 22.8482 34.9872 22.8482 34.5364 22.922C34.2028 22.9868 33.8877 23.1245 33.6138 23.3252C33.3399 23.5259 33.1139 23.7846 32.9521 24.0828C32.7013 24.5264 32.5336 25.0118 32.457 25.5153L37.6802 25.5153C37.9278 25.5153 38.002 25.5153 37.9773 25.1695C37.9773 24.9258 37.9443 24.6871 37.8783 24.4533L37.7793 24.5768Z" fill="#EEECE1"/>
</svg>
