<svg width="51" height="30" viewBox="0 0 51 30" fill="none" xmlns="http://www.w3.org/2000/svg">
<path d="M27.1637 28.7139L50.0119 4.28448C50.3933 3.87686 50.6061 3.33531 50.6061 2.77216C50.6061 2.209 50.3933 1.66746 50.0119 1.25984L49.9861 1.23353C49.8011 1.03524 49.5786 0.877353 49.3319 0.769456C49.0852 0.661561 48.8195 0.605922 48.5511 0.605922C48.2826 0.605922 48.0169 0.661561 47.7702 0.769456C47.5235 0.877353 47.301 1.03524 47.1161 1.23353L25.6018 24.2383L4.09611 1.23353C3.9112 1.03524 3.68863 0.877353 3.44193 0.769456C3.19524 0.661561 2.92958 0.605922 2.66111 0.605922C2.39264 0.605922 2.12698 0.661561 1.88028 0.769456C1.63359 0.877353 1.41101 1.03524 1.22611 1.23353L1.20029 1.25984C0.818862 1.66746 0.606079 2.209 0.606079 2.77216C0.606079 3.33531 0.818862 3.87686 1.20029 4.28448L24.0484 28.7139C24.2494 28.9288 24.491 29.0998 24.7588 29.2167C25.0265 29.3335 25.3148 29.3938 25.6061 29.3938C25.8974 29.3938 26.1856 29.3335 26.4534 29.2167C26.7211 29.0998 26.9628 28.9288 27.1637 28.7139Z" fill="#DAF1F7"/>
</svg>
