<svg width="29" height="50" viewBox="0 0 29 50" fill="none" xmlns="http://www.w3.org/2000/svg">
<path d="M28.3201 23.4424L3.89068 0.594204C3.48306 0.212779 2.94151 0 2.37836 0C1.8152 0 1.27366 0.212779 0.86604 0.594204L0.839736 0.620022C0.641446 0.804929 0.483554 1.0275 0.375657 1.2742C0.267762 1.52089 0.212123 1.78655 0.212123 2.05502C0.212123 2.32349 0.267762 2.58916 0.375657 2.83585C0.483554 3.08255 0.641446 3.30512 0.839736 3.49003L23.8445 25.0043L0.839736 46.51C0.641446 46.6949 0.483554 46.9174 0.375657 47.1641C0.267762 47.4108 0.212123 47.6765 0.212123 47.945C0.212123 48.2134 0.267762 48.4791 0.375657 48.7258C0.483554 48.9725 0.641446 49.1951 0.839736 49.38L0.86604 49.4058C1.27366 49.7872 1.8152 50 2.37836 50C2.94151 50 3.48306 49.7872 3.89068 49.4058L28.3201 26.5576C28.535 26.3567 28.706 26.115 28.8229 25.8473C28.9397 25.5795 29 25.2913 29 25C29 24.7087 28.9397 24.4205 28.8229 24.1527C28.706 23.885 28.535 23.6433 28.3201 23.4424Z" fill="#DAF1F7"/>
</svg>
