<svg width="125" height="104" viewBox="0 0 125 104" fill="none" xmlns="http://www.w3.org/2000/svg">
<path d="M65.3061 58.4644C65.5447 54.2613 67.5781 50.552 70.6488 47.925C73.8697 45.2128 77.9341 43.7425 82.1226 43.7743C86.5315 43.7743 90.5826 45.3505 93.5911 47.925C96.6618 50.552 98.69 54.2613 98.9234 58.4592C99.1568 62.7832 97.4451 66.792 94.4366 69.771C91.1196 72.9713 86.7034 74.7387 82.1226 74.6992C77.5382 74.7415 73.1177 72.9738 69.7981 69.771C66.7896 66.792 65.0727 62.7832 65.3061 58.4644ZM38.541 66.9601C38.5721 68.6099 39.0908 71.8043 39.8688 74.3052C41.5528 79.6837 44.3724 84.6265 48.1318 88.7903C52.1648 93.2881 57.0914 96.8709 62.5881 99.3035C68.5683 101.973 75.0376 103.334 81.5727 103.297C88.1063 103.304 94.5686 101.922 100.542 99.2405C106.031 96.779 110.952 93.1819 114.988 88.68C118.748 84.508 121.566 79.5559 123.245 74.1685C124.858 68.9496 125.301 63.4321 124.542 58.0178C123.817 52.83 122.022 47.8551 119.272 43.4171C116.725 39.2896 113.472 35.6549 109.666 32.6832L109.676 32.6832L70.7837 2.43611L70.6799 2.3573C68.1279 0.371304 63.8382 0.381811 61.032 2.36781C58.1947 4.37483 57.8731 7.70059 60.394 9.80218L60.3888 9.80743L76.6035 23.1683L27.1709 23.2208L27.1035 23.2208C23.0161 23.2261 19.0895 25.9424 18.3115 29.3785C17.5127 32.8724 20.2825 35.7725 24.5359 35.7883L24.5359 35.7988L49.5894 35.7463L4.877 70.5118L4.70064 70.6431C0.483565 73.9111 -0.875442 79.3542 1.78033 82.7956C4.47759 86.3 10.2093 86.3052 14.473 82.8166L38.8729 62.5941C38.8729 62.5941 38.5098 65.3261 38.541 66.9601ZM101.252 76.1073C96.221 81.2982 89.1873 84.2404 81.5675 84.2509C73.9426 84.2719 66.9037 81.3507 61.8723 76.1703C59.4953 73.7554 57.6621 70.8483 56.4985 67.6484C55.4302 64.6385 55.008 61.4324 55.2603 58.2441C55.5125 55.0559 56.4333 51.9588 57.9613 49.1597C59.4805 46.3924 61.5109 43.9469 63.9419 41.9565C68.8281 37.9214 75.0474 35.741 81.5572 35.7305C88.0721 35.72 94.2914 37.8846 99.1828 41.9039C101.673 43.9582 103.696 46.3908 105.158 49.0861C106.67 51.8493 107.592 54.9027 107.866 58.0494C108.147 61.2747 107.724 64.5232 106.626 67.5643C105.467 70.7713 103.63 73.6858 101.252 76.1073Z" fill="#EEECE1"/>
</svg>
