<svg width="77" height="102" viewBox="0 0 77 102" fill="none" xmlns="http://www.w3.org/2000/svg">
<path d="M19.8559 0.693359L30.8558 0.693359V5.29303L24.4555 5.29303V9.89271H30.8558V14.4924H19.8559V0.693359ZM33.0532 0.693359L44.0575 0.693359V4.69567H37.6572V5.49358H44.0575V14.6929L33.0532 14.6929V10.4943L39.4535 10.4943V9.69217L33.0532 9.69217V0.693359ZM46.2592 0.693359L57.2549 0.693359V4.69567H50.8546V5.49358H57.2549V14.6929H46.2592V10.4943H52.6595V9.69217H46.2592V0.693359Z" fill="#EEECE1"/>
<path fill-rule="evenodd" clip-rule="evenodd" d="M38.5153 101.239L8.88624 93.0123L0.151978 18.9609L76.9554 18.9609L68.2254 93.0037L38.5153 101.239ZM17.42 52.4814L18.2349 61.5613H49.7115L48.6576 73.3378L38.5281 76.0771H38.5196L28.4071 73.3463L27.7586 66.1055H18.6403L19.9118 80.3653L38.5153 85.5282L57.1487 80.3653L59.4186 54.9178L59.6405 52.4814L61.279 34.0955H15.7857L16.6135 43.1796H51.3287L50.5009 52.4814H17.42Z" fill="#EEECE1"/>
</svg>
