<svg width="58" height="91" viewBox="0 0 58 91" fill="none" xmlns="http://www.w3.org/2000/svg">
<path fill-rule="evenodd" clip-rule="evenodd" d="M12.6698 32.7946C11.0073 32.7946 9.36103 33.1232 7.82505 33.7617C6.28907 34.4002 4.89344 35.336 3.71785 36.5158C2.54226 37.6955 1.60974 39.0961 0.973512 40.6375C0.337288 42.179 0.009828 43.8311 0.009828 45.4995C0.009828 47.1679 0.337288 48.82 0.973512 50.3614C1.60974 51.9029 2.54226 53.3034 3.71785 54.4832C4.89344 55.663 6.28907 56.5988 7.82505 57.2373C9.36103 57.8758 11.0073 58.2044 12.6698 58.2044L25.3298 58.2044L25.3298 32.7946L12.6698 32.7946ZM25.3298 25.4166L12.6698 25.4166C9.31153 25.4166 6.09079 24.0778 3.71612 21.6947C1.34145 19.3117 0.00737637 16.0795 0.00737637 12.7093C0.00737637 9.3391 1.34145 6.10694 3.71612 3.72385C6.09079 1.34076 9.31153 0.00195313 12.6698 0.00195313L25.3298 0.00195313L25.3298 25.4166ZM32.6817 0.00195313L32.6817 25.4166L45.3417 25.4166C48.6568 25.3512 51.8142 23.9836 54.1356 21.6076C56.4571 19.2317 57.7575 16.0368 57.7575 12.7093C57.7575 9.38174 56.4571 6.1869 54.1356 3.81094C51.8142 1.43498 48.6568 0.0674103 45.3417 0.00195313L32.6817 0.00195313ZM45.3417 32.7897C42.0186 32.7893 38.8286 34.1001 36.46 36.4393C34.0915 38.7785 32.7345 41.9584 32.6817 45.2929L32.6817 45.7012C32.7223 48.2048 33.4991 50.6405 34.9146 52.7024C36.3302 54.7644 38.3213 56.3606 40.6379 57.2906C42.9545 58.2206 45.4932 58.4429 47.9353 57.9296C50.3774 57.4163 52.6139 56.1903 54.3639 54.4055C56.1139 52.6208 57.2994 50.3569 57.7714 47.8982C58.2434 45.4395 57.981 42.8956 57.017 40.5861C56.0531 38.2766 54.4306 36.3045 52.3533 34.9173C50.2761 33.5302 47.8368 32.79 45.3417 32.7897ZM12.6698 65.5824C10.1647 65.5814 7.71562 66.326 5.63224 67.7219C3.54887 69.1179 1.92482 71.1026 0.965491 73.4249C0.00616348 75.7472 -0.245345 78.3029 0.242779 80.7687C0.730903 83.2345 1.93673 85.4996 3.70775 87.2776C5.47877 89.0556 7.73543 90.2666 10.1923 90.7574C12.6492 91.2482 15.1959 90.9968 17.5104 90.0349C19.8249 89.0731 21.8032 87.4441 23.195 85.3539C24.5869 83.2636 25.3298 80.8061 25.3298 78.2922L25.3298 65.5824L12.6698 65.5824Z" fill="#EEECE1"/>
</svg>
