<svg width="41" height="40" viewBox="0 0 41 40" fill="none" xmlns="http://www.w3.org/2000/svg">
<path d="M20.4965 0C17.8049 0 15.1396 0.530159 12.6529 1.56021C10.1661 2.59025 7.90658 4.10002 6.0033 6.0033C2.15945 9.84714 0 15.0605 0 20.4965C0 29.556 5.88251 37.2422 14.0196 39.9683C15.0445 40.1322 15.3724 39.4968 15.3724 38.9434V35.4795C9.69486 36.7093 8.48557 32.733 8.48557 32.733C7.54273 30.3554 6.21045 29.72 6.21045 29.72C4.34527 28.4492 6.35393 28.4902 6.35393 28.4902C8.40358 28.6337 9.4899 30.6013 9.4899 30.6013C11.2731 33.7168 14.2861 32.7945 15.4544 32.3025C15.6389 30.9703 16.1718 30.0684 16.7457 29.556C12.1954 29.0436 7.41975 27.2809 7.41975 19.4717C7.41975 17.1966 8.19862 15.3724 9.53089 13.9172C9.32592 13.4047 8.60855 11.2731 9.73586 8.50606C9.73586 8.50606 11.4576 7.95266 15.3724 10.5967C16.9916 10.1458 18.7543 9.92033 20.4965 9.92033C22.2387 9.92033 24.0014 10.1458 25.6207 10.5967C29.5355 7.95266 31.2572 8.50606 31.2572 8.50606C32.3845 11.2731 31.6672 13.4047 31.4622 13.9172C32.7945 15.3724 33.5733 17.1966 33.5733 19.4717C33.5733 27.3014 28.7771 29.0231 24.2064 29.5355C24.9443 30.1709 25.6207 31.4212 25.6207 33.3274V38.9434C25.6207 39.4968 25.9486 40.1527 26.9939 39.9683C35.1311 37.2217 40.9931 29.556 40.9931 20.4965C40.9931 17.8049 40.4629 15.1396 39.4329 12.6529C38.4028 10.1661 36.8931 7.90658 34.9898 6.0033C33.0865 4.10002 30.827 2.59025 28.3402 1.56021C25.8535 0.530159 23.1882 0 20.4965 0Z" fill="#EEECE1"/>
</svg>
