<svg width="100" height="37" viewBox="0 0 100 37" fill="none" xmlns="http://www.w3.org/2000/svg">
<path d="M40.9584 0C44.3626 0.0209751 46.946 0.99841 48.6336 2.90295C50.2294 4.711 50.9961 7.32449 50.9128 10.6637L50.8544 10.9196C50.8015 11.0394 50.715 11.141 50.6054 11.2118C50.4958 11.2827 50.368 11.3196 50.2378 11.3181H43.3251C43.1084 11.3171 42.9006 11.2311 42.7458 11.0784C42.591 10.9257 42.5014 10.7183 42.4959 10.5001C42.5015 8.72702 41.9598 7.7342 40.8709 7.52166L40.3709 7.47551C38.9459 7.47551 38.0209 8.36066 37.9959 9.90442C37.9667 11.6244 38.9334 13.1891 41.6834 15.8739C45.3002 19.2971 46.7544 22.33 46.6835 26.3321C46.571 32.8092 42.1959 37 35.5458 37C32.1499 37 29.554 36.0813 27.8248 34.2774C26.0748 32.4442 25.2748 29.7552 25.4414 26.2817C25.4493 26.1051 25.522 25.9376 25.6456 25.8119C25.7707 25.6901 25.9382 25.6223 26.1123 25.6231H33.2624C33.3617 25.6294 33.4591 25.6536 33.5499 25.6944C33.7142 25.7807 33.8383 25.9283 33.8958 26.1056C33.918 26.1895 33.9208 26.2734 33.9041 26.3573C33.8249 27.6074 34.0458 28.5429 34.5333 29.063C34.7003 29.2366 34.9025 29.3718 35.1261 29.4594C35.3498 29.547 35.5896 29.5849 35.8291 29.5706C37.15 29.5706 37.925 28.6268 37.9542 26.9907C37.9792 25.577 37.5292 24.3311 35.1125 21.8224C31.9832 18.7433 29.179 15.5635 29.2665 10.563C29.2772 9.16331 29.5683 7.78014 30.1225 6.49636C30.6766 5.21258 31.4824 4.05459 32.4916 3.09172C34.6333 1.06973 37.5583 0 40.9584 0ZM16.8621 0.11746C19.9747 0.0922897 22.4205 1.05714 24.1206 2.99104C25.9206 5.03402 26.8331 8.11315 26.8373 12.1446C26.8351 12.3218 26.7633 12.4911 26.6376 12.6152C26.5119 12.7394 26.3426 12.8085 26.1664 12.8074H18.6621C18.5312 12.8013 18.4068 12.7477 18.3121 12.6564C18.222 12.5593 18.1701 12.4325 18.1663 12.2998C18.108 9.68628 17.3829 8.33129 15.9496 8.17188L15.6537 8.1551C12.7787 8.1593 11.0828 12.09 10.1828 14.2714C8.91021 17.3236 8.30483 20.6156 8.40776 23.9242C8.47026 25.4595 8.7161 27.6158 10.1578 28.5093C11.4412 29.3022 13.2704 28.7778 14.3787 27.8968C15.4829 27.0201 16.3746 25.5015 16.7496 24.1171C16.8052 23.9214 16.8065 23.7843 16.7538 23.706C16.726 23.6752 16.6815 23.6543 16.6204 23.6431L14.5204 23.6263C14.4185 23.6233 14.3183 23.5995 14.2259 23.5562C14.1335 23.5129 14.0508 23.4511 13.9829 23.3746C13.929 23.3161 13.8929 23.2433 13.8787 23.1649C13.8565 23.0881 13.8565 23.0066 13.8787 22.9299L15.1954 17.166C15.234 17.0161 15.3175 16.8817 15.4345 16.7811C15.5515 16.6806 15.6964 16.6187 15.8496 16.6039V16.5913H28.4957L28.5832 16.5955C28.9123 16.6374 29.1457 16.9478 29.1415 17.2834V17.3002L27.8248 23.0516C27.754 23.3788 27.429 23.6179 27.0581 23.6179H25.4706C25.4133 23.6183 25.3576 23.6373 25.3118 23.672C25.266 23.7068 25.2326 23.7555 25.2164 23.8109C23.7497 28.8197 21.7622 32.268 19.1413 34.3362C16.9079 36.0981 14.162 36.9203 10.487 36.9203C7.1869 36.9203 4.96186 35.8506 3.07432 33.7405C0.582602 30.9466 -0.446585 26.3824 0.178427 20.8744C1.30345 10.5421 6.62022 0.11746 16.8621 0.11746ZM87.5677 0.671201C95.9429 0.671201 100.126 4.49705 99.9971 12.0439C99.8429 20.887 94.4928 27.3892 86.4385 28.891C85.2912 29.0952 84.1343 29.1903 82.9676 29.1763L79.0758 29.1595C79.0131 29.1616 78.9534 29.1873 78.9086 29.2316C78.8639 29.2759 78.8373 29.3355 78.8342 29.3986C78.8342 29.4406 78.8453 29.4811 78.8675 29.5203C78.8934 29.5542 78.9243 29.5839 78.9592 29.6084L82.2676 31.3451C82.5398 31.4934 82.6454 31.7227 82.5842 32.0331L81.7217 35.9471C81.6509 36.2743 81.3884 36.463 81.0092 36.463H73.9132C73.8116 36.4604 73.7114 36.4391 73.6174 36.4001C73.5263 36.354 73.4444 36.2914 73.3757 36.2155C73.3241 36.1545 73.2877 36.0819 73.2696 36.0038C73.2515 35.9257 73.2522 35.8444 73.2716 35.7667L81.1717 1.19558C81.2509 0.834807 81.5884 0.675396 81.8884 0.675396L87.5677 0.671201ZM71.9715 0.721542C72.049 0.756524 72.1206 0.803208 72.184 0.859977C72.2423 0.924817 72.2901 0.998419 72.3257 1.07812C72.3533 1.15783 72.3687 1.24127 72.3715 1.32562L72.3257 35.7793C72.3385 35.8603 72.3342 35.9432 72.3132 36.0226C72.2891 36.1077 72.2463 36.1862 72.1879 36.2523C72.1294 36.3184 72.0569 36.3704 71.9757 36.4043C71.8923 36.4434 71.8009 36.4621 71.709 36.4588H64.1547C63.9821 36.4586 63.8163 36.3909 63.6922 36.2701C63.6358 36.2062 63.5894 36.1341 63.5547 36.0561C63.5253 35.9753 63.5084 35.8904 63.5047 35.8044L63.6672 32.461C63.6755 32.096 63.6672 31.9954 63.4547 31.9702L63.1714 31.9618H56.0295C55.5129 31.9618 55.4754 32.0079 55.292 32.4862L53.8087 36.0813C53.6753 36.333 53.4087 36.4588 53.0087 36.4588H45.5293C45.0752 36.4588 44.7502 36.0058 44.921 35.5821L60.413 1.18719C60.5171 0.981633 60.6755 0.671201 61.0338 0.671201H71.7257C71.809 0.671201 71.891 0.687982 71.9715 0.721542ZM64.5839 10.0471C64.5506 9.91281 64.4422 9.9254 64.3547 10.1016C64.2926 10.2287 64.237 10.3589 64.188 10.4917L58.8379 23.8444L58.7713 24.0458C58.7657 24.0738 58.7643 24.1003 58.7671 24.1255L58.7963 24.1968C58.8127 24.2185 58.8342 24.2357 58.8588 24.2472C58.8802 24.2609 58.9044 24.2695 58.9296 24.2723L63.3964 24.3311C63.8922 24.2891 63.9172 24.2639 63.9672 23.7564C63.9755 23.576 64.6089 10.2023 64.5839 10.0471ZM83.8009 8.35646C83.7385 8.35843 83.679 8.38387 83.6343 8.42778C83.5891 8.47218 83.5623 8.53212 83.5593 8.59558C83.56 8.63907 83.5718 8.68165 83.5938 8.71914C83.6157 8.75664 83.6468 8.78778 83.6843 8.80952L87.1927 10.6763C87.3677 10.7728 87.3718 10.9406 87.3135 11.23C87.2843 11.3601 85.0635 21.1932 85.0676 21.2016C85.0801 21.2142 85.1468 21.2477 85.4801 21.2477H85.6301C89.3594 21.0967 91.3928 16.6584 91.4678 12.3501C91.5053 10.0219 90.7177 8.59138 89.2886 8.38163L88.9927 8.35646H83.8009Z" fill="black"/>
</svg>
