<svg width="77" height="101" viewBox="0 0 77 101" fill="none" xmlns="http://www.w3.org/2000/svg">
<path d="M9.65723 0.710938L14.1738 0.713353L14.1714 5.17565L18.3039 5.17786L18.3063 0.715562L22.8229 0.717977L22.8157 14.2259L18.2991 14.2235L18.3015 9.70277L14.169 9.70056L14.1666 14.2213L9.65418 14.2189L9.65723 0.710938ZM28.7563 5.20015L24.7824 5.19802L24.7848 0.719026L37.2534 0.725693L37.251 5.20469L33.2729 5.20256L33.268 14.2315L28.7515 14.2291L28.7563 5.20015ZM39.232 0.726751L43.9405 0.729269L46.8349 5.47697L49.7303 0.732365L54.4388 0.734882L54.4316 14.2428L49.9359 14.2404L49.9395 7.54489L46.8313 12.3478L46.752 12.3478L43.6447 7.5457L43.6411 14.2371L39.2247 14.2347L39.232 0.726751ZM56.6846 0.736083L61.2053 0.7385L61.2005 9.78415L67.5454 9.78754L67.543 14.254L56.6774 14.2482L56.6846 0.736083Z" fill="#EEECE1"/>
<path fill-rule="evenodd" clip-rule="evenodd" d="M9.4657 92.8456L0.963867 20.3965L76.1008 20.4367L67.5173 92.8683L38.4476 100.909L9.4657 92.8456ZM26.7559 53.1992L25.9509 44.0989L59.9504 44.117L60.7483 35.2346L16.2505 35.2108L18.6322 62.0819L49.4258 62.0984L48.3886 73.6188L38.4774 76.2934L38.4691 76.2934L28.5775 73.6165L27.9468 66.5325L19.0222 66.5277L20.2586 80.4788L38.4558 85.5394L56.6875 80.4983L58.9216 55.6041L59.1399 53.2207L26.7559 53.1992Z" fill="#EEECE1"/>
</svg>
