<svg width="102" height="102" viewBox="0 0 102 102" fill="none" xmlns="http://www.w3.org/2000/svg">
<path d="M17.2107 0.259766C12.7151 0.259766 8.40349 2.04567 5.22455 5.22461C2.04561 8.40355 0.259705 12.7151 0.259705 17.2108L0.259705 85.015C0.259705 89.5107 2.04561 93.8223 5.22455 97.0012C8.40349 100.18 12.7151 101.966 17.2107 101.966H85.0149C89.5106 101.966 93.8222 100.18 97.0011 97.0012C100.18 93.8223 101.966 89.5107 101.966 85.015V17.2108C101.966 12.7151 100.18 8.40355 97.0011 5.22461C93.8222 2.04567 89.5106 0.259766 85.0149 0.259766L17.2107 0.259766ZM58.6504 74.0251C62.7187 77.3023 66.7794 78.9183 70.8326 78.8731C73.3187 78.8731 75.2248 78.4173 76.5507 77.5057C77.1681 77.1049 77.6704 76.5503 78.0083 75.8964C78.3461 75.2425 78.5078 74.5118 78.4775 73.7764C78.4861 72.9743 78.3185 72.18 77.9865 71.4498C77.6546 70.7195 77.1664 70.0709 76.5564 69.55C75.2304 68.3935 72.7217 67.2333 69.0301 66.0694C64.5965 64.7886 61.178 63.1312 58.7747 61.0971C56.4166 59.0629 55.215 56.2246 55.1698 52.582C55.1698 49.1428 56.6615 46.263 59.6449 43.9426C62.5454 41.6222 66.2558 40.462 70.7761 40.462C77.0743 40.462 82.1276 41.9951 85.9359 45.0614L81.5852 51.8361C80.0185 50.6181 78.2214 49.7301 76.3021 49.2257C74.5774 48.6478 72.7754 48.3335 70.9569 48.2934C68.8097 48.2934 67.0901 48.687 65.7981 49.4743C64.5173 50.2653 63.877 51.3012 63.877 52.582C63.877 53.9908 64.6624 55.1925 66.2332 56.1869C67.8153 57.1437 70.5086 58.2003 74.3132 59.3568C78.9126 60.7241 82.186 62.5473 84.1335 64.8263C86.081 67.1053 87.0547 70.0058 87.0547 73.5278C87.0547 77.1328 85.6666 80.2405 82.8904 82.8509C80.1556 85.4199 76.1778 86.7666 70.9569 86.8909C64.1199 86.8909 58.4018 84.8398 53.8024 80.7377L58.6504 74.0251ZM27.404 77.63C28.7299 78.4587 30.3252 78.8731 32.1898 78.8731C34.1373 78.8731 35.7533 78.3137 37.0378 77.1949C38.3186 76.0347 38.9608 74.0251 38.9646 71.166L38.9646 41.2078H47.3554L47.3554 72.782C47.231 77.6714 45.8222 81.1935 43.1289 83.3481C41.6552 84.5941 39.9418 85.5248 38.0944 86.0829C36.3813 86.6045 34.602 86.8767 32.8114 86.8909C29.7037 86.8909 26.9482 86.3522 24.5449 85.2749C21.9759 84.1185 19.8212 82.0674 18.0809 79.1217L23.9234 74.3358C24.9969 75.7861 26.1571 76.8841 27.404 77.63Z" fill="#EEECE1"/>
</svg>
