<svg width="40" height="40" viewBox="0 0 40 40" fill="none" xmlns="http://www.w3.org/2000/svg">
<path fill-rule="evenodd" clip-rule="evenodd" d="M5 3.5C4.60218 3.5 4.22064 3.65804 3.93934 3.93934C3.65804 4.22064 3.5 4.60218 3.5 5V35C3.5 35.3978 3.65803 35.7794 3.93934 36.0607C4.22065 36.342 4.60218 36.5 5 36.5H35C35.3978 36.5 35.7794 36.342 36.0607 36.0607C36.342 35.7794 36.5 35.3978 36.5 35V25.474C36.5 24.6456 37.1716 23.974 38 23.974C38.8284 23.974 39.5 24.6456 39.5 25.474V35C39.5 36.1935 39.0259 37.3381 38.182 38.182C37.3381 39.0259 36.1935 39.5 35 39.5H5C3.80652 39.5 2.66193 39.0259 1.81802 38.182C0.974107 37.3381 0.5 36.1935 0.5 35V5C0.5 3.80653 0.974106 2.66193 1.81802 1.81802C2.66193 0.974106 3.80653 0.5 5 0.5H14C14.8284 0.5 15.5 1.17157 15.5 2C15.5 2.82843 14.8284 3.5 14 3.5H5ZM22.5 2C22.5 1.17157 23.1716 0.5 24 0.5H38C38.8284 0.5 39.5 1.17157 39.5 2V16C39.5 16.8284 38.8284 17.5 38 17.5C37.1716 17.5 36.5 16.8284 36.5 16V5.62132L22.8607 19.2607C22.2749 19.8464 21.3251 19.8464 20.7393 19.2607C20.1536 18.6749 20.1536 17.7251 20.7393 17.1393L34.3787 3.5H24C23.1716 3.5 22.5 2.82843 22.5 2Z" fill="black"/>
</svg>
