<svg width="18" height="21" viewBox="0 0 18 21" fill="none" xmlns="http://www.w3.org/2000/svg">
<path d="M9 0C8.73 0 8.45 0.0699999 8.22 0.2L0.78 4.5C0.3 4.78 0 5.3 0 5.86V14.44C0 15 0.3 15.52 0.78 15.8L2.73 16.92C3.68 17.38 4 17.39 4.44 17.39C5.84 17.39 6.65 16.54 6.65 15.06V6.59C6.65 6.47 6.55 6.37 6.43 6.37H5.5C5.37 6.37 5.27 6.47 5.27 6.59V15.06C5.27 15.72 4.59 16.37 3.5 15.82L1.45 14.65C1.41633 14.6262 1.3888 14.5948 1.36967 14.5583C1.35055 14.5218 1.34038 14.4812 1.34 14.44V5.86C1.34 5.77 1.38 5.69 1.45 5.65L8.89 1.36C8.95 1.32 9.05 1.32 9.11 1.36L16.55 5.65C16.62 5.69 16.66 5.77 16.66 5.86V14.44C16.66 14.52 16.62 14.6 16.55 14.65L9.11 18.94C9.05 18.98 8.95 18.98 8.88 18.94L7 17.8C6.92 17.77 6.84 17.76 6.79 17.79C6.26 18.09 6.16 18.15 5.67 18.3C5.55 18.34 5.36 18.41 5.74 18.62L8.22 20.09C8.46 20.23 8.72 20.3 9 20.3C9.28 20.3 9.54 20.23 9.78 20.09L17.22 15.8C17.7 15.52 18 15 18 14.44V5.86C18 5.3 17.7 4.78 17.22 4.5L9.78 0.2C9.55 0.0699999 9.28 0 9 0ZM11 6.15C8.88 6.15 7.61 7.04 7.61 8.54C7.61 10.15 8.87 10.62 10.91 10.82C13.34 11.06 13.53 11.42 13.53 11.9C13.53 12.73 12.86 13.08 11.3 13.08C9.32 13.08 8.9 12.59 8.75 11.61C8.73947 11.5593 8.71188 11.5138 8.67184 11.4811C8.6318 11.4483 8.58173 11.4303 8.53 11.43H7.57C7.45 11.43 7.36 11.52 7.36 11.65C7.36 12.89 8.04 14.39 11.3 14.39C13.65 14.39 15 13.46 15 11.84C15 10.23 13.92 9.81 11.63 9.5C9.32 9.2 9.09 9.04 9.09 8.5C9.09 8.05 9.29 7.45 11 7.45C12.5 7.45 13.09 7.78 13.32 8.81C13.34 8.91 13.43 8.98 13.53 8.98H14.5C14.55 8.98 14.61 8.96 14.65 8.91C14.69 8.87 14.72 8.81 14.7 8.75C14.56 6.97 13.38 6.15 11 6.15Z" fill="black"/>
</svg>
