<svg width="106" height="56" viewBox="0 0 106 56" fill="none" xmlns="http://www.w3.org/2000/svg">
<path d="M53 2.79696C81.3881 2.79696 103.218 14.8088 103.218 28.002C103.218 41.1951 81.3716 53.2069 53 53.2069C24.6119 53.2069 2.7825 41.1951 2.7825 28.002C2.7825 14.8088 24.6284 2.79696 53 2.79696ZM53 0.00195313C23.7341 0.00195313 -3.99263e-10 12.5296 -8.92375e-10 28.002C-1.38549e-09 43.4743 23.7341 56.002 53 56.002C82.2659 56.002 106 43.4743 106 28.002C106 12.5296 82.2659 0.00195313 53 0.00195313ZM36.1394 25.756C34.8309 32.4939 30.21 31.7952 24.5291 31.7952L26.7981 20.0495C33.0919 20.0495 37.365 19.3674 36.1394 25.756ZM16.1319 43.6906L22.2103 43.6906L23.6513 36.2373C30.4584 36.2373 34.6819 36.7364 38.5906 33.0596C42.9134 29.0667 44.0397 21.9627 40.9591 18.4024C39.3525 16.5391 36.7688 15.6241 33.2575 15.6241L21.5478 15.6241L16.1319 43.6906ZM46.8884 8.15406L52.9338 8.15406L51.4928 15.6074C56.71 15.6074 61.5463 15.2248 63.8816 17.3876C66.3328 19.6502 65.1569 22.545 62.5069 36.204L56.3787 36.204C58.9294 22.9942 59.4097 21.8962 58.4822 20.898C57.5878 19.933 55.5506 20.1327 50.6316 20.1327L47.5178 36.204L41.4725 36.204L46.8884 8.15406ZM83.6406 25.756C82.3156 32.5938 77.5622 31.7952 72.0303 31.7952L74.2994 20.0495C80.6263 20.0495 84.8663 19.3674 83.6406 25.756ZM63.6331 43.6906L69.7281 43.6906L71.1691 36.2373C78.3241 36.2373 82.2825 36.6532 86.1084 33.0596C90.4313 29.0667 91.5575 21.9627 88.4769 18.4024C86.8703 16.5391 84.2866 15.6241 80.7753 15.6241L69.0656 15.6241L63.6331 43.6906Z" fill="#EEECE1"/>
</svg>
