<svg width="138" height="138" viewBox="0 0 138 138" fill="none" xmlns="http://www.w3.org/2000/svg">
<path d="M92.8553 66.7812L92.8548 66.7809L57.8784 44.3059C57.8783 44.3058 57.8783 44.3058 57.8783 44.3058C57.4803 44.0505 57.021 43.9069 56.5484 43.8901C56.0758 43.8733 55.6074 43.9839 55.1923 44.2103C54.7772 44.4368 54.4306 44.7707 54.1888 45.1771C53.9472 45.5834 53.8192 46.0473 53.8184 46.52V91.4825V91.4883C53.8192 91.9611 53.9472 92.4249 54.1888 92.8312C54.4306 93.2376 54.7771 93.5715 55.1923 93.798C55.6074 94.0244 56.0758 94.135 56.5484 94.1182C57.0209 94.1014 57.4801 93.9579 57.878 93.7027L92.8553 66.7812ZM92.8553 66.7812C93.2276 67.0197 93.5339 67.348 93.7461 67.736C93.9583 68.1239 94.0695 68.5589 94.0695 69.001C94.0695 69.4432 93.9583 69.8782 93.7461 70.2661C93.5339 70.654 93.2276 70.9823 92.8553 71.2208L92.8547 71.2212L57.8784 93.7025L92.8553 66.7812Z" fill="#EEECE1" stroke="#7D7C7A"/>
<path d="M0.5 69C0.5 31.1693 31.1693 0.5 69 0.5C106.831 0.5 137.5 31.1693 137.5 69C137.5 106.831 106.831 137.5 69 137.5C31.1693 137.5 0.5 106.831 0.5 69ZM69 8.90909C53.0629 8.90909 37.7785 15.2401 26.5093 26.5093C15.2401 37.7785 8.90909 53.0629 8.90909 69C8.90909 84.9371 15.2401 100.221 26.5093 111.491C37.7785 122.76 53.0629 129.091 69 129.091C84.9371 129.091 100.221 122.76 111.491 111.491C122.76 100.221 129.091 84.9371 129.091 69C129.091 53.0629 122.76 37.7785 111.491 26.5093C100.221 15.2401 84.9371 8.90909 69 8.90909Z" fill="#EEECE1" stroke="#7D7C7A"/>
</svg>
