<svg width="88" height="88" viewBox="0 0 88 88" fill="none" xmlns="http://www.w3.org/2000/svg">
<path d="M44 0C55.6695 0 66.8611 4.6357 75.1127 12.8873C83.3643 21.1389 88 32.3305 88 44C88 55.6695 83.3643 66.8611 75.1127 75.1127C66.8611 83.3643 55.6695 88 44 88C32.3305 88 21.1389 83.3643 12.8873 75.1127C4.6357 66.8611 0 55.6695 0 44C0 32.3305 4.6357 21.1389 12.8873 12.8873C21.1389 4.6357 32.3305 0 44 0ZM8.25 44C8.25 53.4815 12.0165 62.5746 18.7209 69.2791C25.4254 75.9835 34.5185 79.75 44 79.75C53.4815 79.75 62.5746 75.9835 69.2791 69.2791C75.9835 62.5746 79.75 53.4815 79.75 44C79.75 34.5185 75.9835 25.4254 69.2791 18.7209C62.5746 12.0165 53.4815 8.25 44 8.25C34.5185 8.25 25.4254 12.0165 18.7209 18.7209C12.0165 25.4254 8.25 34.5185 8.25 44ZM35.0845 28.7485L58.5365 42.823C58.7392 42.9454 58.9068 43.1181 59.0232 43.3243C59.1395 43.5305 59.2007 43.7632 59.2007 44C59.2007 44.2368 59.1395 44.4695 59.0232 44.6757C58.9068 44.8819 58.7392 45.0546 58.5365 45.177L35.0845 59.2515C34.876 59.3771 34.6378 59.4451 34.3944 59.4486C34.1509 59.452 33.9109 59.3907 33.6989 59.271C33.4869 59.1513 33.3105 58.9775 33.1877 58.7672C33.0649 58.557 33.0001 58.318 33 58.0745V29.931C32.9992 29.6871 33.0632 29.4473 33.1856 29.2363C33.308 29.0253 33.4844 28.8507 33.6965 28.7303C33.9087 28.61 34.1491 28.5482 34.393 28.5514C34.6369 28.5546 34.8756 28.6226 35.0845 28.7485Z" fill="white"/>
</svg>
