<svg width="24" height="24" viewBox="0 0 24 24" fill="none" xmlns="http://www.w3.org/2000/svg">
<path d="M24 12.7143C24 13.2666 23.5523 13.7143 23 13.7143H14.7143C14.162 13.7143 13.7143 14.162 13.7143 14.7143V23C13.7143 23.5523 13.2666 24 12.7143 24H11.2857C10.7334 24 10.2857 23.5523 10.2857 23V14.7143C10.2857 14.162 9.838 13.7143 9.28572 13.7143H1C0.447716 13.7143 0 13.2666 0 12.7143V11.2857C0 10.7334 0.447715 10.2857 1 10.2857H9.28571C9.838 10.2857 10.2857 9.838 10.2857 9.28572V1C10.2857 0.447716 10.7334 0 11.2857 0H12.7143C13.2666 0 13.7143 0.447715 13.7143 1V9.28571C13.7143 9.838 14.162 10.2857 14.7143 10.2857H23C23.5523 10.2857 24 10.7334 24 11.2857V12.7143Z" fill="#E9632E"/>
</svg>
