<svg width="48" height="50" viewBox="0 0 48 50" fill="none" xmlns="http://www.w3.org/2000/svg">
<path fill-rule="evenodd" clip-rule="evenodd" d="M0.167725 17.2089C0.167725 25.0104 12.3588 49.9398 23.9261 49.9398C35.4936 49.9398 47.7253 26.1129 47.7253 16.3097C47.7253 10.1114 42.0041 0.0810547 23.8578 0.0810547C5.7118 0.0810547 0.167725 11.1613 0.167725 17.2089ZM15.5543 18.9547C11.2211 14.241 8.5318 9.46288 8.5318 9.46288C8.5318 9.46288 12.9628 7.23959 15.8575 6.64589C16.1041 6.59538 16.3556 6.54115 16.6133 6.486C19.3798 5.89229 22.8213 5.15419 27.7839 6.94956C38.1091 10.6853 42.5115 17.6728 42.5115 17.6728C42.5115 17.6728 35.8669 12.2808 28.5501 11.1981C24.3353 10.5744 16.4955 13.1044 16.4955 13.1044C16.4955 13.1044 19.2205 16.011 21.4385 20.2667C21.7881 20.9375 22.1288 21.5517 22.455 22.1398C24.1979 25.2809 25.522 27.6672 25.522 33.8931C25.522 38.4354 22.1149 45.1855 22.1149 45.1855C22.1149 45.1855 24.0285 36.3906 22.4852 29.4366C21.3699 24.4096 20.5095 23.6362 18.4816 21.8129C17.7043 21.1142 16.7551 20.2611 15.5543 18.9547Z" fill="#EEECE1"/>
</svg>
