<svg width="102" height="102" viewBox="0 0 102 102" fill="none" xmlns="http://www.w3.org/2000/svg">
<path d="M51.1118 0.259766C23.0917 0.259766 0.258667 23.0928 0.258667 51.1129C0.258667 79.133 23.0917 101.966 51.1118 101.966C79.1319 101.966 101.965 79.133 101.965 51.1129C101.965 23.0928 79.1319 0.259766 51.1118 0.259766ZM5.39483 51.1129C5.39483 44.502 6.81872 38.1962 9.36138 32.5007L31.1774 92.2531C15.9214 84.8285 5.39483 69.2166 5.39483 51.1129ZM51.1118 96.8299C46.6367 96.8299 42.3142 96.1688 38.1951 94.9483L51.9255 55.0794L65.9609 93.5753C66.0626 93.7787 66.1643 94.0329 66.266 94.1855C61.5367 95.9145 56.4514 96.8299 51.1118 96.8299ZM57.4176 29.6529C60.1637 29.5003 62.6555 29.1952 62.6555 29.1952C65.0964 28.8901 64.8422 25.2795 62.3503 25.4321C62.3503 25.4321 54.9258 25.9915 50.1456 25.9915C45.6705 25.9915 38.0934 25.4321 38.0934 25.4321C35.6524 25.3304 35.3473 29.0935 37.8391 29.2461C37.8391 29.2461 40.1784 29.5512 42.6193 29.7037L49.7388 49.2313L39.7207 79.2347L23.0917 29.6529C25.8378 29.5512 28.3296 29.2461 28.3296 29.2461C30.7705 28.9409 30.5163 25.3304 28.0245 25.4829C28.0245 25.4829 20.5999 26.0423 15.8197 26.0423C14.9552 26.0423 13.9382 26.0423 12.8702 25.9915C21.1085 13.5833 35.1439 5.39593 51.1118 5.39593C63.0114 5.39593 73.8432 9.92186 81.9797 17.3973C81.7762 17.3973 81.5728 17.3464 81.3694 17.3464C76.8943 17.3464 73.6906 21.2621 73.6906 25.4829C73.6906 29.2461 75.8773 32.4498 78.1657 36.2129C79.8947 39.2641 81.9288 43.1798 81.9288 48.8245C81.9288 52.7402 80.4032 57.2661 78.4708 63.6228L73.894 78.8787L57.4176 29.6529ZM91.2349 29.1952C96.9442 39.6493 98.3478 51.9189 95.147 63.3923C91.9462 74.8657 84.3938 84.6368 74.0974 90.6258L88.082 50.2484C90.6755 43.7392 91.54 38.5013 91.54 33.8737C91.54 32.1955 91.4383 30.6191 91.2349 29.1952Z" fill="#EEECE1"/>
</svg>
