<svg width="58" height="40" viewBox="0 0 58 40" fill="none" xmlns="http://www.w3.org/2000/svg">
<path d="M22.8571 28.5714L37.6857 20L22.8571 11.4286V28.5714ZM55.8857 6.2C56.2571 7.54286 56.5143 9.34286 56.6857 11.6286C56.8857 13.9143 56.9714 15.8857 56.9714 17.6L57.1429 20C57.1429 26.2571 56.6857 30.8571 55.8857 33.8C55.1714 36.3714 53.5143 38.0286 50.9429 38.7429C49.6 39.1143 47.1429 39.3714 43.3714 39.5429C39.6571 39.7429 36.2571 39.8286 33.1143 39.8286L28.5714 40C16.6 40 9.14286 39.5429 6.2 38.7429C3.62857 38.0286 1.97143 36.3714 1.25714 33.8C0.885714 32.4571 0.628572 30.6571 0.457143 28.3714C0.257143 26.0857 0.171428 24.1143 0.171428 22.4L0 20C0 13.7429 0.457143 9.14286 1.25714 6.2C1.97143 3.62857 3.62857 1.97143 6.2 1.25714C7.54286 0.885714 10 0.628571 13.7714 0.457142C17.4857 0.257142 20.8857 0.171428 24.0286 0.171428L28.5714 0C40.5429 0 48 0.457143 50.9429 1.25714C53.5143 1.97143 55.1714 3.62857 55.8857 6.2Z" fill="#EEECE1"/>
</svg>
