<svg width="37" height="24" viewBox="0 0 37 24" fill="none" xmlns="http://www.w3.org/2000/svg">
<path d="M15.0606 17.1429L24.5119 12L15.0606 6.85714V17.1429ZM36.1122 3.72C36.3489 4.52571 36.5128 5.60571 36.6221 6.97714C36.7496 8.34857 36.8042 9.53143 36.8042 10.56L36.9135 12C36.9135 15.7543 36.6221 18.5143 36.1122 20.28C35.6569 21.8229 34.6007 22.8171 32.9617 23.2457C32.1058 23.4686 30.5397 23.6229 28.1359 23.7257C25.7685 23.8457 23.6014 23.8971 21.5982 23.8971L18.7027 24C11.0724 24 6.31939 23.7257 4.44368 23.2457C2.80471 22.8171 1.74849 21.8229 1.29322 20.28C1.05648 19.4743 0.89258 18.3943 0.783316 17.0229C0.65584 15.6514 0.601208 14.4686 0.601208 13.44L0.491943 12C0.491943 8.24571 0.783316 5.48571 1.29322 3.72C1.74849 2.17714 2.80471 1.18286 4.44368 0.754286C5.29959 0.531429 6.86571 0.377143 9.26954 0.274285C11.6369 0.154285 13.804 0.102857 15.8072 0.102857L18.7027 0C26.333 0 31.086 0.274286 32.9617 0.754286C34.6007 1.18286 35.6569 2.17714 36.1122 3.72Z" fill="#3458A4"/>
</svg>
