<?xml version="1.0" standalone="no"?>
<!DOCTYPE svg PUBLIC "-//W3C//DTD SVG 20010904//EN"
 "http://www.w3.org/TR/2001/REC-SVG-20010904/DTD/svg10.dtd">
<svg version="1.0" xmlns="http://www.w3.org/2000/svg"
 width="1072.000000pt" height="1072.000000pt" viewBox="0 0 1072.000000 1072.000000"
 preserveAspectRatio="xMidYMid meet">
<metadata>
Created by potrace 1.14, written by Peter Selinger 2001-2017
</metadata>
<g transform="translate(0.000000,1072.000000) scale(0.100000,-0.100000)"
fill="#000000" stroke="none">
<path d="M4890 10145 c-104 -11 -170 -20 -240 -31 -14 -3 -38 -6 -55 -9 -42
-6 -58 -10 -70 -16 -5 -4 -18 -5 -27 -4 -10 2 -18 -1 -18 -6 0 -6 -4 -8 -9 -5
-14 9 -342 -81 -441 -121 -8 -4 -17 -7 -20 -8 -21 -5 -62 -21 -100 -38 -25
-11 -49 -21 -55 -22 -5 -2 -34 -14 -64 -29 -30 -14 -59 -26 -65 -26 -5 0 -17
-6 -25 -13 -9 -7 -41 -24 -71 -37 -30 -14 -57 -27 -60 -30 -3 -3 -18 -12 -35
-20 -16 -8 -58 -32 -93 -52 -34 -21 -64 -38 -66 -38 -7 0 -228 -151 -291 -198
-275 -207 -535 -469 -733 -737 -28 -38 -55 -74 -59 -80 -5 -5 -28 -41 -53 -80
-24 -38 -47 -72 -51 -75 -3 -3 -19 -30 -36 -60 -16 -30 -43 -77 -60 -105 -58
-98 -220 -445 -207 -445 2 0 -3 -15 -13 -32 -9 -18 -18 -40 -19 -48 -1 -8 -11
-40 -23 -70 -20 -55 -76 -243 -85 -290 -3 -14 -14 -69 -25 -123 -18 -86 -45
-251 -53 -330 l-3 -27 -36 32 c-20 18 -88 81 -150 139 -144 135 -162 152 -239
219 -35 30 -68 60 -74 65 -65 60 -336 255 -354 255 -6 0 -12 4 -14 8 -2 5 -46
29 -99 55 -232 113 -409 102 -518 -29 -29 -36 -37 -50 -76 -136 -26 -60 -58
-223 -71 -363 -2 -27 -6 -63 -9 -80 -13 -84 -20 -257 -20 -510 1 -300 5 -384
31 -620 4 -33 8 -71 9 -85 2 -14 4 -25 5 -25 1 0 3 -13 5 -30 15 -112 17 -127
50 -290 13 -66 34 -156 46 -200 11 -44 22 -92 22 -107 1 -16 5 -28 8 -28 6 0
12 -21 25 -81 9 -41 110 -336 150 -439 79 -201 125 -302 226 -500 65 -125 78
-158 69 -172 -11 -19 -52 -135 -71 -203 -18 -65 -59 -299 -54 -307 3 -5 1 -8
-3 -8 -10 0 -9 -412 0 -470 3 -19 9 -57 12 -85 8 -61 13 -90 15 -90 1 0 3 -9
5 -20 4 -23 7 -37 29 -123 14 -53 42 -136 76 -227 4 -11 8 -24 8 -29 0 -5 4
-12 9 -15 4 -3 21 -32 37 -64 27 -54 105 -181 132 -217 107 -137 250 -283 343
-350 58 -41 91 -21 159 98 23 41 42 75 42 77 0 2 16 38 36 82 19 43 39 87 44
98 15 34 72 218 77 250 3 17 9 38 15 48 5 10 8 21 5 23 -3 3 -1 22 4 42 16 72
28 187 31 289 0 29 2 53 3 53 1 0 13 -9 26 -20 13 -11 29 -23 34 -28 83 -67
338 -233 490 -318 55 -31 70 -45 72 -64 5 -90 21 -227 29 -252 5 -16 8 -32 20
-93 14 -71 57 -214 84 -280 19 -48 115 -250 121 -255 3 -3 8 -12 12 -22 8 -23
133 -204 176 -256 44 -54 194 -206 241 -247 91 -77 239 -185 255 -185 3 0 15
-9 27 -20 12 -10 25 -17 29 -14 4 2 11 0 14 -6 6 -9 121 -67 215 -107 19 -8
44 -19 55 -24 67 -28 99 -12 123 64 25 80 38 135 62 267 46 258 55 554 24 795
-3 22 -7 54 -8 70 -4 32 -21 134 -26 160 -6 27 1 34 33 30 51 -8 363 -7 467 1
52 4 119 7 147 8 29 1 53 5 53 9 0 5 3 6 8 3 4 -2 28 0 53 4 26 5 68 11 95 14
27 3 59 7 70 10 19 4 54 10 119 21 11 2 31 6 45 10 14 3 36 7 50 10 45 8 316
80 350 93 8 3 18 6 23 7 4 2 9 4 12 5 3 1 10 4 15 5 6 1 11 3 13 5 1 1 10 3
20 5 10 2 26 7 35 11 9 4 22 8 29 10 14 2 165 60 208 79 17 7 80 35 140 61
150 66 357 172 470 242 28 17 63 39 79 48 58 33 271 176 274 185 2 5 8 9 13 9
6 0 15 5 22 10 7 6 50 40 97 76 95 73 101 78 185 149 194 163 509 484 620 633
6 7 20 23 33 34 12 12 22 27 22 34 0 7 4 14 8 16 5 1 44 50 86 108 43 58 83
112 89 120 23 30 127 190 127 196 0 3 10 20 23 37 12 18 27 41 33 52 91 161
134 239 154 280 14 28 28 52 33 53 4 2 7 8 7 13 0 6 13 38 30 72 16 34 51 112
78 172 27 61 54 109 60 108 43 -10 146 -15 332 -17 229 -3 370 8 545 45 55 11
111 22 125 25 113 21 419 137 565 213 92 48 236 131 245 141 3 3 25 18 50 35
40 26 141 104 210 160 35 29 210 196 234 224 12 13 30 34 42 45 76 78 20 156
-85 120 -24 -8 -71 -11 -132 -9 -89 4 -113 7 -184 19 -16 3 -48 7 -71 11 -33
4 -178 39 -254 59 -112 31 -285 102 -371 153 -46 27 -157 108 -240 175 -81 66
-270 151 -298 134 -5 -4 -12 -3 -15 2 -3 5 -26 8 -51 7 -36 -2 -48 2 -56 16
-7 13 -6 19 1 19 6 0 9 4 6 8 -3 5 -7 58 -10 118 -9 165 -30 344 -56 459 -5
22 -12 56 -15 75 -3 19 -10 51 -15 70 -5 19 -11 46 -14 60 -2 14 -5 25 -6 25
-1 0 -3 8 -6 18 -2 9 -6 25 -8 35 -3 9 -5 17 -6 17 -1 0 -3 10 -6 23 -5 30
-72 231 -85 257 -6 12 -11 27 -13 35 -3 16 -30 81 -48 118 -10 19 -9 25 2 33
12 9 12 10 1 7 -10 -3 -38 43 -87 141 -100 199 -116 228 -213 376 -45 70 -170
246 -181 255 -3 3 -35 41 -70 85 -100 123 -377 398 -482 477 -20 15 -42 34
-50 41 -17 16 -204 150 -280 200 -89 59 -298 177 -298 169 0 -4 -4 -2 -8 3 -7
10 -228 113 -322 150 -25 9 -54 21 -65 26 -70 29 -381 122 -450 134 -23 4 -58
11 -135 27 -30 6 -66 12 -80 14 -293 36 -353 41 -565 41 -126 0 -282 -5 -345
-12z m-4380 -2670 c41 -8 184 -56 195 -66 5 -5 15 -9 22 -9 17 0 233 -107 254
-126 9 -8 19 -11 22 -7 4 3 7 1 7 -5 0 -7 5 -12 11 -12 13 0 223 -140 227
-151 2 -5 10 -9 18 -9 8 0 14 -4 14 -10 0 -5 6 -10 14 -10 8 0 16 -4 18 -8 2
-5 28 -28 58 -51 90 -70 167 -140 279 -250 104 -101 282 -269 331 -311 14 -12
50 -43 80 -70 30 -27 68 -59 85 -72 16 -12 48 -40 70 -60 22 -21 43 -38 47
-38 4 0 15 -8 25 -18 10 -11 54 -47 98 -82 44 -34 82 -66 83 -71 2 -5 9 -9 15
-9 6 0 22 -11 36 -24 30 -27 351 -267 456 -341 39 -27 72 -51 75 -54 9 -10
270 -181 276 -181 3 0 27 -14 52 -32 89 -60 101 -68 106 -68 9 0 151 -85 158
-94 4 -6 8 -8 8 -4 0 4 21 -5 48 -20 112 -66 415 -207 582 -271 47 -18 94 -37
105 -41 63 -26 134 -48 139 -43 3 4 6 2 6 -4 0 -5 6 -10 13 -11 6 0 66 -17
132 -37 66 -19 129 -38 140 -40 11 -3 58 -14 105 -25 47 -11 96 -23 110 -26
94 -18 130 -24 165 -29 22 -2 49 -6 60 -9 21 -4 95 -13 180 -22 28 -3 86 -7
131 -8 44 -2 86 -6 92 -10 7 -4 12 -3 12 2 0 6 14 7 33 3 17 -4 41 -6 52 -4
11 1 54 5 94 7 102 7 189 15 231 21 19 3 53 7 75 10 51 7 77 11 145 24 113 22
215 47 227 54 5 3 21 8 36 11 15 2 73 19 129 37 57 18 105 34 108 34 3 1 14 5
25 10 11 4 72 28 135 53 63 24 145 60 183 78 37 18 67 29 67 26 0 -4 4 -2 8 3
4 6 34 24 67 40 136 67 408 233 508 309 29 22 37 35 37 61 0 19 -8 39 -20 50
-11 10 -20 24 -20 31 0 7 -4 14 -8 16 -30 12 -309 488 -286 488 4 0 0 7 -7 16
-7 9 -19 30 -25 48 -53 145 -96 264 -99 276 -2 8 -8 27 -14 43 -6 15 -8 27 -6
27 2 0 0 11 -5 25 -5 14 -12 36 -14 48 -3 12 -8 33 -11 47 -3 14 -7 36 -9 50
-2 14 -7 36 -10 50 -8 34 -15 76 -21 130 -3 25 -8 54 -10 65 -12 60 -20 284
-16 465 l1 55 103 -106 c217 -223 415 -361 609 -424 29 -10 59 -23 67 -29 8
-6 16 -10 17 -9 13 9 121 -64 160 -108 46 -51 96 -150 109 -216 3 -15 10 -55
15 -88 12 -78 52 -110 100 -80 36 23 58 36 110 61 80 39 88 42 160 59 88 20
254 13 337 -14 70 -23 166 -69 171 -82 2 -5 7 -7 11 -4 4 2 41 -26 81 -63 91
-83 192 -165 228 -183 15 -8 47 -25 72 -40 25 -14 47 -26 50 -27 10 -2 66 -23
85 -32 21 -10 117 -38 155 -45 95 -18 313 -25 404 -13 l40 6 -35 -32 c-20 -17
-60 -51 -89 -76 -29 -25 -57 -49 -64 -55 -77 -68 -369 -259 -408 -267 -7 -2
-15 -6 -18 -9 -11 -12 -182 -89 -255 -115 -27 -9 -56 -22 -62 -27 -7 -5 -13
-7 -13 -4 0 3 -16 -1 -35 -9 -19 -8 -38 -15 -42 -15 -5 -1 -12 -3 -18 -5 -36
-11 -125 -34 -150 -39 -124 -25 -245 -45 -307 -51 -88 -9 -455 -10 -518 -1
-25 3 -79 9 -120 12 -84 8 -94 2 -120 -65 -13 -32 -38 -93 -77 -180 -88 -198
-270 -534 -350 -647 -13 -17 -23 -36 -23 -42 0 -7 -7 -14 -15 -17 -8 -4 -15
-10 -15 -15 0 -10 -35 -63 -57 -87 -7 -7 -13 -17 -13 -22 0 -5 -6 -15 -13 -22
-7 -7 -50 -64 -96 -125 -46 -62 -88 -113 -93 -113 -4 0 -8 -5 -8 -10 0 -6 -10
-21 -22 -34 -13 -13 -45 -50 -73 -82 -128 -149 -323 -344 -480 -479 -88 -76
-91 -78 -121 -103 -30 -23 -46 -36 -143 -109 -31 -23 -60 -46 -66 -51 -41 -33
-351 -232 -362 -232 -2 0 -11 -7 -20 -15 -8 -8 -19 -13 -24 -10 -5 4 -9 1 -9
-4 0 -6 -6 -11 -14 -11 -8 0 -16 -4 -18 -8 -3 -9 -292 -155 -368 -186 -25 -10
-65 -28 -89 -38 -25 -11 -61 -26 -80 -33 -20 -7 -49 -19 -66 -26 -16 -6 -34
-13 -40 -15 -5 -1 -64 -20 -130 -42 -104 -35 -159 -52 -225 -69 -8 -2 -25 -6
-37 -8 -12 -2 -26 -6 -31 -9 -5 -3 -24 -8 -43 -11 -40 -8 -62 -13 -69 -15 -3
-1 -8 -2 -11 -2 -3 0 -23 -3 -45 -9 -21 -5 -55 -11 -74 -15 -19 -3 -71 -11
-115 -19 -99 -17 -188 -27 -365 -41 -143 -10 -504 -5 -570 9 -23 5 -68 -16
-77 -35 -9 -21 -9 -32 2 -83 2 -11 7 -35 9 -53 3 -17 8 -44 12 -60 3 -15 7
-37 9 -49 2 -12 6 -34 9 -50 6 -28 16 -121 22 -203 9 -121 4 -356 -11 -485 -6
-50 -30 -195 -41 -245 -3 -14 -7 -35 -10 -47 -7 -35 -23 -73 -30 -73 -28 0
-337 174 -407 230 -152 119 -276 245 -375 378 -68 91 -142 215 -186 307 -47
101 -116 298 -132 378 -2 10 -5 26 -8 35 -16 56 -40 260 -38 332 0 25 4 77 7
115 11 114 13 138 14 177 1 25 9 46 26 64 30 32 31 53 6 85 -16 21 -19 49 -25
239 -3 118 -8 226 -10 240 -3 14 -8 54 -11 90 -5 72 -11 126 -20 177 -3 19 -7
53 -10 76 -3 23 -8 53 -10 67 -21 97 -27 129 -32 155 -5 27 -47 195 -73 290
-22 80 -60 186 -90 248 -16 35 -30 69 -30 75 0 7 -3 12 -8 12 -4 0 -18 21 -32
48 -14 26 -28 52 -33 57 -4 6 -24 33 -44 60 -56 74 -62 82 -138 159 -105 106
-212 187 -343 257 -101 55 -176 110 -237 177 -54 58 -174 221 -175 236 0 5 -6
17 -14 25 -32 37 -230 455 -241 508 -2 10 -12 38 -22 63 -18 42 -102 280 -108
304 -1 6 -5 18 -8 26 -8 19 -116 378 -122 405 -2 11 -11 45 -20 75 -9 30 -18
64 -20 75 -3 11 -19 74 -36 140 -17 66 -33 131 -35 145 -3 14 -8 34 -11 45 -4
11 -8 26 -9 34 -2 8 -5 26 -9 39 -5 22 -3 23 22 18 15 -4 39 -8 53 -11z m312
-3704 c31 -49 82 -124 112 -167 31 -44 61 -87 68 -98 13 -18 44 -60 91 -120
37 -48 136 -168 185 -225 26 -30 55 -63 65 -75 10 -11 43 -47 73 -78 l55 -57
-2 -113 c-1 -62 -6 -144 -11 -183 -5 -38 -11 -81 -13 -95 -2 -14 -4 -25 -5
-25 -2 0 -6 -23 -14 -75 -2 -14 -5 -25 -6 -25 -2 0 -6 -15 -13 -45 -10 -44
-61 -189 -79 -224 -12 -23 -20 -41 -18 -41 3 0 -44 -99 -50 -105 -3 -3 -12
-20 -20 -38 l-15 -33 -50 43 c-99 84 -303 335 -305 375 0 6 -4 13 -9 15 -25
10 -133 278 -161 404 -7 27 -14 58 -16 69 -3 11 -7 34 -9 50 -2 17 -7 41 -10
55 -9 39 -15 96 -20 208 -2 56 -7 107 -10 112 -3 6 -3 10 2 10 4 0 9 35 10 78
2 95 12 198 29 272 3 14 7 36 10 50 6 32 21 91 41 159 14 48 16 51 27 32 6
-12 37 -61 68 -110z"/>
<path d="M1997 5300 c-19 -16 -34 -35 -35 -42 0 -7 -3 -23 -6 -36 -7 -32 19
-87 51 -109 61 -42 150 -16 179 52 49 118 -93 219 -189 135z"/>
</g>
</svg>
